%TF.GenerationSoftware,KiCad,Pcbnew,10.0.0*%
%TF.CreationDate,2026-04-11T09:43:29+02:00*%
%TF.ProjectId,Electronic,456c6563-7472-46f6-9e69-632e6b696361,rev?*%
%TF.SameCoordinates,Original*%
%TF.FileFunction,Legend,Top*%
%TF.FilePolarity,Positive*%
%FSLAX46Y46*%
G04 Gerber Fmt 4.6, Leading zero omitted, Abs format (unit mm)*
G04 Created by KiCad (PCBNEW 10.0.0) date 2026-04-11 09:43:29*
%MOMM*%
%LPD*%
G01*
G04 APERTURE LIST*
%ADD10C,0.150000*%
%ADD11C,0.120000*%
G04 APERTURE END LIST*
D10*
X117691886Y-56704617D02*
X117691886Y-57418902D01*
X117691886Y-57418902D02*
X117644267Y-57561759D01*
X117644267Y-57561759D02*
X117549029Y-57656998D01*
X117549029Y-57656998D02*
X117406172Y-57704617D01*
X117406172Y-57704617D02*
X117310934Y-57704617D01*
X118120458Y-56799855D02*
X118168077Y-56752236D01*
X118168077Y-56752236D02*
X118263315Y-56704617D01*
X118263315Y-56704617D02*
X118501410Y-56704617D01*
X118501410Y-56704617D02*
X118596648Y-56752236D01*
X118596648Y-56752236D02*
X118644267Y-56799855D01*
X118644267Y-56799855D02*
X118691886Y-56895093D01*
X118691886Y-56895093D02*
X118691886Y-56990331D01*
X118691886Y-56990331D02*
X118644267Y-57133188D01*
X118644267Y-57133188D02*
X118072839Y-57704617D01*
X118072839Y-57704617D02*
X118691886Y-57704617D01*
X135824033Y-57598380D02*
X135776414Y-57646000D01*
X135776414Y-57646000D02*
X135633557Y-57693619D01*
X135633557Y-57693619D02*
X135538319Y-57693619D01*
X135538319Y-57693619D02*
X135395462Y-57646000D01*
X135395462Y-57646000D02*
X135300224Y-57550761D01*
X135300224Y-57550761D02*
X135252605Y-57455523D01*
X135252605Y-57455523D02*
X135204986Y-57265047D01*
X135204986Y-57265047D02*
X135204986Y-57122190D01*
X135204986Y-57122190D02*
X135252605Y-56931714D01*
X135252605Y-56931714D02*
X135300224Y-56836476D01*
X135300224Y-56836476D02*
X135395462Y-56741238D01*
X135395462Y-56741238D02*
X135538319Y-56693619D01*
X135538319Y-56693619D02*
X135633557Y-56693619D01*
X135633557Y-56693619D02*
X135776414Y-56741238D01*
X135776414Y-56741238D02*
X135824033Y-56788857D01*
X136204986Y-56788857D02*
X136252605Y-56741238D01*
X136252605Y-56741238D02*
X136347843Y-56693619D01*
X136347843Y-56693619D02*
X136585938Y-56693619D01*
X136585938Y-56693619D02*
X136681176Y-56741238D01*
X136681176Y-56741238D02*
X136728795Y-56788857D01*
X136728795Y-56788857D02*
X136776414Y-56884095D01*
X136776414Y-56884095D02*
X136776414Y-56979333D01*
X136776414Y-56979333D02*
X136728795Y-57122190D01*
X136728795Y-57122190D02*
X136157367Y-57693619D01*
X136157367Y-57693619D02*
X136776414Y-57693619D01*
X136454819Y-97666666D02*
X135978628Y-97999999D01*
X136454819Y-98238094D02*
X135454819Y-98238094D01*
X135454819Y-98238094D02*
X135454819Y-97857142D01*
X135454819Y-97857142D02*
X135502438Y-97761904D01*
X135502438Y-97761904D02*
X135550057Y-97714285D01*
X135550057Y-97714285D02*
X135645295Y-97666666D01*
X135645295Y-97666666D02*
X135788152Y-97666666D01*
X135788152Y-97666666D02*
X135883390Y-97714285D01*
X135883390Y-97714285D02*
X135931009Y-97761904D01*
X135931009Y-97761904D02*
X135978628Y-97857142D01*
X135978628Y-97857142D02*
X135978628Y-98238094D01*
X136454819Y-96714285D02*
X136454819Y-97285713D01*
X136454819Y-96999999D02*
X135454819Y-96999999D01*
X135454819Y-96999999D02*
X135597676Y-97095237D01*
X135597676Y-97095237D02*
X135692914Y-97190475D01*
X135692914Y-97190475D02*
X135740533Y-97285713D01*
X126738095Y-80454819D02*
X127309523Y-80454819D01*
X127023809Y-81454819D02*
X127023809Y-80454819D01*
X127642857Y-81454819D02*
X127642857Y-80454819D01*
X127642857Y-80454819D02*
X128023809Y-80454819D01*
X128023809Y-80454819D02*
X128119047Y-80502438D01*
X128119047Y-80502438D02*
X128166666Y-80550057D01*
X128166666Y-80550057D02*
X128214285Y-80645295D01*
X128214285Y-80645295D02*
X128214285Y-80788152D01*
X128214285Y-80788152D02*
X128166666Y-80883390D01*
X128166666Y-80883390D02*
X128119047Y-80931009D01*
X128119047Y-80931009D02*
X128023809Y-80978628D01*
X128023809Y-80978628D02*
X127642857Y-80978628D01*
X129166666Y-81454819D02*
X128595238Y-81454819D01*
X128880952Y-81454819D02*
X128880952Y-80454819D01*
X128880952Y-80454819D02*
X128785714Y-80597676D01*
X128785714Y-80597676D02*
X128690476Y-80692914D01*
X128690476Y-80692914D02*
X128595238Y-80740533D01*
X116554819Y-76861904D02*
X117364342Y-76861904D01*
X117364342Y-76861904D02*
X117459580Y-76814285D01*
X117459580Y-76814285D02*
X117507200Y-76766666D01*
X117507200Y-76766666D02*
X117554819Y-76671428D01*
X117554819Y-76671428D02*
X117554819Y-76480952D01*
X117554819Y-76480952D02*
X117507200Y-76385714D01*
X117507200Y-76385714D02*
X117459580Y-76338095D01*
X117459580Y-76338095D02*
X117364342Y-76290476D01*
X117364342Y-76290476D02*
X116554819Y-76290476D01*
X117507200Y-75861904D02*
X117554819Y-75719047D01*
X117554819Y-75719047D02*
X117554819Y-75480952D01*
X117554819Y-75480952D02*
X117507200Y-75385714D01*
X117507200Y-75385714D02*
X117459580Y-75338095D01*
X117459580Y-75338095D02*
X117364342Y-75290476D01*
X117364342Y-75290476D02*
X117269104Y-75290476D01*
X117269104Y-75290476D02*
X117173866Y-75338095D01*
X117173866Y-75338095D02*
X117126247Y-75385714D01*
X117126247Y-75385714D02*
X117078628Y-75480952D01*
X117078628Y-75480952D02*
X117031009Y-75671428D01*
X117031009Y-75671428D02*
X116983390Y-75766666D01*
X116983390Y-75766666D02*
X116935771Y-75814285D01*
X116935771Y-75814285D02*
X116840533Y-75861904D01*
X116840533Y-75861904D02*
X116745295Y-75861904D01*
X116745295Y-75861904D02*
X116650057Y-75814285D01*
X116650057Y-75814285D02*
X116602438Y-75766666D01*
X116602438Y-75766666D02*
X116554819Y-75671428D01*
X116554819Y-75671428D02*
X116554819Y-75433333D01*
X116554819Y-75433333D02*
X116602438Y-75290476D01*
X117031009Y-74528571D02*
X117078628Y-74385714D01*
X117078628Y-74385714D02*
X117126247Y-74338095D01*
X117126247Y-74338095D02*
X117221485Y-74290476D01*
X117221485Y-74290476D02*
X117364342Y-74290476D01*
X117364342Y-74290476D02*
X117459580Y-74338095D01*
X117459580Y-74338095D02*
X117507200Y-74385714D01*
X117507200Y-74385714D02*
X117554819Y-74480952D01*
X117554819Y-74480952D02*
X117554819Y-74861904D01*
X117554819Y-74861904D02*
X116554819Y-74861904D01*
X116554819Y-74861904D02*
X116554819Y-74528571D01*
X116554819Y-74528571D02*
X116602438Y-74433333D01*
X116602438Y-74433333D02*
X116650057Y-74385714D01*
X116650057Y-74385714D02*
X116745295Y-74338095D01*
X116745295Y-74338095D02*
X116840533Y-74338095D01*
X116840533Y-74338095D02*
X116935771Y-74385714D01*
X116935771Y-74385714D02*
X116983390Y-74433333D01*
X116983390Y-74433333D02*
X117031009Y-74528571D01*
X117031009Y-74528571D02*
X117031009Y-74861904D01*
X116057143Y-71073866D02*
X116819048Y-71073866D01*
X116438095Y-71454819D02*
X116438095Y-70692914D01*
X117295238Y-71454819D02*
X117295238Y-70454819D01*
X117771428Y-71454819D02*
X117771428Y-70454819D01*
X117771428Y-70454819D02*
X118342856Y-71454819D01*
X118342856Y-71454819D02*
X118342856Y-70454819D01*
X116157143Y-81073866D02*
X116919048Y-81073866D01*
X117395238Y-81454819D02*
X117395238Y-80454819D01*
X117871428Y-81454819D02*
X117871428Y-80454819D01*
X117871428Y-80454819D02*
X118442856Y-81454819D01*
X118442856Y-81454819D02*
X118442856Y-80454819D01*
X118719048Y-69233866D02*
X119480953Y-69233866D01*
X119100000Y-69614819D02*
X119100000Y-68852914D01*
X119119048Y-83373866D02*
X119880953Y-83373866D01*
X121557141Y-75331009D02*
X121699998Y-75378628D01*
X121699998Y-75378628D02*
X121747617Y-75426247D01*
X121747617Y-75426247D02*
X121795236Y-75521485D01*
X121795236Y-75521485D02*
X121795236Y-75664342D01*
X121795236Y-75664342D02*
X121747617Y-75759580D01*
X121747617Y-75759580D02*
X121699998Y-75807200D01*
X121699998Y-75807200D02*
X121604760Y-75854819D01*
X121604760Y-75854819D02*
X121223808Y-75854819D01*
X121223808Y-75854819D02*
X121223808Y-74854819D01*
X121223808Y-74854819D02*
X121557141Y-74854819D01*
X121557141Y-74854819D02*
X121652379Y-74902438D01*
X121652379Y-74902438D02*
X121699998Y-74950057D01*
X121699998Y-74950057D02*
X121747617Y-75045295D01*
X121747617Y-75045295D02*
X121747617Y-75140533D01*
X121747617Y-75140533D02*
X121699998Y-75235771D01*
X121699998Y-75235771D02*
X121652379Y-75283390D01*
X121652379Y-75283390D02*
X121557141Y-75331009D01*
X121557141Y-75331009D02*
X121223808Y-75331009D01*
X122652379Y-75854819D02*
X122652379Y-75331009D01*
X122652379Y-75331009D02*
X122604760Y-75235771D01*
X122604760Y-75235771D02*
X122509522Y-75188152D01*
X122509522Y-75188152D02*
X122319046Y-75188152D01*
X122319046Y-75188152D02*
X122223808Y-75235771D01*
X122652379Y-75807200D02*
X122557141Y-75854819D01*
X122557141Y-75854819D02*
X122319046Y-75854819D01*
X122319046Y-75854819D02*
X122223808Y-75807200D01*
X122223808Y-75807200D02*
X122176189Y-75711961D01*
X122176189Y-75711961D02*
X122176189Y-75616723D01*
X122176189Y-75616723D02*
X122223808Y-75521485D01*
X122223808Y-75521485D02*
X122319046Y-75473866D01*
X122319046Y-75473866D02*
X122557141Y-75473866D01*
X122557141Y-75473866D02*
X122652379Y-75426247D01*
X122985713Y-75188152D02*
X123366665Y-75188152D01*
X123128570Y-74854819D02*
X123128570Y-75711961D01*
X123128570Y-75711961D02*
X123176189Y-75807200D01*
X123176189Y-75807200D02*
X123271427Y-75854819D01*
X123271427Y-75854819D02*
X123366665Y-75854819D01*
X123557142Y-75188152D02*
X123938094Y-75188152D01*
X123699999Y-74854819D02*
X123699999Y-75711961D01*
X123699999Y-75711961D02*
X123747618Y-75807200D01*
X123747618Y-75807200D02*
X123842856Y-75854819D01*
X123842856Y-75854819D02*
X123938094Y-75854819D01*
X124652380Y-75807200D02*
X124557142Y-75854819D01*
X124557142Y-75854819D02*
X124366666Y-75854819D01*
X124366666Y-75854819D02*
X124271428Y-75807200D01*
X124271428Y-75807200D02*
X124223809Y-75711961D01*
X124223809Y-75711961D02*
X124223809Y-75331009D01*
X124223809Y-75331009D02*
X124271428Y-75235771D01*
X124271428Y-75235771D02*
X124366666Y-75188152D01*
X124366666Y-75188152D02*
X124557142Y-75188152D01*
X124557142Y-75188152D02*
X124652380Y-75235771D01*
X124652380Y-75235771D02*
X124699999Y-75331009D01*
X124699999Y-75331009D02*
X124699999Y-75426247D01*
X124699999Y-75426247D02*
X124223809Y-75521485D01*
X125128571Y-75854819D02*
X125128571Y-75188152D01*
X125128571Y-75378628D02*
X125176190Y-75283390D01*
X125176190Y-75283390D02*
X125223809Y-75235771D01*
X125223809Y-75235771D02*
X125319047Y-75188152D01*
X125319047Y-75188152D02*
X125414285Y-75188152D01*
X125652381Y-75188152D02*
X125890476Y-75854819D01*
X126128571Y-75188152D02*
X125890476Y-75854819D01*
X125890476Y-75854819D02*
X125795238Y-76092914D01*
X125795238Y-76092914D02*
X125747619Y-76140533D01*
X125747619Y-76140533D02*
X125652381Y-76188152D01*
X127842857Y-75759580D02*
X127795238Y-75807200D01*
X127795238Y-75807200D02*
X127652381Y-75854819D01*
X127652381Y-75854819D02*
X127557143Y-75854819D01*
X127557143Y-75854819D02*
X127414286Y-75807200D01*
X127414286Y-75807200D02*
X127319048Y-75711961D01*
X127319048Y-75711961D02*
X127271429Y-75616723D01*
X127271429Y-75616723D02*
X127223810Y-75426247D01*
X127223810Y-75426247D02*
X127223810Y-75283390D01*
X127223810Y-75283390D02*
X127271429Y-75092914D01*
X127271429Y-75092914D02*
X127319048Y-74997676D01*
X127319048Y-74997676D02*
X127414286Y-74902438D01*
X127414286Y-74902438D02*
X127557143Y-74854819D01*
X127557143Y-74854819D02*
X127652381Y-74854819D01*
X127652381Y-74854819D02*
X127795238Y-74902438D01*
X127795238Y-74902438D02*
X127842857Y-74950057D01*
X128271429Y-75854819D02*
X128271429Y-74854819D01*
X128700000Y-75854819D02*
X128700000Y-75331009D01*
X128700000Y-75331009D02*
X128652381Y-75235771D01*
X128652381Y-75235771D02*
X128557143Y-75188152D01*
X128557143Y-75188152D02*
X128414286Y-75188152D01*
X128414286Y-75188152D02*
X128319048Y-75235771D01*
X128319048Y-75235771D02*
X128271429Y-75283390D01*
X129604762Y-75854819D02*
X129604762Y-75331009D01*
X129604762Y-75331009D02*
X129557143Y-75235771D01*
X129557143Y-75235771D02*
X129461905Y-75188152D01*
X129461905Y-75188152D02*
X129271429Y-75188152D01*
X129271429Y-75188152D02*
X129176191Y-75235771D01*
X129604762Y-75807200D02*
X129509524Y-75854819D01*
X129509524Y-75854819D02*
X129271429Y-75854819D01*
X129271429Y-75854819D02*
X129176191Y-75807200D01*
X129176191Y-75807200D02*
X129128572Y-75711961D01*
X129128572Y-75711961D02*
X129128572Y-75616723D01*
X129128572Y-75616723D02*
X129176191Y-75521485D01*
X129176191Y-75521485D02*
X129271429Y-75473866D01*
X129271429Y-75473866D02*
X129509524Y-75473866D01*
X129509524Y-75473866D02*
X129604762Y-75426247D01*
X130080953Y-75854819D02*
X130080953Y-75188152D01*
X130080953Y-75378628D02*
X130128572Y-75283390D01*
X130128572Y-75283390D02*
X130176191Y-75235771D01*
X130176191Y-75235771D02*
X130271429Y-75188152D01*
X130271429Y-75188152D02*
X130366667Y-75188152D01*
X131128572Y-75188152D02*
X131128572Y-75997676D01*
X131128572Y-75997676D02*
X131080953Y-76092914D01*
X131080953Y-76092914D02*
X131033334Y-76140533D01*
X131033334Y-76140533D02*
X130938096Y-76188152D01*
X130938096Y-76188152D02*
X130795239Y-76188152D01*
X130795239Y-76188152D02*
X130700001Y-76140533D01*
X131128572Y-75807200D02*
X131033334Y-75854819D01*
X131033334Y-75854819D02*
X130842858Y-75854819D01*
X130842858Y-75854819D02*
X130747620Y-75807200D01*
X130747620Y-75807200D02*
X130700001Y-75759580D01*
X130700001Y-75759580D02*
X130652382Y-75664342D01*
X130652382Y-75664342D02*
X130652382Y-75378628D01*
X130652382Y-75378628D02*
X130700001Y-75283390D01*
X130700001Y-75283390D02*
X130747620Y-75235771D01*
X130747620Y-75235771D02*
X130842858Y-75188152D01*
X130842858Y-75188152D02*
X131033334Y-75188152D01*
X131033334Y-75188152D02*
X131128572Y-75235771D01*
X131985715Y-75807200D02*
X131890477Y-75854819D01*
X131890477Y-75854819D02*
X131700001Y-75854819D01*
X131700001Y-75854819D02*
X131604763Y-75807200D01*
X131604763Y-75807200D02*
X131557144Y-75711961D01*
X131557144Y-75711961D02*
X131557144Y-75331009D01*
X131557144Y-75331009D02*
X131604763Y-75235771D01*
X131604763Y-75235771D02*
X131700001Y-75188152D01*
X131700001Y-75188152D02*
X131890477Y-75188152D01*
X131890477Y-75188152D02*
X131985715Y-75235771D01*
X131985715Y-75235771D02*
X132033334Y-75331009D01*
X132033334Y-75331009D02*
X132033334Y-75426247D01*
X132033334Y-75426247D02*
X131557144Y-75521485D01*
X132461906Y-75854819D02*
X132461906Y-75188152D01*
X132461906Y-75378628D02*
X132509525Y-75283390D01*
X132509525Y-75283390D02*
X132557144Y-75235771D01*
X132557144Y-75235771D02*
X132652382Y-75188152D01*
X132652382Y-75188152D02*
X132747620Y-75188152D01*
X134366668Y-75854819D02*
X133795240Y-75854819D01*
X134080954Y-75854819D02*
X134080954Y-74854819D01*
X134080954Y-74854819D02*
X133985716Y-74997676D01*
X133985716Y-74997676D02*
X133890478Y-75092914D01*
X133890478Y-75092914D02*
X133795240Y-75140533D01*
X134747621Y-75569104D02*
X135223811Y-75569104D01*
X134652383Y-75854819D02*
X134985716Y-74854819D01*
X134985716Y-74854819D02*
X135319049Y-75854819D01*
X134947619Y-82154819D02*
X135138095Y-82154819D01*
X135138095Y-82154819D02*
X135233333Y-82202438D01*
X135233333Y-82202438D02*
X135328571Y-82297676D01*
X135328571Y-82297676D02*
X135376190Y-82488152D01*
X135376190Y-82488152D02*
X135376190Y-82821485D01*
X135376190Y-82821485D02*
X135328571Y-83011961D01*
X135328571Y-83011961D02*
X135233333Y-83107200D01*
X135233333Y-83107200D02*
X135138095Y-83154819D01*
X135138095Y-83154819D02*
X134947619Y-83154819D01*
X134947619Y-83154819D02*
X134852381Y-83107200D01*
X134852381Y-83107200D02*
X134757143Y-83011961D01*
X134757143Y-83011961D02*
X134709524Y-82821485D01*
X134709524Y-82821485D02*
X134709524Y-82488152D01*
X134709524Y-82488152D02*
X134757143Y-82297676D01*
X134757143Y-82297676D02*
X134852381Y-82202438D01*
X134852381Y-82202438D02*
X134947619Y-82154819D01*
X136233333Y-82488152D02*
X136233333Y-83154819D01*
X135804762Y-82488152D02*
X135804762Y-83011961D01*
X135804762Y-83011961D02*
X135852381Y-83107200D01*
X135852381Y-83107200D02*
X135947619Y-83154819D01*
X135947619Y-83154819D02*
X136090476Y-83154819D01*
X136090476Y-83154819D02*
X136185714Y-83107200D01*
X136185714Y-83107200D02*
X136233333Y-83059580D01*
X136566667Y-82488152D02*
X136947619Y-82488152D01*
X136709524Y-82154819D02*
X136709524Y-83011961D01*
X136709524Y-83011961D02*
X136757143Y-83107200D01*
X136757143Y-83107200D02*
X136852381Y-83154819D01*
X136852381Y-83154819D02*
X136947619Y-83154819D01*
X137280953Y-82773866D02*
X138042858Y-82773866D01*
X135547619Y-68454819D02*
X135738095Y-68454819D01*
X135738095Y-68454819D02*
X135833333Y-68502438D01*
X135833333Y-68502438D02*
X135928571Y-68597676D01*
X135928571Y-68597676D02*
X135976190Y-68788152D01*
X135976190Y-68788152D02*
X135976190Y-69121485D01*
X135976190Y-69121485D02*
X135928571Y-69311961D01*
X135928571Y-69311961D02*
X135833333Y-69407200D01*
X135833333Y-69407200D02*
X135738095Y-69454819D01*
X135738095Y-69454819D02*
X135547619Y-69454819D01*
X135547619Y-69454819D02*
X135452381Y-69407200D01*
X135452381Y-69407200D02*
X135357143Y-69311961D01*
X135357143Y-69311961D02*
X135309524Y-69121485D01*
X135309524Y-69121485D02*
X135309524Y-68788152D01*
X135309524Y-68788152D02*
X135357143Y-68597676D01*
X135357143Y-68597676D02*
X135452381Y-68502438D01*
X135452381Y-68502438D02*
X135547619Y-68454819D01*
X136833333Y-68788152D02*
X136833333Y-69454819D01*
X136404762Y-68788152D02*
X136404762Y-69311961D01*
X136404762Y-69311961D02*
X136452381Y-69407200D01*
X136452381Y-69407200D02*
X136547619Y-69454819D01*
X136547619Y-69454819D02*
X136690476Y-69454819D01*
X136690476Y-69454819D02*
X136785714Y-69407200D01*
X136785714Y-69407200D02*
X136833333Y-69359580D01*
X137166667Y-68788152D02*
X137547619Y-68788152D01*
X137309524Y-68454819D02*
X137309524Y-69311961D01*
X137309524Y-69311961D02*
X137357143Y-69407200D01*
X137357143Y-69407200D02*
X137452381Y-69454819D01*
X137452381Y-69454819D02*
X137547619Y-69454819D01*
X137880953Y-69073866D02*
X138642858Y-69073866D01*
X138261905Y-69454819D02*
X138261905Y-68692914D01*
X136652381Y-71531009D02*
X136795238Y-71578628D01*
X136795238Y-71578628D02*
X136842857Y-71626247D01*
X136842857Y-71626247D02*
X136890476Y-71721485D01*
X136890476Y-71721485D02*
X136890476Y-71864342D01*
X136890476Y-71864342D02*
X136842857Y-71959580D01*
X136842857Y-71959580D02*
X136795238Y-72007200D01*
X136795238Y-72007200D02*
X136700000Y-72054819D01*
X136700000Y-72054819D02*
X136319048Y-72054819D01*
X136319048Y-72054819D02*
X136319048Y-71054819D01*
X136319048Y-71054819D02*
X136652381Y-71054819D01*
X136652381Y-71054819D02*
X136747619Y-71102438D01*
X136747619Y-71102438D02*
X136795238Y-71150057D01*
X136795238Y-71150057D02*
X136842857Y-71245295D01*
X136842857Y-71245295D02*
X136842857Y-71340533D01*
X136842857Y-71340533D02*
X136795238Y-71435771D01*
X136795238Y-71435771D02*
X136747619Y-71483390D01*
X136747619Y-71483390D02*
X136652381Y-71531009D01*
X136652381Y-71531009D02*
X136319048Y-71531009D01*
X137319048Y-71673866D02*
X138080953Y-71673866D01*
X137700000Y-72054819D02*
X137700000Y-71292914D01*
X136652381Y-80431009D02*
X136795238Y-80478628D01*
X136795238Y-80478628D02*
X136842857Y-80526247D01*
X136842857Y-80526247D02*
X136890476Y-80621485D01*
X136890476Y-80621485D02*
X136890476Y-80764342D01*
X136890476Y-80764342D02*
X136842857Y-80859580D01*
X136842857Y-80859580D02*
X136795238Y-80907200D01*
X136795238Y-80907200D02*
X136700000Y-80954819D01*
X136700000Y-80954819D02*
X136319048Y-80954819D01*
X136319048Y-80954819D02*
X136319048Y-79954819D01*
X136319048Y-79954819D02*
X136652381Y-79954819D01*
X136652381Y-79954819D02*
X136747619Y-80002438D01*
X136747619Y-80002438D02*
X136795238Y-80050057D01*
X136795238Y-80050057D02*
X136842857Y-80145295D01*
X136842857Y-80145295D02*
X136842857Y-80240533D01*
X136842857Y-80240533D02*
X136795238Y-80335771D01*
X136795238Y-80335771D02*
X136747619Y-80383390D01*
X136747619Y-80383390D02*
X136652381Y-80431009D01*
X136652381Y-80431009D02*
X136319048Y-80431009D01*
X137319048Y-80573866D02*
X138080953Y-80573866D01*
X124771402Y-55784529D02*
X124771402Y-56498814D01*
X124771402Y-56498814D02*
X124723783Y-56641671D01*
X124723783Y-56641671D02*
X124628545Y-56736910D01*
X124628545Y-56736910D02*
X124485688Y-56784529D01*
X124485688Y-56784529D02*
X124390450Y-56784529D01*
X125771402Y-56784529D02*
X125199974Y-56784529D01*
X125485688Y-56784529D02*
X125485688Y-55784529D01*
X125485688Y-55784529D02*
X125390450Y-55927386D01*
X125390450Y-55927386D02*
X125295212Y-56022624D01*
X125295212Y-56022624D02*
X125199974Y-56070243D01*
X147738095Y-56454819D02*
X147738095Y-57264342D01*
X147738095Y-57264342D02*
X147785714Y-57359580D01*
X147785714Y-57359580D02*
X147833333Y-57407200D01*
X147833333Y-57407200D02*
X147928571Y-57454819D01*
X147928571Y-57454819D02*
X148119047Y-57454819D01*
X148119047Y-57454819D02*
X148214285Y-57407200D01*
X148214285Y-57407200D02*
X148261904Y-57359580D01*
X148261904Y-57359580D02*
X148309523Y-57264342D01*
X148309523Y-57264342D02*
X148309523Y-56454819D01*
X149309523Y-57454819D02*
X148738095Y-57454819D01*
X149023809Y-57454819D02*
X149023809Y-56454819D01*
X149023809Y-56454819D02*
X148928571Y-56597676D01*
X148928571Y-56597676D02*
X148833333Y-56692914D01*
X148833333Y-56692914D02*
X148738095Y-56740533D01*
X124754238Y-97699871D02*
X124278047Y-98033204D01*
X124754238Y-98271299D02*
X123754238Y-98271299D01*
X123754238Y-98271299D02*
X123754238Y-97890347D01*
X123754238Y-97890347D02*
X123801857Y-97795109D01*
X123801857Y-97795109D02*
X123849476Y-97747490D01*
X123849476Y-97747490D02*
X123944714Y-97699871D01*
X123944714Y-97699871D02*
X124087571Y-97699871D01*
X124087571Y-97699871D02*
X124182809Y-97747490D01*
X124182809Y-97747490D02*
X124230428Y-97795109D01*
X124230428Y-97795109D02*
X124278047Y-97890347D01*
X124278047Y-97890347D02*
X124278047Y-98271299D01*
X123754238Y-97366537D02*
X123754238Y-96747490D01*
X123754238Y-96747490D02*
X124135190Y-97080823D01*
X124135190Y-97080823D02*
X124135190Y-96937966D01*
X124135190Y-96937966D02*
X124182809Y-96842728D01*
X124182809Y-96842728D02*
X124230428Y-96795109D01*
X124230428Y-96795109D02*
X124325666Y-96747490D01*
X124325666Y-96747490D02*
X124563761Y-96747490D01*
X124563761Y-96747490D02*
X124658999Y-96795109D01*
X124658999Y-96795109D02*
X124706619Y-96842728D01*
X124706619Y-96842728D02*
X124754238Y-96937966D01*
X124754238Y-96937966D02*
X124754238Y-97223680D01*
X124754238Y-97223680D02*
X124706619Y-97318918D01*
X124706619Y-97318918D02*
X124658999Y-97366537D01*
X141738046Y-57454827D02*
X141738046Y-58264350D01*
X141738046Y-58264350D02*
X141785665Y-58359588D01*
X141785665Y-58359588D02*
X141833284Y-58407208D01*
X141833284Y-58407208D02*
X141928522Y-58454827D01*
X141928522Y-58454827D02*
X142118998Y-58454827D01*
X142118998Y-58454827D02*
X142214236Y-58407208D01*
X142214236Y-58407208D02*
X142261855Y-58359588D01*
X142261855Y-58359588D02*
X142309474Y-58264350D01*
X142309474Y-58264350D02*
X142309474Y-57454827D01*
X142738046Y-57550065D02*
X142785665Y-57502446D01*
X142785665Y-57502446D02*
X142880903Y-57454827D01*
X142880903Y-57454827D02*
X143118998Y-57454827D01*
X143118998Y-57454827D02*
X143214236Y-57502446D01*
X143214236Y-57502446D02*
X143261855Y-57550065D01*
X143261855Y-57550065D02*
X143309474Y-57645303D01*
X143309474Y-57645303D02*
X143309474Y-57740541D01*
X143309474Y-57740541D02*
X143261855Y-57883398D01*
X143261855Y-57883398D02*
X142690427Y-58454827D01*
X142690427Y-58454827D02*
X143309474Y-58454827D01*
X166666666Y-95054819D02*
X166666666Y-95769104D01*
X166666666Y-95769104D02*
X166619047Y-95911961D01*
X166619047Y-95911961D02*
X166523809Y-96007200D01*
X166523809Y-96007200D02*
X166380952Y-96054819D01*
X166380952Y-96054819D02*
X166285714Y-96054819D01*
X167047619Y-95054819D02*
X167666666Y-95054819D01*
X167666666Y-95054819D02*
X167333333Y-95435771D01*
X167333333Y-95435771D02*
X167476190Y-95435771D01*
X167476190Y-95435771D02*
X167571428Y-95483390D01*
X167571428Y-95483390D02*
X167619047Y-95531009D01*
X167619047Y-95531009D02*
X167666666Y-95626247D01*
X167666666Y-95626247D02*
X167666666Y-95864342D01*
X167666666Y-95864342D02*
X167619047Y-95959580D01*
X167619047Y-95959580D02*
X167571428Y-96007200D01*
X167571428Y-96007200D02*
X167476190Y-96054819D01*
X167476190Y-96054819D02*
X167190476Y-96054819D01*
X167190476Y-96054819D02*
X167095238Y-96007200D01*
X167095238Y-96007200D02*
X167047619Y-95959580D01*
X118154961Y-88550057D02*
X118059723Y-88502438D01*
X118059723Y-88502438D02*
X117964485Y-88407200D01*
X117964485Y-88407200D02*
X117821628Y-88264342D01*
X117821628Y-88264342D02*
X117726390Y-88216723D01*
X117726390Y-88216723D02*
X117631152Y-88216723D01*
X117678771Y-88454819D02*
X117583533Y-88407200D01*
X117583533Y-88407200D02*
X117488295Y-88311961D01*
X117488295Y-88311961D02*
X117440676Y-88121485D01*
X117440676Y-88121485D02*
X117440676Y-87788152D01*
X117440676Y-87788152D02*
X117488295Y-87597676D01*
X117488295Y-87597676D02*
X117583533Y-87502438D01*
X117583533Y-87502438D02*
X117678771Y-87454819D01*
X117678771Y-87454819D02*
X117869247Y-87454819D01*
X117869247Y-87454819D02*
X117964485Y-87502438D01*
X117964485Y-87502438D02*
X118059723Y-87597676D01*
X118059723Y-87597676D02*
X118107342Y-87788152D01*
X118107342Y-87788152D02*
X118107342Y-88121485D01*
X118107342Y-88121485D02*
X118059723Y-88311961D01*
X118059723Y-88311961D02*
X117964485Y-88407200D01*
X117964485Y-88407200D02*
X117869247Y-88454819D01*
X117869247Y-88454819D02*
X117678771Y-88454819D01*
X119059723Y-88454819D02*
X118488295Y-88454819D01*
X118774009Y-88454819D02*
X118774009Y-87454819D01*
X118774009Y-87454819D02*
X118678771Y-87597676D01*
X118678771Y-87597676D02*
X118583533Y-87692914D01*
X118583533Y-87692914D02*
X118488295Y-87740533D01*
X130333333Y-58609580D02*
X130285714Y-58657200D01*
X130285714Y-58657200D02*
X130142857Y-58704819D01*
X130142857Y-58704819D02*
X130047619Y-58704819D01*
X130047619Y-58704819D02*
X129904762Y-58657200D01*
X129904762Y-58657200D02*
X129809524Y-58561961D01*
X129809524Y-58561961D02*
X129761905Y-58466723D01*
X129761905Y-58466723D02*
X129714286Y-58276247D01*
X129714286Y-58276247D02*
X129714286Y-58133390D01*
X129714286Y-58133390D02*
X129761905Y-57942914D01*
X129761905Y-57942914D02*
X129809524Y-57847676D01*
X129809524Y-57847676D02*
X129904762Y-57752438D01*
X129904762Y-57752438D02*
X130047619Y-57704819D01*
X130047619Y-57704819D02*
X130142857Y-57704819D01*
X130142857Y-57704819D02*
X130285714Y-57752438D01*
X130285714Y-57752438D02*
X130333333Y-57800057D01*
X131285714Y-58704819D02*
X130714286Y-58704819D01*
X131000000Y-58704819D02*
X131000000Y-57704819D01*
X131000000Y-57704819D02*
X130904762Y-57847676D01*
X130904762Y-57847676D02*
X130809524Y-57942914D01*
X130809524Y-57942914D02*
X130714286Y-57990533D01*
X151666666Y-95054819D02*
X151666666Y-95769104D01*
X151666666Y-95769104D02*
X151619047Y-95911961D01*
X151619047Y-95911961D02*
X151523809Y-96007200D01*
X151523809Y-96007200D02*
X151380952Y-96054819D01*
X151380952Y-96054819D02*
X151285714Y-96054819D01*
X152571428Y-95388152D02*
X152571428Y-96054819D01*
X152333333Y-95007200D02*
X152095238Y-95721485D01*
X152095238Y-95721485D02*
X152714285Y-95721485D01*
X130712516Y-97550113D02*
X130236325Y-97883446D01*
X130712516Y-98121541D02*
X129712516Y-98121541D01*
X129712516Y-98121541D02*
X129712516Y-97740589D01*
X129712516Y-97740589D02*
X129760135Y-97645351D01*
X129760135Y-97645351D02*
X129807754Y-97597732D01*
X129807754Y-97597732D02*
X129902992Y-97550113D01*
X129902992Y-97550113D02*
X130045849Y-97550113D01*
X130045849Y-97550113D02*
X130141087Y-97597732D01*
X130141087Y-97597732D02*
X130188706Y-97645351D01*
X130188706Y-97645351D02*
X130236325Y-97740589D01*
X130236325Y-97740589D02*
X130236325Y-98121541D01*
X129807754Y-97169160D02*
X129760135Y-97121541D01*
X129760135Y-97121541D02*
X129712516Y-97026303D01*
X129712516Y-97026303D02*
X129712516Y-96788208D01*
X129712516Y-96788208D02*
X129760135Y-96692970D01*
X129760135Y-96692970D02*
X129807754Y-96645351D01*
X129807754Y-96645351D02*
X129902992Y-96597732D01*
X129902992Y-96597732D02*
X129998230Y-96597732D01*
X129998230Y-96597732D02*
X130141087Y-96645351D01*
X130141087Y-96645351D02*
X130712516Y-97216779D01*
X130712516Y-97216779D02*
X130712516Y-96597732D01*
X141166666Y-86454819D02*
X141166666Y-87169104D01*
X141166666Y-87169104D02*
X141119047Y-87311961D01*
X141119047Y-87311961D02*
X141023809Y-87407200D01*
X141023809Y-87407200D02*
X140880952Y-87454819D01*
X140880952Y-87454819D02*
X140785714Y-87454819D01*
X142119047Y-86454819D02*
X141642857Y-86454819D01*
X141642857Y-86454819D02*
X141595238Y-86931009D01*
X141595238Y-86931009D02*
X141642857Y-86883390D01*
X141642857Y-86883390D02*
X141738095Y-86835771D01*
X141738095Y-86835771D02*
X141976190Y-86835771D01*
X141976190Y-86835771D02*
X142071428Y-86883390D01*
X142071428Y-86883390D02*
X142119047Y-86931009D01*
X142119047Y-86931009D02*
X142166666Y-87026247D01*
X142166666Y-87026247D02*
X142166666Y-87264342D01*
X142166666Y-87264342D02*
X142119047Y-87359580D01*
X142119047Y-87359580D02*
X142071428Y-87407200D01*
X142071428Y-87407200D02*
X141976190Y-87454819D01*
X141976190Y-87454819D02*
X141738095Y-87454819D01*
X141738095Y-87454819D02*
X141642857Y-87407200D01*
X141642857Y-87407200D02*
X141595238Y-87359580D01*
%TO.C,J2*%
D11*
X116312500Y-59068200D02*
X116312500Y-63968200D01*
X116312500Y-61418200D02*
X116812500Y-61418200D01*
X116312500Y-61518200D02*
X116812500Y-61518200D01*
X116312500Y-63968200D02*
X119812500Y-63968200D01*
X116812500Y-61418200D02*
X116812500Y-61618200D01*
X116812500Y-61618200D02*
X116312500Y-61618200D01*
X117812500Y-58458200D02*
X117812500Y-59068200D01*
X117812500Y-64578200D02*
X117812500Y-63968200D01*
X119112500Y-58458200D02*
X119112500Y-59068200D01*
X119112500Y-64578200D02*
X119112500Y-63968200D01*
X119812500Y-59068200D02*
X116312500Y-59068200D01*
X119812500Y-61018200D02*
X119812500Y-59068200D01*
X119812500Y-62018200D02*
X120422500Y-62018200D01*
X119812500Y-63968200D02*
X119812500Y-62018200D01*
X120422500Y-60218200D02*
X120622500Y-60218200D01*
X120422500Y-61018200D02*
X119812500Y-61018200D01*
X120522500Y-60218200D02*
X120522500Y-59918200D01*
X120622500Y-59918200D02*
X120422500Y-59918200D01*
X120622500Y-60218200D02*
X120622500Y-59918200D01*
X120722500Y-58158200D02*
X119472500Y-58158200D01*
X120722500Y-59408200D02*
X120722500Y-58158200D01*
X115702500Y-58458200D02*
X120422500Y-58458200D01*
X120422500Y-64578200D01*
X115702500Y-64578200D01*
X115702500Y-58458200D01*
%TO.C,C2*%
X132760700Y-61448800D02*
X139220700Y-61448800D01*
X132760700Y-61488800D02*
X139220700Y-61488800D01*
X132761700Y-61408800D02*
X139219700Y-61408800D01*
X132762700Y-61368800D02*
X139218700Y-61368800D01*
X132764700Y-61328800D02*
X139216700Y-61328800D01*
X132766700Y-61288800D02*
X139214700Y-61288800D01*
X132769700Y-61248800D02*
X134950700Y-61248800D01*
X132772700Y-61208800D02*
X134950700Y-61208800D01*
X132776700Y-61168800D02*
X134950700Y-61168800D01*
X132780700Y-61128800D02*
X134950700Y-61128800D01*
X132785700Y-61088800D02*
X134950700Y-61088800D01*
X132790700Y-61048800D02*
X134950700Y-61048800D01*
X132795700Y-61008800D02*
X134950700Y-61008800D01*
X132802700Y-60968800D02*
X134950700Y-60968800D01*
X132808700Y-60928800D02*
X134950700Y-60928800D01*
X132816700Y-60888800D02*
X134950700Y-60888800D01*
X132823700Y-60848800D02*
X134950700Y-60848800D01*
X132831700Y-60808800D02*
X134950700Y-60808800D01*
X132840700Y-60768800D02*
X134950700Y-60768800D01*
X132850700Y-60728800D02*
X134950700Y-60728800D01*
X132859700Y-60688800D02*
X134950700Y-60688800D01*
X132870700Y-60648800D02*
X134950700Y-60648800D01*
X132881700Y-60608800D02*
X134950700Y-60608800D01*
X132892700Y-60568800D02*
X134950700Y-60568800D01*
X132904700Y-60528800D02*
X134950700Y-60528800D01*
X132917700Y-60488800D02*
X134950700Y-60488800D01*
X132930700Y-60448800D02*
X134950700Y-60448800D01*
X132943700Y-60408800D02*
X134950700Y-60408800D01*
X132958700Y-60368800D02*
X134950700Y-60368800D01*
X132973700Y-60328800D02*
X134950700Y-60328800D01*
X132988700Y-60288800D02*
X134950700Y-60288800D01*
X133004700Y-60248800D02*
X134950700Y-60248800D01*
X133021700Y-60208800D02*
X134950700Y-60208800D01*
X133038700Y-60168800D02*
X134950700Y-60168800D01*
X133056700Y-60128800D02*
X134950700Y-60128800D01*
X133075700Y-60088800D02*
X134950700Y-60088800D01*
X133094700Y-60048800D02*
X134950700Y-60048800D01*
X133114700Y-60008800D02*
X134950700Y-60008800D01*
X133135700Y-59968800D02*
X134950700Y-59968800D01*
X133156700Y-59928800D02*
X134950700Y-59928800D01*
X133178700Y-59888800D02*
X134950700Y-59888800D01*
X133201700Y-59848800D02*
X134950700Y-59848800D01*
X133225700Y-59808800D02*
X134950700Y-59808800D01*
X133249700Y-59768800D02*
X134950700Y-59768800D01*
X133274700Y-59728800D02*
X134950700Y-59728800D01*
X133300700Y-59688800D02*
X134950700Y-59688800D01*
X133327700Y-59648800D02*
X134950700Y-59648800D01*
X133354700Y-59608800D02*
X134950700Y-59608800D01*
X133383700Y-59568800D02*
X134950700Y-59568800D01*
X133413700Y-59528800D02*
X134950700Y-59528800D01*
X133443700Y-59488800D02*
X134950700Y-59488800D01*
X133474700Y-59448800D02*
X134950700Y-59448800D01*
X133507700Y-59408800D02*
X134950700Y-59408800D01*
X133540700Y-59368800D02*
X134950700Y-59368800D01*
X133575700Y-59328800D02*
X134950700Y-59328800D01*
X133611700Y-59288800D02*
X134950700Y-59288800D01*
X133648700Y-59248800D02*
X134950700Y-59248800D01*
X133686700Y-59208800D02*
X134950700Y-59208800D01*
X133726700Y-59168800D02*
X138254700Y-59168800D01*
X133767700Y-59128800D02*
X138213700Y-59128800D01*
X133809700Y-59088800D02*
X138171700Y-59088800D01*
X133836700Y-64674041D02*
X134466700Y-64674041D01*
X133853700Y-59048800D02*
X138127700Y-59048800D01*
X133899700Y-59008800D02*
X138081700Y-59008800D01*
X133946700Y-58968800D02*
X138034700Y-58968800D01*
X133995700Y-58928800D02*
X137985700Y-58928800D01*
X134047700Y-58888800D02*
X137933700Y-58888800D01*
X134100700Y-58848800D02*
X137880700Y-58848800D01*
X134151700Y-64989041D02*
X134151700Y-64359041D01*
X134156700Y-58808800D02*
X137824700Y-58808800D01*
X134215700Y-58768800D02*
X137765700Y-58768800D01*
X134276700Y-58728800D02*
X137704700Y-58728800D01*
X134341700Y-58688800D02*
X137639700Y-58688800D01*
X134409700Y-58648800D02*
X137571700Y-58648800D01*
X134481700Y-58608800D02*
X137499700Y-58608800D01*
X134558700Y-58568800D02*
X137422700Y-58568800D01*
X134640700Y-58528800D02*
X137340700Y-58528800D01*
X134729700Y-58488800D02*
X137251700Y-58488800D01*
X134825700Y-58448800D02*
X137155700Y-58448800D01*
X134932700Y-58408800D02*
X137048700Y-58408800D01*
X135051700Y-58368800D02*
X136929700Y-58368800D01*
X135189700Y-58328800D02*
X136791700Y-58328800D01*
X135357700Y-58288800D02*
X136623700Y-58288800D01*
X135588700Y-58248800D02*
X136392700Y-58248800D01*
X137030700Y-59208800D02*
X138294700Y-59208800D01*
X137030700Y-59248800D02*
X138332700Y-59248800D01*
X137030700Y-59288800D02*
X138369700Y-59288800D01*
X137030700Y-59328800D02*
X138405700Y-59328800D01*
X137030700Y-59368800D02*
X138440700Y-59368800D01*
X137030700Y-59408800D02*
X138473700Y-59408800D01*
X137030700Y-59448800D02*
X138506700Y-59448800D01*
X137030700Y-59488800D02*
X138537700Y-59488800D01*
X137030700Y-59528800D02*
X138567700Y-59528800D01*
X137030700Y-59568800D02*
X138597700Y-59568800D01*
X137030700Y-59608800D02*
X138626700Y-59608800D01*
X137030700Y-59648800D02*
X138653700Y-59648800D01*
X137030700Y-59688800D02*
X138680700Y-59688800D01*
X137030700Y-59728800D02*
X138706700Y-59728800D01*
X137030700Y-59768800D02*
X138731700Y-59768800D01*
X137030700Y-59808800D02*
X138755700Y-59808800D01*
X137030700Y-59848800D02*
X138779700Y-59848800D01*
X137030700Y-59888800D02*
X138802700Y-59888800D01*
X137030700Y-59928800D02*
X138824700Y-59928800D01*
X137030700Y-59968800D02*
X138845700Y-59968800D01*
X137030700Y-60008800D02*
X138866700Y-60008800D01*
X137030700Y-60048800D02*
X138886700Y-60048800D01*
X137030700Y-60088800D02*
X138905700Y-60088800D01*
X137030700Y-60128800D02*
X138924700Y-60128800D01*
X137030700Y-60168800D02*
X138942700Y-60168800D01*
X137030700Y-60208800D02*
X138959700Y-60208800D01*
X137030700Y-60248800D02*
X138976700Y-60248800D01*
X137030700Y-60288800D02*
X138992700Y-60288800D01*
X137030700Y-60328800D02*
X139007700Y-60328800D01*
X137030700Y-60368800D02*
X139022700Y-60368800D01*
X137030700Y-60408800D02*
X139037700Y-60408800D01*
X137030700Y-60448800D02*
X139050700Y-60448800D01*
X137030700Y-60488800D02*
X139063700Y-60488800D01*
X137030700Y-60528800D02*
X139076700Y-60528800D01*
X137030700Y-60568800D02*
X139088700Y-60568800D01*
X137030700Y-60608800D02*
X139099700Y-60608800D01*
X137030700Y-60648800D02*
X139110700Y-60648800D01*
X137030700Y-60688800D02*
X139121700Y-60688800D01*
X137030700Y-60728800D02*
X139130700Y-60728800D01*
X137030700Y-60768800D02*
X139140700Y-60768800D01*
X137030700Y-60808800D02*
X139149700Y-60808800D01*
X137030700Y-60848800D02*
X139157700Y-60848800D01*
X137030700Y-60888800D02*
X139164700Y-60888800D01*
X137030700Y-60928800D02*
X139172700Y-60928800D01*
X137030700Y-60968800D02*
X139178700Y-60968800D01*
X137030700Y-61008800D02*
X139185700Y-61008800D01*
X137030700Y-61048800D02*
X139190700Y-61048800D01*
X137030700Y-61088800D02*
X139195700Y-61088800D01*
X137030700Y-61128800D02*
X139200700Y-61128800D01*
X137030700Y-61168800D02*
X139204700Y-61168800D01*
X137030700Y-61208800D02*
X139208700Y-61208800D01*
X137030700Y-61248800D02*
X139211700Y-61248800D01*
X139260700Y-61488800D02*
G75*
G02*
X132720700Y-61488800I-3270000J0D01*
G01*
X132720700Y-61488800D02*
G75*
G02*
X139260700Y-61488800I3270000J0D01*
G01*
%TO.C,R1*%
X136250200Y-88094200D02*
X136250200Y-88204200D01*
X136250200Y-100454200D02*
X136250200Y-100344200D01*
X133880200Y-88204200D02*
X138620200Y-88204200D01*
X138620200Y-100344200D01*
X133880200Y-100344200D01*
X133880200Y-88204200D01*
%TO.C,TP1*%
D10*
X115500000Y-67500000D02*
X143500000Y-67500000D01*
X115500000Y-84500000D02*
X115500000Y-67500000D01*
X115900000Y-73700000D02*
X118400000Y-73700000D01*
X115900000Y-77500000D02*
X115900000Y-73800000D01*
X118400000Y-73700000D02*
X118400000Y-77500000D01*
X118400000Y-77500000D02*
X115900000Y-77500000D01*
X141600000Y-69500000D02*
X141600000Y-82500000D01*
X141600000Y-82500000D02*
X143500000Y-82500000D01*
X143500000Y-67500000D02*
X143500000Y-69500000D01*
X143500000Y-69500000D02*
X141600000Y-69500000D01*
X143500000Y-82500000D02*
X143500000Y-84500000D01*
X143500000Y-84500000D02*
X115500000Y-84500000D01*
%TO.C,J1*%
D11*
X121750000Y-64100000D02*
X121750000Y-65350000D01*
X121750000Y-65350000D02*
X123000000Y-65350000D01*
X124300000Y-57450000D02*
X124300000Y-58200000D01*
X124300000Y-58200000D02*
X127250000Y-58200000D01*
X124300000Y-64300000D02*
X127250000Y-64300000D01*
X124300000Y-65050000D02*
X124300000Y-64300000D01*
X127250000Y-58200000D02*
X127250000Y-61250000D01*
X127250000Y-64300000D02*
X127250000Y-61250000D01*
X122040000Y-57440000D02*
X128010000Y-57440000D01*
X128010000Y-65060000D01*
X122040000Y-65060000D01*
X122040000Y-57440000D01*
X122050000Y-57450000D02*
X122800000Y-57450000D01*
X122800000Y-59250000D01*
X122050000Y-59250000D01*
X122050000Y-57450000D01*
X122050000Y-60750000D02*
X122800000Y-60750000D01*
X122800000Y-61750000D01*
X122050000Y-61750000D01*
X122050000Y-60750000D01*
X122050000Y-63250000D02*
X122800000Y-63250000D01*
X122800000Y-65050000D01*
X122050000Y-65050000D01*
X122050000Y-63250000D01*
%TO.C,U1*%
X146140000Y-57880000D02*
X146140000Y-90210000D01*
X148260000Y-92340000D02*
X169870000Y-92340000D01*
X169460000Y-57880000D02*
X146140000Y-57880000D01*
X169460000Y-64780000D02*
X169460000Y-57880000D01*
X172000000Y-64780000D02*
X169460000Y-64780000D01*
X172000000Y-64780000D02*
X172000000Y-90210000D01*
X148270000Y-92340000D02*
G75*
G02*
X146140000Y-90210000I0J2130000D01*
G01*
X172000000Y-90210000D02*
G75*
G02*
X169870000Y-92340000I-2130002J2D01*
G01*
D10*
X173040000Y-84635000D02*
X172405000Y-84000000D01*
X173040000Y-83365000D01*
X173040000Y-84635000D01*
G36*
X173040000Y-84635000D02*
G01*
X172405000Y-84000000D01*
X173040000Y-83365000D01*
X173040000Y-84635000D01*
G37*
%TO.C,R3*%
D11*
X124250200Y-88204200D02*
X124250200Y-88314200D01*
X124250200Y-100564200D02*
X124250200Y-100454200D01*
X121880200Y-88314200D02*
X126620200Y-88314200D01*
X126620200Y-100454200D01*
X121880200Y-100454200D01*
X121880200Y-88314200D01*
%TO.C,U2*%
X140257800Y-59860300D02*
X140257800Y-63460300D01*
X140269322Y-59821822D02*
G75*
G02*
X144707801Y-61660300I1838478J-1838478D01*
G01*
X144707800Y-61660300D02*
G75*
G02*
X140269322Y-63498778I-2600000J0D01*
G01*
%TO.C,J3*%
X160640000Y-96390000D02*
X160640000Y-97640000D01*
X160940000Y-98000000D02*
X161550000Y-98000000D01*
X160940000Y-99300000D02*
X161550000Y-99300000D01*
X161550000Y-97300000D02*
X161550000Y-100800000D01*
X161550000Y-100800000D02*
X172450000Y-100800000D01*
X161890000Y-96390000D02*
X160640000Y-96390000D01*
X162400000Y-96490000D02*
X162400000Y-96690000D01*
X162700000Y-96490000D02*
X162400000Y-96490000D01*
X162700000Y-96590000D02*
X162400000Y-96590000D01*
X162700000Y-96690000D02*
X162700000Y-96490000D01*
X163500000Y-96690000D02*
X163500000Y-97300000D01*
X163500000Y-97300000D02*
X161550000Y-97300000D01*
X163900000Y-100300000D02*
X164100000Y-100300000D01*
X163900000Y-100800000D02*
X163900000Y-100300000D01*
X164000000Y-100800000D02*
X164000000Y-100300000D01*
X164100000Y-100300000D02*
X164100000Y-100800000D01*
X165900000Y-100300000D02*
X166100000Y-100300000D01*
X165900000Y-100800000D02*
X165900000Y-100300000D01*
X166000000Y-100800000D02*
X166000000Y-100300000D01*
X166100000Y-100300000D02*
X166100000Y-100800000D01*
X167900000Y-100300000D02*
X168100000Y-100300000D01*
X167900000Y-100800000D02*
X167900000Y-100300000D01*
X168000000Y-100800000D02*
X168000000Y-100300000D01*
X168100000Y-100300000D02*
X168100000Y-100800000D01*
X169900000Y-100300000D02*
X170100000Y-100300000D01*
X169900000Y-100800000D02*
X169900000Y-100300000D01*
X170000000Y-100800000D02*
X170000000Y-100300000D01*
X170100000Y-100300000D02*
X170100000Y-100800000D01*
X170500000Y-97300000D02*
X170500000Y-96690000D01*
X172450000Y-97300000D02*
X170500000Y-97300000D01*
X172450000Y-100800000D02*
X172450000Y-97300000D01*
X173060000Y-98000000D02*
X172450000Y-98000000D01*
X173060000Y-99300000D02*
X172450000Y-99300000D01*
X160940000Y-96690000D02*
X173060000Y-96690000D01*
X173060000Y-101410000D01*
X160940000Y-101410000D01*
X160940000Y-96690000D01*
%TO.C,Q1*%
X115990200Y-89234200D02*
X120610200Y-89234200D01*
X115990200Y-92494200D02*
X117370200Y-92494200D01*
X115990200Y-96194200D02*
X117370200Y-96194200D01*
X115990200Y-99454200D02*
X115990200Y-89234200D01*
X117370200Y-99454200D02*
X117370200Y-89234200D01*
X120610200Y-89234200D02*
X120610200Y-99454200D01*
X120610200Y-99454200D02*
X115990200Y-99454200D01*
%TO.C,C1*%
X129380000Y-59880000D02*
X129528000Y-59880000D01*
X129380000Y-63120000D02*
X129380000Y-59880000D01*
X129528000Y-63120000D02*
X129380000Y-63120000D01*
X131472000Y-59880000D02*
X131620000Y-59880000D01*
X131620000Y-59880000D02*
X131620000Y-63120000D01*
X131620000Y-63120000D02*
X131472000Y-63120000D01*
%TO.C,J4*%
X145640000Y-96390000D02*
X145640000Y-97640000D01*
X145940000Y-98000000D02*
X146550000Y-98000000D01*
X145940000Y-99300000D02*
X146550000Y-99300000D01*
X146550000Y-97300000D02*
X146550000Y-100800000D01*
X146550000Y-100800000D02*
X157450000Y-100800000D01*
X146890000Y-96390000D02*
X145640000Y-96390000D01*
X147400000Y-96490000D02*
X147400000Y-96690000D01*
X147700000Y-96490000D02*
X147400000Y-96490000D01*
X147700000Y-96590000D02*
X147400000Y-96590000D01*
X147700000Y-96690000D02*
X147700000Y-96490000D01*
X148500000Y-96690000D02*
X148500000Y-97300000D01*
X148500000Y-97300000D02*
X146550000Y-97300000D01*
X148900000Y-100300000D02*
X149100000Y-100300000D01*
X148900000Y-100800000D02*
X148900000Y-100300000D01*
X149000000Y-100800000D02*
X149000000Y-100300000D01*
X149100000Y-100300000D02*
X149100000Y-100800000D01*
X150900000Y-100300000D02*
X151100000Y-100300000D01*
X150900000Y-100800000D02*
X150900000Y-100300000D01*
X151000000Y-100800000D02*
X151000000Y-100300000D01*
X151100000Y-100300000D02*
X151100000Y-100800000D01*
X152900000Y-100300000D02*
X153100000Y-100300000D01*
X152900000Y-100800000D02*
X152900000Y-100300000D01*
X153000000Y-100800000D02*
X153000000Y-100300000D01*
X153100000Y-100300000D02*
X153100000Y-100800000D01*
X154900000Y-100300000D02*
X155100000Y-100300000D01*
X154900000Y-100800000D02*
X154900000Y-100300000D01*
X155000000Y-100800000D02*
X155000000Y-100300000D01*
X155100000Y-100300000D02*
X155100000Y-100800000D01*
X155500000Y-97300000D02*
X155500000Y-96690000D01*
X157450000Y-97300000D02*
X155500000Y-97300000D01*
X157450000Y-100800000D02*
X157450000Y-97300000D01*
X158060000Y-98000000D02*
X157450000Y-98000000D01*
X158060000Y-99300000D02*
X157450000Y-99300000D01*
X145940000Y-96690000D02*
X158060000Y-96690000D01*
X158060000Y-101410000D01*
X145940000Y-101410000D01*
X145940000Y-96690000D01*
%TO.C,R2*%
X130250200Y-88244200D02*
X130250200Y-88354200D01*
X130250200Y-100604200D02*
X130250200Y-100494200D01*
X127880200Y-88354200D02*
X132620200Y-88354200D01*
X132620200Y-100494200D01*
X127880200Y-100494200D01*
X127880200Y-88354200D01*
%TO.C,J5*%
X140120000Y-91230000D02*
X140120000Y-88580000D01*
X142880000Y-88580000D02*
X140120000Y-88580000D01*
X142880000Y-91230000D02*
X140120000Y-91230000D01*
X142880000Y-91230000D02*
X142880000Y-88580000D01*
X142880000Y-92500000D02*
X142880000Y-93880000D01*
X142880000Y-93880000D02*
X141500000Y-93880000D01*
%TD*%
M02*
