%TF.GenerationSoftware,KiCad,Pcbnew,10.0.0*%
%TF.CreationDate,2026-04-12T09:28:51+02:00*%
%TF.ProjectId,Electronic,456c6563-7472-46f6-9e69-632e6b696361,rev?*%
%TF.SameCoordinates,Original*%
%TF.FileFunction,Copper,L2,Bot*%
%TF.FilePolarity,Positive*%
%FSLAX46Y46*%
G04 Gerber Fmt 4.6, Leading zero omitted, Abs format (unit mm)*
G04 Created by KiCad (PCBNEW 10.0.0) date 2026-04-12 09:28:51*
%MOMM*%
%LPD*%
G01*
G04 APERTURE LIST*
G04 Aperture macros list*
%AMRoundRect*
0 Rectangle with rounded corners*
0 $1 Rounding radius*
0 $2 $3 $4 $5 $6 $7 $8 $9 X,Y pos of 4 corners*
0 Add a 4 corners polygon primitive as box body*
4,1,4,$2,$3,$4,$5,$6,$7,$8,$9,$2,$3,0*
0 Add four circle primitives for the rounded corners*
1,1,$1+$1,$2,$3*
1,1,$1+$1,$4,$5*
1,1,$1+$1,$6,$7*
1,1,$1+$1,$8,$9*
0 Add four rect primitives between the rounded corners*
20,1,$1+$1,$2,$3,$4,$5,0*
20,1,$1+$1,$4,$5,$6,$7,0*
20,1,$1+$1,$6,$7,$8,$9,0*
20,1,$1+$1,$8,$9,$2,$3,0*%
G04 Aperture macros list end*
%TA.AperFunction,ComponentPad*%
%ADD10C,2.400000*%
%TD*%
%TA.AperFunction,ComponentPad*%
%ADD11RoundRect,0.250000X-0.625000X0.350000X-0.625000X-0.350000X0.625000X-0.350000X0.625000X0.350000X0*%
%TD*%
%TA.AperFunction,ComponentPad*%
%ADD12O,1.750000X1.200000*%
%TD*%
%TA.AperFunction,ComponentPad*%
%ADD13RoundRect,0.250000X0.550000X-0.550000X0.550000X0.550000X-0.550000X0.550000X-0.550000X-0.550000X0*%
%TD*%
%TA.AperFunction,ComponentPad*%
%ADD14C,1.600000*%
%TD*%
%TA.AperFunction,ComponentPad*%
%ADD15R,2.000000X2.000000*%
%TD*%
%TA.AperFunction,ComponentPad*%
%ADD16RoundRect,0.250000X0.750000X-0.600000X0.750000X0.600000X-0.750000X0.600000X-0.750000X-0.600000X0*%
%TD*%
%TA.AperFunction,ComponentPad*%
%ADD17O,2.000000X1.700000*%
%TD*%
%TA.AperFunction,ComponentPad*%
%ADD18O,2.000000X1.600000*%
%TD*%
%TA.AperFunction,ComponentPad*%
%ADD19R,1.500000X1.050000*%
%TD*%
%TA.AperFunction,ComponentPad*%
%ADD20O,1.500000X1.050000*%
%TD*%
%TA.AperFunction,ComponentPad*%
%ADD21R,2.000000X1.905000*%
%TD*%
%TA.AperFunction,ComponentPad*%
%ADD22O,2.000000X1.905000*%
%TD*%
%TA.AperFunction,ComponentPad*%
%ADD23RoundRect,0.250000X-0.350000X-0.625000X0.350000X-0.625000X0.350000X0.625000X-0.350000X0.625000X0*%
%TD*%
%TA.AperFunction,ComponentPad*%
%ADD24O,1.200000X1.750000*%
%TD*%
%TA.AperFunction,ComponentPad*%
%ADD25R,1.700000X1.700000*%
%TD*%
%TA.AperFunction,ComponentPad*%
%ADD26C,1.700000*%
%TD*%
%TA.AperFunction,ViaPad*%
%ADD27C,0.600000*%
%TD*%
%TA.AperFunction,Conductor*%
%ADD28C,0.200000*%
%TD*%
%TA.AperFunction,Conductor*%
%ADD29C,0.300000*%
%TD*%
G04 APERTURE END LIST*
D10*
%TO.P,R3,2*%
%TO.N,GND*%
X124250200Y-86764200D03*
%TO.P,R3,1*%
%TO.N,Net-(Q1-G)*%
X124250200Y-102004200D03*
%TD*%
D11*
%TO.P,J2,1,Pin_1_1*%
%TO.N,/-SOL*%
X118612500Y-61018200D03*
D12*
%TO.P,J2,2,Pin_2_2*%
%TO.N,/+SOL*%
X118612500Y-63018200D03*
%TD*%
D13*
%TO.P,C2,1*%
%TO.N,/3.3V*%
X135990700Y-62738800D03*
D14*
%TO.P,C2,2*%
%TO.N,GND*%
X135990700Y-60238800D03*
%TD*%
D10*
%TO.P,R1,1*%
%TO.N,/+BAT*%
X136250200Y-86654200D03*
%TO.P,R1,2*%
%TO.N,Net-(U1-A0)*%
X136250200Y-101894200D03*
%TD*%
D15*
%TO.P,TP1,1,5V+_1*%
%TO.N,/+SOL*%
X117100000Y-69160000D03*
%TO.P,TP1,2,-_2*%
%TO.N,/-SOL*%
X117100000Y-83160000D03*
%TO.P,TP1,3,B+_3*%
%TO.N,/+BAT*%
X140100000Y-71700000D03*
%TO.P,TP1,4,B-_4*%
%TO.N,/-BAT*%
X140100000Y-80620000D03*
%TO.P,TP1,5,OUT+_5*%
%TO.N,/+VR*%
X140100000Y-69160000D03*
%TO.P,TP1,6,OUT-_6*%
%TO.N,GND*%
X140100000Y-83160000D03*
%TD*%
D16*
%TO.P,J1,1,Pin_1_1*%
%TO.N,/-BAT*%
X124500000Y-62500000D03*
D17*
%TO.P,J1,2,Pin_2_2*%
%TO.N,/+BAT*%
X124500000Y-60000000D03*
%TD*%
D15*
%TO.P,U1,1,Rst_1*%
%TO.N,Net-(U1-D0)*%
X170500000Y-84000000D03*
D18*
%TO.P,U1,2,A0_2*%
%TO.N,Net-(U1-A0)*%
X170500000Y-81460000D03*
%TO.P,U1,3,D0_3*%
%TO.N,Net-(U1-D0)*%
X170500000Y-78920000D03*
%TO.P,U1,4,D5_4*%
%TO.N,Net-(U1-D5)*%
X170500000Y-76380000D03*
%TO.P,U1,5,D6_5*%
%TO.N,/VIT*%
X170500000Y-73840000D03*
%TO.P,U1,6,D7_6*%
%TO.N,Net-(J3-Pin_4)*%
X170500000Y-71300000D03*
%TO.P,U1,7,D8_7*%
%TO.N,Net-(J3-Pin_5)*%
X170500000Y-68760000D03*
%TO.P,U1,8,3.3V_8*%
%TO.N,/3.3V*%
X170500000Y-66220000D03*
%TO.P,U1,9,5V_9*%
%TO.N,unconnected-(U1-5V-Pad9)*%
X147640000Y-66220000D03*
%TO.P,U1,10,GND_10*%
%TO.N,GND*%
X147640000Y-68760000D03*
%TO.P,U1,11,D4_11*%
%TO.N,unconnected-(U1-D4-Pad11)*%
X147640000Y-71300000D03*
%TO.P,U1,12,D3_12*%
%TO.N,Net-(J4-Pin_3)*%
X147640000Y-73840000D03*
%TO.P,U1,13,D2_13*%
%TO.N,Net-(J4-Pin_4)*%
X147640000Y-76380000D03*
%TO.P,U1,14,D1_14*%
%TO.N,Net-(J4-Pin_5)*%
X147640000Y-78920000D03*
%TO.P,U1,15,Rx_15*%
%TO.N,/RX*%
X147640000Y-81460000D03*
%TO.P,U1,16,Tx_16*%
%TO.N,/TX*%
X147640000Y-84000000D03*
%TD*%
D19*
%TO.P,U2,1,GND_1*%
%TO.N,GND*%
X142107800Y-60390300D03*
D20*
%TO.P,U2,2,VI_2*%
%TO.N,/+VR*%
X142107800Y-61660300D03*
%TO.P,U2,3,VO_3*%
%TO.N,/3.3V*%
X142107800Y-62930300D03*
%TD*%
D21*
%TO.P,Q1,1,G_1*%
%TO.N,Net-(Q1-G)*%
X119250200Y-96884200D03*
D22*
%TO.P,Q1,2,D_2*%
%TO.N,/-OUT*%
X119250200Y-94344200D03*
%TO.P,Q1,3,S_3*%
%TO.N,GND*%
X119250200Y-91804200D03*
%TD*%
D14*
%TO.P,C1,1*%
%TO.N,/3.3V*%
X130500000Y-62750000D03*
%TO.P,C1,2*%
%TO.N,GND*%
X130500000Y-60250000D03*
%TD*%
D23*
%TO.P,J4,1,Pin_1_1*%
%TO.N,/-OUT*%
X148000000Y-98000000D03*
D24*
%TO.P,J4,2,Pin_2_2*%
%TO.N,/3.3V*%
X150000000Y-98000000D03*
%TO.P,J4,3,Pin_3_3*%
%TO.N,Net-(J4-Pin_3)*%
X152000000Y-98000000D03*
%TO.P,J4,4,Pin_4_4*%
%TO.N,Net-(J4-Pin_4)*%
X154000000Y-98000000D03*
%TO.P,J4,5,Pin_5_5*%
%TO.N,Net-(J4-Pin_5)*%
X156000000Y-98000000D03*
%TD*%
D10*
%TO.P,R2,1*%
%TO.N,Net-(U1-D5)*%
X130250200Y-86804200D03*
%TO.P,R2,2*%
%TO.N,Net-(Q1-G)*%
X130250200Y-102044200D03*
%TD*%
D25*
%TO.P,J5,1,Pin_1_1*%
%TO.N,/TX*%
X141500000Y-92500000D03*
D26*
%TO.P,J5,2,Pin_2_2*%
%TO.N,/RX*%
X141500000Y-89960000D03*
%TD*%
D23*
%TO.P,J3,1,Pin_1_1*%
%TO.N,/-OUT*%
X163000000Y-98000000D03*
D24*
%TO.P,J3,2,Pin_2_2*%
%TO.N,/3.3V*%
X165000000Y-98000000D03*
%TO.P,J3,3,Pin_3_3*%
%TO.N,/VIT*%
X167000000Y-98000000D03*
%TO.P,J3,4,Pin_4_4*%
%TO.N,Net-(J3-Pin_4)*%
X169000000Y-98000000D03*
%TO.P,J3,5,Pin_5_5*%
%TO.N,Net-(J3-Pin_5)*%
X171000000Y-98000000D03*
%TD*%
D27*
%TO.N,Net-(U1-A0)*%
X138334600Y-88913800D03*
%TD*%
%TO.N,/3.3V*%
D28*
X144000000Y-92500000D02*
X147825000Y-96325000D01*
X148325000Y-96325000D02*
X150000000Y-98000000D01*
X147825000Y-96325000D02*
X148325000Y-96325000D01*
%TO.N,Net-(J4-Pin_3)*%
X147640000Y-73840000D02*
X145048300Y-76431700D01*
X145048300Y-76431700D02*
X145048300Y-92629800D01*
X147918500Y-95500000D02*
X149500000Y-95500000D01*
X149500000Y-95500000D02*
X152000000Y-98000000D01*
X145048300Y-92629800D02*
X147918500Y-95500000D01*
%TO.N,Net-(J4-Pin_4)*%
X147640000Y-76380000D02*
X145484800Y-78535200D01*
X145484800Y-78535200D02*
X145484800Y-92440300D01*
X145484800Y-92440300D02*
X147891300Y-94846800D01*
X147891300Y-94846800D02*
X150846800Y-94846800D01*
X150846800Y-94846800D02*
X154000000Y-98000000D01*
%TO.N,Net-(J4-Pin_5)*%
X147640000Y-78920000D02*
X145913400Y-80646600D01*
X145913400Y-80646600D02*
X145913400Y-92298700D01*
X145913400Y-92298700D02*
X147614700Y-94000000D01*
X152000000Y-94000000D02*
X156000000Y-98000000D01*
X147614700Y-94000000D02*
X152000000Y-94000000D01*
%TO.N,/VIT*%
X167000000Y-98000000D02*
X172299300Y-92700700D01*
X172299300Y-92700700D02*
X172299300Y-75639300D01*
%TO.N,Net-(J3-Pin_4)*%
X172707300Y-73507300D02*
X172707300Y-94292700D01*
X172707300Y-94292700D02*
X169000000Y-98000000D01*
%TO.N,Net-(J3-Pin_5)*%
X170500000Y-68760000D02*
X173159200Y-71419200D01*
X173159200Y-71419200D02*
X173159200Y-95840800D01*
X173159200Y-95840800D02*
X171000000Y-98000000D01*
%TO.N,/3.3V*%
X144000000Y-65649200D02*
X144000000Y-92500000D01*
X142107800Y-62930300D02*
X142107800Y-63757000D01*
X142107800Y-63757000D02*
X144000000Y-65649200D01*
%TO.N,/+BAT*%
D29*
X136250200Y-76921500D02*
X136250200Y-86654200D01*
X140100000Y-71700000D02*
X140100000Y-73071700D01*
X140100000Y-73071700D02*
X136250200Y-76921500D01*
%TO.N,Net-(U1-A0)*%
D28*
X138334600Y-88913800D02*
X136250200Y-90998200D01*
X136250200Y-90998200D02*
X136250200Y-101894200D01*
%TO.N,/+VR*%
D29*
X142107800Y-61660300D02*
X140986100Y-61660300D01*
X140100000Y-69160000D02*
X140100000Y-62546400D01*
X140100000Y-62546400D02*
X140986100Y-61660300D01*
%TO.N,Net-(U1-D0)*%
D28*
X171849800Y-82650200D02*
X170500000Y-84000000D01*
X170500000Y-78920000D02*
X171849800Y-80269800D01*
X171849800Y-80269800D02*
X171849800Y-82650200D01*
%TO.N,/VIT*%
X172299300Y-75639300D02*
X170500000Y-73840000D01*
%TO.N,Net-(J3-Pin_4)*%
X172707300Y-73507300D02*
X170500000Y-71300000D01*
%TD*%
%TA.AperFunction,Conductor*%
%TO.N,GND*%
G36*
X172145564Y-56005023D02*
G01*
X172157988Y-56008671D01*
X172216766Y-56046445D01*
X172245791Y-56110001D01*
X172237950Y-56174281D01*
X172234464Y-56182870D01*
X172219883Y-56209125D01*
X172216659Y-56213561D01*
X172216655Y-56213567D01*
X172109434Y-56423998D01*
X172072939Y-56536317D01*
X172036446Y-56648631D01*
X172036445Y-56648634D01*
X172036445Y-56648636D01*
X171999500Y-56881896D01*
X171999500Y-57118102D01*
X172011070Y-57191150D01*
X172036446Y-57351368D01*
X172109433Y-57575996D01*
X172216657Y-57786433D01*
X172355483Y-57977510D01*
X172522490Y-58144517D01*
X172713567Y-58283343D01*
X172755094Y-58304502D01*
X172924003Y-58390566D01*
X172924876Y-58391011D01*
X172928630Y-58392070D01*
X172976335Y-58407569D01*
X173044410Y-58429688D01*
X173044411Y-58429689D01*
X173044412Y-58429689D01*
X173148631Y-58463553D01*
X173381903Y-58500500D01*
X173381908Y-58500500D01*
X173618096Y-58500500D01*
X173618097Y-58500500D01*
X173851368Y-58463553D01*
X174075992Y-58390568D01*
X174286433Y-58283343D01*
X174288682Y-58281708D01*
X174319906Y-58265231D01*
X174332106Y-58260877D01*
X174401861Y-58256891D01*
X174462698Y-58291251D01*
X174494133Y-58347852D01*
X174496362Y-58356850D01*
X174500000Y-58386666D01*
X174500000Y-101610628D01*
X174494975Y-101645569D01*
X174491326Y-101657994D01*
X174453549Y-101716770D01*
X174389992Y-101745792D01*
X174325720Y-101737951D01*
X174317133Y-101734466D01*
X174290876Y-101719884D01*
X174286436Y-101716658D01*
X174076000Y-101609434D01*
X174022108Y-101591923D01*
X173851368Y-101536446D01*
X173851362Y-101536445D01*
X173618102Y-101499500D01*
X173618097Y-101499500D01*
X173618092Y-101499500D01*
X173381908Y-101499500D01*
X173381903Y-101499500D01*
X173381898Y-101499500D01*
X173148636Y-101536445D01*
X173148634Y-101536445D01*
X173148631Y-101536446D01*
X172924003Y-101609433D01*
X172886665Y-101628458D01*
X172713566Y-101716656D01*
X172666028Y-101751196D01*
X172534361Y-101846858D01*
X172526980Y-101850991D01*
X172350991Y-102026980D01*
X172346858Y-102034361D01*
X172295862Y-102104550D01*
X172295861Y-102104549D01*
X172216659Y-102213562D01*
X172216657Y-102213566D01*
X172109433Y-102424003D01*
X172036677Y-102647922D01*
X172036446Y-102648632D01*
X171999500Y-102881896D01*
X171999500Y-103118102D01*
X172032341Y-103325448D01*
X172036446Y-103351368D01*
X172059593Y-103422605D01*
X172109434Y-103576000D01*
X172164564Y-103684197D01*
X172216657Y-103786434D01*
X172216660Y-103786438D01*
X172216661Y-103786440D01*
X172218293Y-103788686D01*
X172234767Y-103819903D01*
X172239118Y-103832096D01*
X172243110Y-103901852D01*
X172208755Y-103962692D01*
X172152147Y-103994133D01*
X172143149Y-103996362D01*
X172113333Y-104000000D01*
X116389371Y-104000000D01*
X116354430Y-103994975D01*
X116342005Y-103991326D01*
X116283229Y-103953549D01*
X116254207Y-103889992D01*
X116262050Y-103825716D01*
X116265537Y-103817125D01*
X116280117Y-103790871D01*
X116283342Y-103786434D01*
X116319432Y-103715605D01*
X116390568Y-103575992D01*
X116463553Y-103351368D01*
X116467658Y-103325448D01*
X116500500Y-103118097D01*
X116500500Y-102881902D01*
X116463553Y-102648631D01*
X116416810Y-102504773D01*
X116390568Y-102424008D01*
X116390566Y-102424005D01*
X116390566Y-102424003D01*
X116388329Y-102419613D01*
X116388019Y-102418818D01*
X116387283Y-102417560D01*
X116334002Y-102312991D01*
X116283343Y-102213567D01*
X116144517Y-102022490D01*
X116014768Y-101892741D01*
X122549700Y-101892741D01*
X122549700Y-102115657D01*
X122549703Y-102115682D01*
X122578793Y-102336647D01*
X122578797Y-102336667D01*
X122623841Y-102504773D01*
X122636489Y-102551979D01*
X122636496Y-102551999D01*
X122676524Y-102648632D01*
X122676524Y-102648633D01*
X122721790Y-102757917D01*
X122721798Y-102757933D01*
X122831406Y-102947779D01*
X122833248Y-102950969D01*
X122834769Y-102952951D01*
X122834771Y-102952954D01*
X122961492Y-103118102D01*
X122968951Y-103127822D01*
X122968957Y-103127829D01*
X123126570Y-103285442D01*
X123126577Y-103285448D01*
X123126580Y-103285450D01*
X123126584Y-103285454D01*
X123178698Y-103325442D01*
X123212486Y-103351368D01*
X123303426Y-103421148D01*
X123496474Y-103532605D01*
X123702419Y-103617910D01*
X123917737Y-103675604D01*
X124138743Y-103704700D01*
X124138750Y-103704700D01*
X124361650Y-103704700D01*
X124361657Y-103704700D01*
X124582663Y-103675604D01*
X124797981Y-103617910D01*
X125003926Y-103532605D01*
X125196974Y-103421148D01*
X125373824Y-103285447D01*
X125531447Y-103127824D01*
X125667148Y-102950974D01*
X125778605Y-102757926D01*
X125863910Y-102551981D01*
X125921604Y-102336663D01*
X125950700Y-102115657D01*
X125950700Y-101932741D01*
X128549700Y-101932741D01*
X128549700Y-102155657D01*
X128549703Y-102155682D01*
X128573529Y-102336665D01*
X128578794Y-102376652D01*
X128578795Y-102376657D01*
X128578796Y-102376663D01*
X128591481Y-102424003D01*
X128636488Y-102591976D01*
X128636490Y-102591980D01*
X128636493Y-102591990D01*
X128659955Y-102648632D01*
X128705226Y-102757926D01*
X128705225Y-102757926D01*
X128721791Y-102797917D01*
X128721800Y-102797936D01*
X128831406Y-102987779D01*
X128833248Y-102990969D01*
X128834769Y-102992951D01*
X128834771Y-102992954D01*
X128938269Y-103127837D01*
X128968951Y-103167822D01*
X128968957Y-103167829D01*
X129073195Y-103272067D01*
X129126567Y-103325439D01*
X129126572Y-103325444D01*
X129126576Y-103325447D01*
X129303426Y-103461148D01*
X129496474Y-103572605D01*
X129702419Y-103657910D01*
X129917737Y-103715604D01*
X130138743Y-103744700D01*
X130138750Y-103744700D01*
X130361650Y-103744700D01*
X130361657Y-103744700D01*
X130582663Y-103715604D01*
X130797981Y-103657910D01*
X131003926Y-103572605D01*
X131196974Y-103461148D01*
X131373824Y-103325447D01*
X131373827Y-103325445D01*
X131373829Y-103325442D01*
X131531442Y-103167829D01*
X131531445Y-103167826D01*
X131531447Y-103167824D01*
X131667148Y-102990974D01*
X131778605Y-102797926D01*
X131863910Y-102591981D01*
X131921604Y-102376663D01*
X131950700Y-102155657D01*
X131950700Y-101932743D01*
X131930952Y-101782741D01*
X134549700Y-101782741D01*
X134549700Y-102005657D01*
X134549703Y-102005682D01*
X134578793Y-102226647D01*
X134578797Y-102226667D01*
X134618989Y-102376665D01*
X134636489Y-102441979D01*
X134636490Y-102441981D01*
X134636493Y-102441990D01*
X134703484Y-102603720D01*
X134721795Y-102647926D01*
X134721797Y-102647930D01*
X134721800Y-102647936D01*
X134831406Y-102837779D01*
X134833248Y-102840969D01*
X134834769Y-102842951D01*
X134834771Y-102842954D01*
X134948354Y-102990980D01*
X134968951Y-103017822D01*
X134968957Y-103017829D01*
X135126570Y-103175442D01*
X135126577Y-103175448D01*
X135126580Y-103175450D01*
X135126584Y-103175454D01*
X135252494Y-103272067D01*
X135303426Y-103311148D01*
X135496474Y-103422605D01*
X135702419Y-103507910D01*
X135917737Y-103565604D01*
X136138743Y-103594700D01*
X136138750Y-103594700D01*
X136361650Y-103594700D01*
X136361657Y-103594700D01*
X136582663Y-103565604D01*
X136797981Y-103507910D01*
X137003926Y-103422605D01*
X137196974Y-103311148D01*
X137373824Y-103175447D01*
X137531447Y-103017824D01*
X137667148Y-102840974D01*
X137778605Y-102647926D01*
X137863910Y-102441981D01*
X137921604Y-102226663D01*
X137950700Y-102005657D01*
X137950700Y-101782743D01*
X137921604Y-101561737D01*
X137863910Y-101346419D01*
X137840736Y-101290473D01*
X137780283Y-101144526D01*
X137779582Y-101142646D01*
X137778614Y-101140497D01*
X137778606Y-101140477D01*
X137778605Y-101140474D01*
X137667148Y-100947426D01*
X137615853Y-100880577D01*
X137531448Y-100770577D01*
X137531442Y-100770570D01*
X137373829Y-100612957D01*
X137373822Y-100612951D01*
X137373812Y-100612943D01*
X137373803Y-100612936D01*
X137198954Y-100478771D01*
X137198951Y-100478769D01*
X137196705Y-100477045D01*
X137195686Y-100476433D01*
X137193789Y-100475412D01*
X137050638Y-100392764D01*
X137050635Y-100392762D01*
X137046699Y-100390490D01*
X137003927Y-100365795D01*
X137003925Y-100365794D01*
X136940419Y-100339488D01*
X136937205Y-100337935D01*
X136934183Y-100335198D01*
X136913365Y-100322846D01*
X136901190Y-100313035D01*
X136886772Y-100292267D01*
X136885413Y-100291037D01*
X136885091Y-100289847D01*
X136861345Y-100255644D01*
X136857043Y-100242719D01*
X136850700Y-100203566D01*
X136850700Y-91316126D01*
X136855722Y-91281193D01*
X136863134Y-91255948D01*
X136894428Y-91203206D01*
X137579957Y-90517678D01*
X138243921Y-89853713D01*
X140149500Y-89853713D01*
X140149500Y-90066287D01*
X140149947Y-90069108D01*
X140182754Y-90276244D01*
X140218891Y-90387464D01*
X140248443Y-90478414D01*
X140316267Y-90611524D01*
X140344951Y-90667820D01*
X140469890Y-90839786D01*
X140469892Y-90839788D01*
X140570822Y-90940718D01*
X140591973Y-90968971D01*
X140598625Y-90981153D01*
X140613477Y-91049426D01*
X140589061Y-91114891D01*
X140589055Y-91114899D01*
X140586305Y-91118572D01*
X140530376Y-91160436D01*
X140407673Y-91206201D01*
X140407670Y-91206202D01*
X140407669Y-91206203D01*
X140407666Y-91206205D01*
X140407664Y-91206206D01*
X140407661Y-91206208D01*
X140292456Y-91292450D01*
X140292450Y-91292456D01*
X140206205Y-91407665D01*
X140206203Y-91407668D01*
X140155908Y-91542516D01*
X140149500Y-91602125D01*
X140149500Y-93397876D01*
X140149659Y-93399806D01*
X140149885Y-93401454D01*
X140155907Y-93457482D01*
X140179031Y-93519480D01*
X140206202Y-93592328D01*
X140206203Y-93592330D01*
X140206204Y-93592332D01*
X140206205Y-93592333D01*
X140292450Y-93707542D01*
X140292452Y-93707544D01*
X140292455Y-93707547D01*
X140407664Y-93793793D01*
X140407671Y-93793797D01*
X140542517Y-93844091D01*
X140542516Y-93844091D01*
X140549444Y-93844835D01*
X140602127Y-93850500D01*
X142397872Y-93850499D01*
X142457483Y-93844091D01*
X142592331Y-93793796D01*
X142707546Y-93707546D01*
X142793796Y-93592331D01*
X142844091Y-93457483D01*
X142850500Y-93397873D01*
X142850499Y-91602128D01*
X142844091Y-91542517D01*
X142793796Y-91407669D01*
X142793795Y-91407668D01*
X142793793Y-91407664D01*
X142793782Y-91407649D01*
X142791392Y-91403929D01*
X142791391Y-91403928D01*
X142788489Y-91400579D01*
X142707547Y-91292455D01*
X142707544Y-91292452D01*
X142707542Y-91292450D01*
X142625800Y-91231258D01*
X142592335Y-91206206D01*
X142592332Y-91206204D01*
X142592330Y-91206203D01*
X142592328Y-91206202D01*
X142477621Y-91163419D01*
X142446642Y-91146502D01*
X142435531Y-91138184D01*
X142393661Y-91082250D01*
X142388678Y-91012561D01*
X142389655Y-91008068D01*
X142423138Y-90946757D01*
X142450752Y-90919143D01*
X142530104Y-90839792D01*
X142583420Y-90766409D01*
X142655048Y-90667820D01*
X142655047Y-90667820D01*
X142655051Y-90667816D01*
X142655053Y-90667810D01*
X142660784Y-90659923D01*
X142660786Y-90659920D01*
X142660787Y-90659920D01*
X142675446Y-90639743D01*
X142683730Y-90611529D01*
X142751557Y-90478412D01*
X142817246Y-90276243D01*
X142850500Y-90066287D01*
X142850500Y-89853713D01*
X142817246Y-89643757D01*
X142751557Y-89441588D01*
X142655051Y-89252184D01*
X142655049Y-89252181D01*
X142655048Y-89252179D01*
X142654702Y-89251703D01*
X142654700Y-89251699D01*
X142530112Y-89080216D01*
X142379788Y-88929892D01*
X142379786Y-88929890D01*
X142207820Y-88804951D01*
X142194167Y-88797994D01*
X142040245Y-88719567D01*
X142040240Y-88719565D01*
X142018414Y-88708444D01*
X142018413Y-88708443D01*
X142018412Y-88708443D01*
X141921550Y-88676970D01*
X141825074Y-88645623D01*
X141820552Y-88643770D01*
X141811362Y-88641600D01*
X141806599Y-88641226D01*
X141654957Y-88617208D01*
X141635489Y-88614124D01*
X141606290Y-88609500D01*
X141606287Y-88609500D01*
X141393713Y-88609500D01*
X141393709Y-88609500D01*
X141354776Y-88615666D01*
X141345042Y-88617208D01*
X141307654Y-88623129D01*
X141183763Y-88642752D01*
X140981582Y-88708445D01*
X140792182Y-88804949D01*
X140792179Y-88804950D01*
X140792179Y-88804951D01*
X140749928Y-88835648D01*
X140620210Y-88929892D01*
X140469892Y-89080210D01*
X140344949Y-89252182D01*
X140248445Y-89441580D01*
X140182752Y-89643759D01*
X140182752Y-89643760D01*
X140177301Y-89678181D01*
X140176453Y-89683537D01*
X140149500Y-89853713D01*
X138243921Y-89853713D01*
X138336658Y-89760976D01*
X138364907Y-89739829D01*
X138394004Y-89723941D01*
X138429233Y-89711158D01*
X138568097Y-89683537D01*
X138713779Y-89623194D01*
X138844889Y-89535589D01*
X138956389Y-89424089D01*
X139043994Y-89292979D01*
X139104337Y-89147297D01*
X139135100Y-88992642D01*
X139135100Y-88834958D01*
X139135100Y-88834955D01*
X139135100Y-88834770D01*
X139134670Y-88832795D01*
X139133382Y-88826324D01*
X139129131Y-88804949D01*
X139104337Y-88680303D01*
X139088784Y-88642754D01*
X139043997Y-88534627D01*
X139043990Y-88534614D01*
X138956389Y-88403511D01*
X138956386Y-88403507D01*
X138956381Y-88403501D01*
X138844897Y-88292017D01*
X138844891Y-88292012D01*
X138844890Y-88292011D01*
X138713791Y-88204413D01*
X138713790Y-88204412D01*
X138713785Y-88204409D01*
X138713772Y-88204402D01*
X138713765Y-88204398D01*
X138568102Y-88144064D01*
X138568071Y-88144057D01*
X138413447Y-88113300D01*
X138413445Y-88113300D01*
X138413442Y-88113300D01*
X138255758Y-88113300D01*
X138255755Y-88113300D01*
X138255753Y-88113300D01*
X138101127Y-88144057D01*
X138101096Y-88144064D01*
X137955433Y-88204398D01*
X137955424Y-88204403D01*
X137955407Y-88204413D01*
X137824308Y-88292011D01*
X137824307Y-88292012D01*
X137824301Y-88292017D01*
X137712817Y-88403501D01*
X137712812Y-88403507D01*
X137712811Y-88403508D01*
X137625213Y-88534607D01*
X137625203Y-88534624D01*
X137625198Y-88534633D01*
X137564872Y-88680275D01*
X137564864Y-88680299D01*
X137564859Y-88680312D01*
X137537440Y-88818160D01*
X137525699Y-88851442D01*
X137510334Y-88880816D01*
X137488139Y-88911023D01*
X135881486Y-90517677D01*
X135769681Y-90629481D01*
X135769679Y-90629483D01*
X135723624Y-90709256D01*
X135723622Y-90709260D01*
X135698785Y-90752275D01*
X135696814Y-90754844D01*
X135690387Y-90766852D01*
X135689590Y-90770266D01*
X135649699Y-90919143D01*
X135649699Y-91089600D01*
X135649700Y-91089651D01*
X135649700Y-100201642D01*
X135644675Y-100236586D01*
X135640270Y-100251584D01*
X135602502Y-100310349D01*
X135592211Y-100319267D01*
X135558458Y-100340118D01*
X135496482Y-100365790D01*
X135496476Y-100365792D01*
X135303419Y-100477256D01*
X135303412Y-100477261D01*
X135303410Y-100477262D01*
X135126595Y-100612936D01*
X135126579Y-100612949D01*
X135126569Y-100612958D01*
X135126561Y-100612965D01*
X134968965Y-100770561D01*
X134968958Y-100770569D01*
X134968949Y-100770579D01*
X134968936Y-100770595D01*
X134833262Y-100947410D01*
X134833261Y-100947412D01*
X134833244Y-100947437D01*
X134721795Y-101140472D01*
X134636497Y-101346399D01*
X134636488Y-101346422D01*
X134599806Y-101483326D01*
X134585573Y-101536447D01*
X134585573Y-101536448D01*
X134578799Y-101561724D01*
X134578793Y-101561750D01*
X134578792Y-101561756D01*
X134549703Y-101782716D01*
X134549700Y-101782741D01*
X131930952Y-101782741D01*
X131921604Y-101711737D01*
X131863910Y-101496419D01*
X131863902Y-101496399D01*
X131847369Y-101456484D01*
X131847342Y-101456422D01*
X131847341Y-101456419D01*
X131780283Y-101294526D01*
X131779582Y-101292646D01*
X131778614Y-101290497D01*
X131778606Y-101290477D01*
X131778605Y-101290474D01*
X131667148Y-101097426D01*
X131531447Y-100920576D01*
X131531442Y-100920570D01*
X131373829Y-100762957D01*
X131373822Y-100762951D01*
X131373812Y-100762943D01*
X131373803Y-100762936D01*
X131198954Y-100628771D01*
X131198951Y-100628769D01*
X131196705Y-100627045D01*
X131195686Y-100626433D01*
X131193789Y-100625412D01*
X131003926Y-100515795D01*
X131003922Y-100515793D01*
X130802029Y-100432166D01*
X130797987Y-100430491D01*
X130583676Y-100373067D01*
X130583672Y-100373066D01*
X130582663Y-100372796D01*
X130582657Y-100372795D01*
X130582652Y-100372794D01*
X130363459Y-100343937D01*
X130363455Y-100343935D01*
X130361854Y-100343700D01*
X130361663Y-100343700D01*
X130361657Y-100343700D01*
X130138743Y-100343700D01*
X130138737Y-100343700D01*
X130138735Y-100343700D01*
X130133236Y-100344376D01*
X130132515Y-100344516D01*
X130131974Y-100344590D01*
X129917747Y-100372794D01*
X129917740Y-100372795D01*
X129917737Y-100372796D01*
X129906709Y-100375750D01*
X129906694Y-100375753D01*
X129851703Y-100390489D01*
X129851701Y-100390490D01*
X129702422Y-100430488D01*
X129702399Y-100430497D01*
X129496472Y-100515795D01*
X129303437Y-100627244D01*
X129303412Y-100627261D01*
X129303410Y-100627262D01*
X129126595Y-100762936D01*
X129126579Y-100762949D01*
X129126569Y-100762958D01*
X129126561Y-100762965D01*
X128968965Y-100920561D01*
X128968958Y-100920569D01*
X128968949Y-100920579D01*
X128968936Y-100920595D01*
X128833262Y-101097410D01*
X128833261Y-101097412D01*
X128833244Y-101097437D01*
X128721795Y-101290472D01*
X128636497Y-101496399D01*
X128636488Y-101496422D01*
X128606208Y-101609433D01*
X128583148Y-101695497D01*
X128578797Y-101711734D01*
X128578794Y-101711745D01*
X128578793Y-101711750D01*
X128578792Y-101711756D01*
X128549703Y-101932716D01*
X128549700Y-101932741D01*
X125950700Y-101932741D01*
X125950700Y-101892743D01*
X125921604Y-101671737D01*
X125863910Y-101456419D01*
X125778605Y-101250474D01*
X125667148Y-101057426D01*
X125582730Y-100947410D01*
X125531448Y-100880577D01*
X125531444Y-100880572D01*
X125531439Y-100880567D01*
X125531433Y-100880561D01*
X125373829Y-100722957D01*
X125373822Y-100722951D01*
X125373812Y-100722943D01*
X125373803Y-100722936D01*
X125198954Y-100588771D01*
X125198951Y-100588769D01*
X125196705Y-100587045D01*
X125195686Y-100586433D01*
X125193789Y-100585412D01*
X125003926Y-100475795D01*
X125003922Y-100475793D01*
X124802029Y-100392166D01*
X124797987Y-100390491D01*
X124583676Y-100333067D01*
X124583672Y-100333066D01*
X124582663Y-100332796D01*
X124582657Y-100332795D01*
X124582652Y-100332794D01*
X124363459Y-100303937D01*
X124363455Y-100303935D01*
X124361854Y-100303700D01*
X124361663Y-100303700D01*
X124361657Y-100303700D01*
X124138743Y-100303700D01*
X124138737Y-100303700D01*
X124138735Y-100303700D01*
X124133239Y-100304376D01*
X124132516Y-100304516D01*
X124131996Y-100304587D01*
X123917747Y-100332794D01*
X123917740Y-100332795D01*
X123917737Y-100332796D01*
X123906700Y-100335753D01*
X123906695Y-100335754D01*
X123807272Y-100362394D01*
X123768462Y-100372794D01*
X123702422Y-100390488D01*
X123702399Y-100390497D01*
X123496472Y-100475795D01*
X123303437Y-100587244D01*
X123303412Y-100587261D01*
X123303410Y-100587262D01*
X123126595Y-100722936D01*
X123126579Y-100722949D01*
X123126569Y-100722958D01*
X123126561Y-100722965D01*
X122968965Y-100880561D01*
X122968960Y-100880567D01*
X122968957Y-100880570D01*
X122968951Y-100880577D01*
X122968944Y-100880585D01*
X122968936Y-100880595D01*
X122833262Y-101057410D01*
X122833261Y-101057412D01*
X122833244Y-101057437D01*
X122721795Y-101250472D01*
X122636497Y-101456399D01*
X122636488Y-101456422D01*
X122595491Y-101609431D01*
X122578795Y-101671741D01*
X122578792Y-101671756D01*
X122549703Y-101892716D01*
X122549700Y-101892741D01*
X116014768Y-101892741D01*
X115977510Y-101855483D01*
X115826534Y-101745792D01*
X115786431Y-101716655D01*
X115776771Y-101711733D01*
X115776771Y-101711734D01*
X115575996Y-101609433D01*
X115351368Y-101536446D01*
X115351362Y-101536445D01*
X115118102Y-101499500D01*
X115118097Y-101499500D01*
X115118092Y-101499500D01*
X114881908Y-101499500D01*
X114881903Y-101499500D01*
X114881898Y-101499500D01*
X114648636Y-101536445D01*
X114648634Y-101536445D01*
X114648631Y-101536446D01*
X114570736Y-101561756D01*
X114423998Y-101609434D01*
X114262693Y-101691624D01*
X114213563Y-101716658D01*
X114213560Y-101716659D01*
X114213560Y-101716660D01*
X114213553Y-101716664D01*
X114211309Y-101718295D01*
X114180089Y-101734769D01*
X114167897Y-101739119D01*
X114098142Y-101743107D01*
X114037303Y-101708750D01*
X114005862Y-101652131D01*
X114003634Y-101643132D01*
X114000000Y-101613331D01*
X114000000Y-94229846D01*
X117749700Y-94229846D01*
X117749700Y-94458553D01*
X117750193Y-94461666D01*
X117750193Y-94461669D01*
X117783951Y-94674804D01*
X117783952Y-94674812D01*
X117785478Y-94684452D01*
X117856150Y-94901956D01*
X117858496Y-94906800D01*
X117859441Y-94908414D01*
X117959985Y-95105741D01*
X118082245Y-95274018D01*
X118098714Y-95305228D01*
X118103378Y-95318298D01*
X118107370Y-95388053D01*
X118073016Y-95448893D01*
X118067136Y-95454608D01*
X118024044Y-95481870D01*
X118007878Y-95487899D01*
X118007868Y-95487903D01*
X118007867Y-95487904D01*
X117892656Y-95574151D01*
X117892653Y-95574153D01*
X117892650Y-95574156D01*
X117806405Y-95689365D01*
X117806403Y-95689368D01*
X117756108Y-95824216D01*
X117749700Y-95883825D01*
X117749700Y-97884576D01*
X117749859Y-97886506D01*
X117750085Y-97888154D01*
X117756107Y-97944182D01*
X117783890Y-98018671D01*
X117806402Y-98079028D01*
X117806403Y-98079030D01*
X117806404Y-98079032D01*
X117806405Y-98079033D01*
X117892650Y-98194242D01*
X117892652Y-98194244D01*
X117892655Y-98194247D01*
X118007864Y-98280493D01*
X118007871Y-98280497D01*
X118142717Y-98330791D01*
X118142716Y-98330791D01*
X118149644Y-98331535D01*
X118202327Y-98337200D01*
X120298072Y-98337199D01*
X120357683Y-98330791D01*
X120492531Y-98280496D01*
X120607746Y-98194246D01*
X120693996Y-98079031D01*
X120744291Y-97944183D01*
X120750700Y-97884573D01*
X120750699Y-95883828D01*
X120744291Y-95824217D01*
X120720988Y-95761739D01*
X120693997Y-95689371D01*
X120693993Y-95689364D01*
X120607747Y-95574155D01*
X120607744Y-95574152D01*
X120607743Y-95574151D01*
X120607742Y-95574150D01*
X120549816Y-95530786D01*
X120492535Y-95487906D01*
X120492530Y-95487903D01*
X120492529Y-95487902D01*
X120486718Y-95485735D01*
X120481363Y-95483737D01*
X120450385Y-95466822D01*
X120439275Y-95458505D01*
X120397404Y-95402571D01*
X120392420Y-95332882D01*
X120394164Y-95324864D01*
X120415011Y-95278342D01*
X120418153Y-95274018D01*
X120540417Y-95105738D01*
X120644248Y-94901958D01*
X120714922Y-94684445D01*
X120750700Y-94458554D01*
X120750700Y-94229846D01*
X120714922Y-94003955D01*
X120714921Y-94003951D01*
X120714921Y-94003950D01*
X120644249Y-93786444D01*
X120604049Y-93707547D01*
X120540417Y-93582662D01*
X120405986Y-93397634D01*
X120244266Y-93235914D01*
X120173756Y-93184685D01*
X120148448Y-93160090D01*
X120139973Y-93149098D01*
X120114624Y-93083992D01*
X120128499Y-93015514D01*
X120128498Y-93015514D01*
X120131763Y-93009326D01*
X120168545Y-92966881D01*
X120243939Y-92912105D01*
X120405602Y-92750442D01*
X120539988Y-92565476D01*
X120643782Y-92361770D01*
X120714434Y-92144328D01*
X120728709Y-92054200D01*
X119914214Y-92054200D01*
X119847175Y-92034515D01*
X119801420Y-91981711D01*
X119791476Y-91912553D01*
X119794436Y-91898119D01*
X119800200Y-91876609D01*
X119800200Y-91731791D01*
X119794439Y-91710291D01*
X119796102Y-91640445D01*
X119835264Y-91582582D01*
X119899492Y-91555077D01*
X119914214Y-91554200D01*
X120728709Y-91554200D01*
X120714434Y-91464074D01*
X120714434Y-91464071D01*
X120643782Y-91246629D01*
X120539988Y-91042923D01*
X120405602Y-90857957D01*
X120243942Y-90696297D01*
X120058976Y-90561911D01*
X119972162Y-90517677D01*
X119855272Y-90458118D01*
X119796287Y-90438952D01*
X119730793Y-90417672D01*
X119701324Y-90397521D01*
X119500200Y-90365666D01*
X119500200Y-91140185D01*
X119480515Y-91207224D01*
X119427711Y-91252979D01*
X119358553Y-91262923D01*
X119344109Y-91259961D01*
X119337895Y-91258296D01*
X119322609Y-91254200D01*
X119322607Y-91254200D01*
X119177793Y-91254200D01*
X119177791Y-91254200D01*
X119156291Y-91259961D01*
X119086441Y-91258296D01*
X119028579Y-91219132D01*
X119001077Y-91154903D01*
X119000200Y-91140185D01*
X119000200Y-90365666D01*
X118862577Y-90387464D01*
X118645128Y-90458118D01*
X118441422Y-90561911D01*
X118335892Y-90638583D01*
X118256457Y-90696297D01*
X118256455Y-90696299D01*
X118256454Y-90696299D01*
X118094799Y-90857954D01*
X118094799Y-90857955D01*
X118094797Y-90857957D01*
X118050343Y-90919143D01*
X117960411Y-91042922D01*
X117856618Y-91246624D01*
X117785967Y-91464063D01*
X117785966Y-91464066D01*
X117785965Y-91464071D01*
X117771691Y-91554200D01*
X118586186Y-91554200D01*
X118653225Y-91573885D01*
X118698980Y-91626689D01*
X118708924Y-91695847D01*
X118705963Y-91710280D01*
X118700200Y-91731791D01*
X118700200Y-91876609D01*
X118705960Y-91898108D01*
X118704298Y-91967955D01*
X118665136Y-92025818D01*
X118600908Y-92053323D01*
X118586186Y-92054200D01*
X117771691Y-92054200D01*
X117785965Y-92144328D01*
X117785966Y-92144333D01*
X117785967Y-92144335D01*
X117856618Y-92361774D01*
X117910561Y-92467641D01*
X117960411Y-92565476D01*
X118094797Y-92750442D01*
X118256457Y-92912102D01*
X118256463Y-92912107D01*
X118326640Y-92963093D01*
X118351946Y-92987685D01*
X118360424Y-92998680D01*
X118385774Y-93063787D01*
X118371901Y-93132261D01*
X118368640Y-93138442D01*
X118331854Y-93180898D01*
X118256137Y-93235910D01*
X118256133Y-93235913D01*
X118089921Y-93402125D01*
X118085791Y-93409501D01*
X118065616Y-93437271D01*
X118063327Y-93440422D01*
X117959983Y-93582661D01*
X117959980Y-93582665D01*
X117959979Y-93582668D01*
X117856151Y-93786441D01*
X117785478Y-94003946D01*
X117784737Y-94008627D01*
X117784736Y-94008635D01*
X117749700Y-94229846D01*
X114000000Y-94229846D01*
X114000000Y-86652774D01*
X122550200Y-86652774D01*
X122550200Y-86875624D01*
X122579283Y-87096544D01*
X122579286Y-87096557D01*
X122579291Y-87096582D01*
X122623121Y-87260159D01*
X122636963Y-87311818D01*
X122676772Y-87407922D01*
X122722247Y-87517708D01*
X122722251Y-87517714D01*
X122722254Y-87517720D01*
X122771461Y-87602951D01*
X122833666Y-87710694D01*
X122833678Y-87710711D01*
X122884239Y-87776602D01*
X122884240Y-87776603D01*
X122884243Y-87776603D01*
X123567294Y-87093551D01*
X123628615Y-87060068D01*
X123698306Y-87065052D01*
X123754240Y-87106923D01*
X123762357Y-87119231D01*
X123770081Y-87132608D01*
X123881792Y-87244319D01*
X123895164Y-87252039D01*
X123943379Y-87302607D01*
X123956601Y-87371214D01*
X123930633Y-87436079D01*
X123920844Y-87447107D01*
X123237795Y-88130154D01*
X123237795Y-88130157D01*
X123303705Y-88180732D01*
X123306949Y-88182605D01*
X123496685Y-88292149D01*
X123496697Y-88292154D01*
X123702581Y-88377436D01*
X123848757Y-88416603D01*
X123917816Y-88435107D01*
X123917820Y-88435107D01*
X123917832Y-88435111D01*
X123917845Y-88435114D01*
X124138775Y-88464200D01*
X124361618Y-88464200D01*
X124361625Y-88464200D01*
X124582554Y-88435114D01*
X124582567Y-88435111D01*
X124797818Y-88377436D01*
X125003702Y-88292154D01*
X125003714Y-88292149D01*
X125196698Y-88180730D01*
X125262603Y-88130157D01*
X125262604Y-88130156D01*
X125262603Y-88130155D01*
X125262604Y-88130155D01*
X124579554Y-87447107D01*
X124546069Y-87385784D01*
X124551053Y-87316093D01*
X124592924Y-87260159D01*
X124605222Y-87252046D01*
X124618608Y-87244319D01*
X124730319Y-87132608D01*
X124738039Y-87119235D01*
X124788605Y-87071021D01*
X124857212Y-87057797D01*
X124922077Y-87083765D01*
X124933107Y-87093555D01*
X125616155Y-87776603D01*
X125616156Y-87776604D01*
X125616157Y-87776603D01*
X125666730Y-87710698D01*
X125778149Y-87517714D01*
X125778154Y-87517702D01*
X125863436Y-87311818D01*
X125921111Y-87096567D01*
X125921114Y-87096554D01*
X125950200Y-86875624D01*
X125950200Y-86692741D01*
X128549700Y-86692741D01*
X128549700Y-86915657D01*
X128549703Y-86915682D01*
X128578261Y-87132608D01*
X128578794Y-87136652D01*
X128578795Y-87136657D01*
X128578796Y-87136663D01*
X128578797Y-87136665D01*
X128628807Y-87323310D01*
X128628808Y-87323310D01*
X128636490Y-87351982D01*
X128636492Y-87351987D01*
X128636493Y-87351990D01*
X128671324Y-87436079D01*
X128705138Y-87517714D01*
X128705141Y-87517720D01*
X128721793Y-87557922D01*
X128721797Y-87557930D01*
X128721799Y-87557934D01*
X128831406Y-87747779D01*
X128833248Y-87750969D01*
X128834769Y-87752951D01*
X128834771Y-87752954D01*
X128853850Y-87777819D01*
X128968951Y-87927822D01*
X128968957Y-87927829D01*
X129126570Y-88085442D01*
X129126577Y-88085448D01*
X129126590Y-88085458D01*
X129126595Y-88085462D01*
X129250748Y-88180727D01*
X129250752Y-88180730D01*
X129303426Y-88221148D01*
X129496474Y-88332605D01*
X129496477Y-88332606D01*
X129496482Y-88332609D01*
X129604705Y-88377436D01*
X129604706Y-88377436D01*
X129667656Y-88403511D01*
X129702419Y-88417910D01*
X129917737Y-88475604D01*
X130138743Y-88504700D01*
X130138750Y-88504700D01*
X130361650Y-88504700D01*
X130361657Y-88504700D01*
X130582663Y-88475604D01*
X130797981Y-88417910D01*
X131003926Y-88332605D01*
X131196974Y-88221148D01*
X131373824Y-88085447D01*
X131531447Y-87927824D01*
X131667148Y-87750974D01*
X131778605Y-87557926D01*
X131863910Y-87351981D01*
X131921604Y-87136663D01*
X131950700Y-86915657D01*
X131950700Y-86692743D01*
X131930952Y-86542741D01*
X134549700Y-86542741D01*
X134549700Y-86765657D01*
X134549703Y-86765682D01*
X134578793Y-86986647D01*
X134578797Y-86986667D01*
X134618989Y-87136665D01*
X134636489Y-87201979D01*
X134636490Y-87201981D01*
X134636493Y-87201990D01*
X134657223Y-87252037D01*
X134703683Y-87364200D01*
X134703683Y-87364201D01*
X134721790Y-87407917D01*
X134721798Y-87407933D01*
X134831406Y-87597779D01*
X134833248Y-87600969D01*
X134834769Y-87602951D01*
X134834771Y-87602954D01*
X134968015Y-87776603D01*
X134968951Y-87777822D01*
X134968957Y-87777829D01*
X135126570Y-87935442D01*
X135126576Y-87935447D01*
X135303426Y-88071148D01*
X135496474Y-88182605D01*
X135702419Y-88267910D01*
X135917737Y-88325604D01*
X136138743Y-88354700D01*
X136138750Y-88354700D01*
X136361650Y-88354700D01*
X136361657Y-88354700D01*
X136582663Y-88325604D01*
X136797981Y-88267910D01*
X137003926Y-88182605D01*
X137196974Y-88071148D01*
X137373824Y-87935447D01*
X137531447Y-87777824D01*
X137667148Y-87600974D01*
X137778605Y-87407926D01*
X137863910Y-87201981D01*
X137921604Y-86986663D01*
X137950700Y-86765657D01*
X137950700Y-86542743D01*
X137921604Y-86321737D01*
X137863910Y-86106419D01*
X137840736Y-86050473D01*
X137780283Y-85904526D01*
X137779582Y-85902646D01*
X137778614Y-85900497D01*
X137778606Y-85900477D01*
X137778605Y-85900474D01*
X137667148Y-85707426D01*
X137628067Y-85656494D01*
X137531462Y-85530595D01*
X137531454Y-85530584D01*
X137531450Y-85530580D01*
X137531448Y-85530577D01*
X137531442Y-85530570D01*
X137373829Y-85372957D01*
X137373822Y-85372951D01*
X137373812Y-85372943D01*
X137373803Y-85372936D01*
X137198954Y-85238771D01*
X137198951Y-85238769D01*
X137196705Y-85237045D01*
X137195688Y-85236434D01*
X137193788Y-85235412D01*
X137094380Y-85178019D01*
X137094378Y-85178017D01*
X137003931Y-85125797D01*
X137003915Y-85125789D01*
X136993720Y-85121567D01*
X136963359Y-85103553D01*
X136951189Y-85093745D01*
X136911344Y-85036353D01*
X136907041Y-85023423D01*
X136900700Y-84984277D01*
X136900700Y-79572115D01*
X138599500Y-79572115D01*
X138599500Y-79572129D01*
X138599500Y-79572135D01*
X138599500Y-81667870D01*
X138599501Y-81667876D01*
X138605908Y-81727483D01*
X138646362Y-81835943D01*
X138647847Y-81841388D01*
X138647755Y-81846115D01*
X138651899Y-81865163D01*
X138653904Y-81893194D01*
X138646402Y-81945374D01*
X138606406Y-82052609D01*
X138606402Y-82052620D01*
X138606400Y-82052628D01*
X138600000Y-82112149D01*
X138600000Y-82112155D01*
X138600000Y-82910000D01*
X139213548Y-82910000D01*
X139280587Y-82929685D01*
X139326342Y-82982489D01*
X139336286Y-83051647D01*
X139335166Y-83058190D01*
X139330000Y-83084163D01*
X139330000Y-83235836D01*
X139335166Y-83261810D01*
X139328937Y-83331402D01*
X139286073Y-83386579D01*
X139220183Y-83409822D01*
X139213548Y-83410000D01*
X138600000Y-83410000D01*
X138600000Y-84207852D01*
X138606400Y-84267370D01*
X138606401Y-84267372D01*
X138606403Y-84267379D01*
X138656645Y-84402086D01*
X138656649Y-84402093D01*
X138699487Y-84459317D01*
X138742807Y-84517185D01*
X138742813Y-84517191D01*
X138743289Y-84517547D01*
X138857906Y-84603350D01*
X138857913Y-84603354D01*
X138992620Y-84653596D01*
X138992627Y-84653598D01*
X138997212Y-84654091D01*
X139052138Y-84659998D01*
X139052155Y-84659999D01*
X139052172Y-84660000D01*
X139850000Y-84660000D01*
X139850000Y-84046451D01*
X139869685Y-83979412D01*
X139922489Y-83933657D01*
X139991647Y-83923713D01*
X139998171Y-83924830D01*
X140024162Y-83930000D01*
X140175838Y-83930000D01*
X140201809Y-83924834D01*
X140271398Y-83931060D01*
X140326576Y-83973923D01*
X140349822Y-84039812D01*
X140350000Y-84046451D01*
X140350000Y-84660000D01*
X141147828Y-84660000D01*
X141147836Y-84660000D01*
X141147847Y-84659999D01*
X141183560Y-84656158D01*
X141207372Y-84653598D01*
X141207379Y-84653596D01*
X141342086Y-84603354D01*
X141342093Y-84603350D01*
X141457187Y-84517190D01*
X141457190Y-84517187D01*
X141543350Y-84402093D01*
X141543354Y-84402086D01*
X141593596Y-84267379D01*
X141593598Y-84267372D01*
X141599611Y-84211454D01*
X141599998Y-84207860D01*
X141600000Y-84207827D01*
X141600000Y-83410000D01*
X140986452Y-83410000D01*
X140919413Y-83390315D01*
X140873658Y-83337511D01*
X140863714Y-83268353D01*
X140864834Y-83261810D01*
X140870000Y-83235836D01*
X140870000Y-83084163D01*
X140864834Y-83058190D01*
X140871063Y-82988598D01*
X140913927Y-82933421D01*
X140979817Y-82910178D01*
X140986452Y-82910000D01*
X141600000Y-82910000D01*
X141600000Y-82112172D01*
X141599998Y-82112141D01*
X141593598Y-82052628D01*
X141593597Y-82052625D01*
X141593597Y-82052623D01*
X141555601Y-81950752D01*
X141548099Y-81916265D01*
X141546094Y-81888233D01*
X141553597Y-81836052D01*
X141594088Y-81727491D01*
X141594087Y-81727491D01*
X141594091Y-81727483D01*
X141600500Y-81667873D01*
X141600499Y-79572128D01*
X141594091Y-79512517D01*
X141543796Y-79377669D01*
X141543795Y-79377668D01*
X141543793Y-79377664D01*
X141543782Y-79377649D01*
X141541392Y-79373929D01*
X141541391Y-79373928D01*
X141538489Y-79370579D01*
X141457547Y-79262455D01*
X141457544Y-79262452D01*
X141457542Y-79262450D01*
X141399616Y-79219086D01*
X141342335Y-79176206D01*
X141342332Y-79176204D01*
X141342330Y-79176203D01*
X141342328Y-79176202D01*
X141207482Y-79125908D01*
X141207483Y-79125908D01*
X141147883Y-79119501D01*
X141147881Y-79119500D01*
X141147873Y-79119500D01*
X141147864Y-79119500D01*
X141146841Y-79119500D01*
X139052123Y-79119500D01*
X139050192Y-79119659D01*
X139048545Y-79119885D01*
X138992516Y-79125908D01*
X138857666Y-79176204D01*
X138857665Y-79176205D01*
X138742456Y-79262450D01*
X138742450Y-79262456D01*
X138656205Y-79377665D01*
X138656203Y-79377668D01*
X138605908Y-79512516D01*
X138599500Y-79572115D01*
X136900700Y-79572115D01*
X136900700Y-77260137D01*
X136905722Y-77225204D01*
X136906486Y-77222602D01*
X136913134Y-77199959D01*
X136944428Y-77147217D01*
X140605271Y-73486375D01*
X140605276Y-73486370D01*
X140676465Y-73379827D01*
X140692639Y-73340781D01*
X140712218Y-73293511D01*
X140730221Y-73263169D01*
X140740036Y-73250988D01*
X140797425Y-73211144D01*
X140810353Y-73206841D01*
X140849504Y-73200499D01*
X141147871Y-73200499D01*
X141147872Y-73200499D01*
X141207483Y-73194091D01*
X141342331Y-73143796D01*
X141457546Y-73057546D01*
X141543796Y-72942331D01*
X141594091Y-72807483D01*
X141600500Y-72747873D01*
X141600499Y-70652128D01*
X141594091Y-70592517D01*
X141555867Y-70490035D01*
X141548365Y-70455544D01*
X141546361Y-70427514D01*
X141553862Y-70375340D01*
X141578966Y-70308034D01*
X141594091Y-70267483D01*
X141600500Y-70207873D01*
X141600499Y-68112128D01*
X141594091Y-68052517D01*
X141543796Y-67917669D01*
X141543795Y-67917668D01*
X141543793Y-67917664D01*
X141543782Y-67917649D01*
X141541392Y-67913929D01*
X141541391Y-67913928D01*
X141538489Y-67910579D01*
X141457547Y-67802455D01*
X141457544Y-67802452D01*
X141457542Y-67802450D01*
X141399616Y-67759086D01*
X141342335Y-67716206D01*
X141342332Y-67716204D01*
X141342330Y-67716203D01*
X141342328Y-67716202D01*
X141207482Y-67665908D01*
X141207483Y-67665908D01*
X141147883Y-67659501D01*
X141147881Y-67659500D01*
X141147873Y-67659500D01*
X141147865Y-67659500D01*
X141146841Y-67659500D01*
X140892330Y-67659500D01*
X140857389Y-67654475D01*
X140842390Y-67650070D01*
X140783644Y-67612327D01*
X140782457Y-67610958D01*
X140754977Y-67556083D01*
X140753332Y-67548521D01*
X140750500Y-67522168D01*
X140750500Y-63508146D01*
X140755521Y-63473219D01*
X140758707Y-63462366D01*
X140796477Y-63403585D01*
X140860031Y-63374556D01*
X140929171Y-63384487D01*
X140931299Y-63385459D01*
X140982908Y-63429369D01*
X141086238Y-63584013D01*
X141086242Y-63584018D01*
X141086244Y-63584021D01*
X141086247Y-63584025D01*
X141229076Y-63726854D01*
X141229082Y-63726858D01*
X141229086Y-63726861D01*
X141397041Y-63839085D01*
X141449012Y-63860612D01*
X141479362Y-63878619D01*
X141498038Y-63893670D01*
X141537887Y-63951061D01*
X141540007Y-63958126D01*
X141548220Y-63988779D01*
X141548222Y-63988783D01*
X141565366Y-64018477D01*
X141568717Y-64024281D01*
X141568761Y-64024359D01*
X141569660Y-64025916D01*
X141627275Y-64125709D01*
X141627281Y-64125717D01*
X141627285Y-64125722D01*
X141748114Y-64246551D01*
X141748159Y-64246594D01*
X143350573Y-65849008D01*
X143371723Y-65877260D01*
X143384331Y-65900349D01*
X143399500Y-65959778D01*
X143399500Y-92411590D01*
X143399499Y-92411664D01*
X143399499Y-92536960D01*
X143393601Y-92557046D01*
X143399498Y-92579054D01*
X143440423Y-92731785D01*
X143467809Y-92779219D01*
X143467810Y-92779221D01*
X143519467Y-92868696D01*
X143519481Y-92868717D01*
X143519485Y-92868722D01*
X143640314Y-92989551D01*
X143640359Y-92989594D01*
X147213527Y-96562762D01*
X147234678Y-96591015D01*
X147241330Y-96603197D01*
X147256182Y-96671470D01*
X147231766Y-96736935D01*
X147231759Y-96736944D01*
X147226056Y-96744561D01*
X147191896Y-96775778D01*
X147181345Y-96782286D01*
X147181342Y-96782288D01*
X147057290Y-96906340D01*
X146965187Y-97055662D01*
X146965187Y-97055663D01*
X146965186Y-97055666D01*
X146956522Y-97081813D01*
X146921050Y-97188857D01*
X146921044Y-97188875D01*
X146910001Y-97222203D01*
X146910001Y-97222204D01*
X146910000Y-97222204D01*
X146909230Y-97229735D01*
X146909229Y-97229741D01*
X146899500Y-97324973D01*
X146899500Y-97324983D01*
X146899500Y-98675001D01*
X146899501Y-98675018D01*
X146910000Y-98777796D01*
X146910001Y-98777799D01*
X146965185Y-98944331D01*
X146965187Y-98944336D01*
X146988870Y-98982732D01*
X147027010Y-99044568D01*
X147057286Y-99093654D01*
X147057288Y-99093656D01*
X147181344Y-99217712D01*
X147330666Y-99309814D01*
X147497203Y-99364999D01*
X147599991Y-99375500D01*
X148400008Y-99375499D01*
X148400016Y-99375498D01*
X148400019Y-99375498D01*
X148400027Y-99375497D01*
X148400317Y-99375479D01*
X148401333Y-99375363D01*
X148446459Y-99370753D01*
X148456303Y-99369748D01*
X148456303Y-99369747D01*
X148502797Y-99364999D01*
X148669334Y-99309814D01*
X148818656Y-99217712D01*
X148942712Y-99093656D01*
X148972951Y-99044629D01*
X148995559Y-99017538D01*
X149005890Y-99008246D01*
X149068895Y-98978054D01*
X149138219Y-98986715D01*
X149146945Y-98990506D01*
X149185212Y-99016554D01*
X149283072Y-99114414D01*
X149423212Y-99216232D01*
X149577555Y-99294873D01*
X149742299Y-99348402D01*
X149913389Y-99375500D01*
X149913390Y-99375500D01*
X150086610Y-99375500D01*
X150086611Y-99375500D01*
X150257701Y-99348402D01*
X150422445Y-99294873D01*
X150576788Y-99216232D01*
X150716928Y-99114414D01*
X150839414Y-98991928D01*
X150889203Y-98923397D01*
X150913797Y-98898091D01*
X150924794Y-98889611D01*
X150989899Y-98864265D01*
X151058370Y-98878138D01*
X151064551Y-98881399D01*
X151107007Y-98918185D01*
X151150506Y-98978054D01*
X151160586Y-98991928D01*
X151283072Y-99114414D01*
X151423212Y-99216232D01*
X151577555Y-99294873D01*
X151742299Y-99348402D01*
X151913389Y-99375500D01*
X151913390Y-99375500D01*
X152086610Y-99375500D01*
X152086611Y-99375500D01*
X152257701Y-99348402D01*
X152422445Y-99294873D01*
X152576788Y-99216232D01*
X152716928Y-99114414D01*
X152839414Y-98991928D01*
X152889203Y-98923397D01*
X152913797Y-98898091D01*
X152924794Y-98889611D01*
X152989899Y-98864265D01*
X153058370Y-98878138D01*
X153064551Y-98881399D01*
X153107007Y-98918185D01*
X153150506Y-98978054D01*
X153160586Y-98991928D01*
X153283072Y-99114414D01*
X153423212Y-99216232D01*
X153577555Y-99294873D01*
X153742299Y-99348402D01*
X153913389Y-99375500D01*
X153913390Y-99375500D01*
X154086610Y-99375500D01*
X154086611Y-99375500D01*
X154257701Y-99348402D01*
X154422445Y-99294873D01*
X154576788Y-99216232D01*
X154716928Y-99114414D01*
X154839414Y-98991928D01*
X154889203Y-98923397D01*
X154913797Y-98898091D01*
X154924794Y-98889611D01*
X154989899Y-98864265D01*
X155058370Y-98878138D01*
X155064551Y-98881399D01*
X155107007Y-98918185D01*
X155150506Y-98978054D01*
X155160586Y-98991928D01*
X155283072Y-99114414D01*
X155423212Y-99216232D01*
X155577555Y-99294873D01*
X155742299Y-99348402D01*
X155913389Y-99375500D01*
X155913390Y-99375500D01*
X156086610Y-99375500D01*
X156086611Y-99375500D01*
X156257701Y-99348402D01*
X156422445Y-99294873D01*
X156576788Y-99216232D01*
X156716928Y-99114414D01*
X156839414Y-98991928D01*
X156941232Y-98851788D01*
X157019873Y-98697445D01*
X157073402Y-98532701D01*
X157100500Y-98361611D01*
X157100500Y-97638389D01*
X157073402Y-97467299D01*
X157019873Y-97302555D01*
X156941232Y-97148212D01*
X156839414Y-97008072D01*
X156716928Y-96885586D01*
X156576788Y-96783768D01*
X156561107Y-96775778D01*
X156422449Y-96705128D01*
X156271215Y-96655988D01*
X156271203Y-96655985D01*
X156257701Y-96651598D01*
X156257699Y-96651597D01*
X156257698Y-96651597D01*
X156243312Y-96649318D01*
X156243306Y-96649317D01*
X156152902Y-96634999D01*
X156126271Y-96630781D01*
X156110407Y-96628268D01*
X156086614Y-96624500D01*
X156086611Y-96624500D01*
X155913389Y-96624500D01*
X155913388Y-96624500D01*
X155881190Y-96629599D01*
X155881189Y-96629598D01*
X155742313Y-96651594D01*
X155742302Y-96651596D01*
X155742280Y-96651603D01*
X155649270Y-96681824D01*
X155614495Y-96687842D01*
X155597428Y-96688329D01*
X155532144Y-96671912D01*
X155520599Y-96665283D01*
X155494667Y-96645432D01*
X152491928Y-93642693D01*
X152491919Y-93642683D01*
X152441564Y-93592328D01*
X152368717Y-93519481D01*
X152368716Y-93519480D01*
X152261334Y-93457483D01*
X152261332Y-93457482D01*
X152259876Y-93456641D01*
X152259864Y-93456634D01*
X152245922Y-93448585D01*
X152239390Y-93443572D01*
X152224177Y-93437271D01*
X152216015Y-93436197D01*
X152175881Y-93425443D01*
X152175881Y-93425442D01*
X152088857Y-93402125D01*
X152079057Y-93399499D01*
X152079056Y-93399499D01*
X151911443Y-93399499D01*
X151911380Y-93399500D01*
X147932628Y-93399500D01*
X147897692Y-93394477D01*
X147872450Y-93387065D01*
X147819705Y-93355769D01*
X146875617Y-92411681D01*
X146842132Y-92350358D01*
X146847116Y-92280666D01*
X146888988Y-92224733D01*
X146954452Y-92200316D01*
X146963298Y-92200000D01*
X171574800Y-92200000D01*
X171641839Y-92219685D01*
X171687594Y-92272489D01*
X171698800Y-92324000D01*
X171698800Y-92382772D01*
X171693776Y-92417709D01*
X171686364Y-92442950D01*
X171655069Y-92495694D01*
X167506287Y-96644475D01*
X167478031Y-96665627D01*
X167463048Y-96673808D01*
X167397437Y-96688821D01*
X167392217Y-96688560D01*
X167384139Y-96688156D01*
X167352013Y-96682242D01*
X167257698Y-96651597D01*
X167257696Y-96651596D01*
X167257695Y-96651596D01*
X167152902Y-96634999D01*
X167126271Y-96630781D01*
X167110407Y-96628268D01*
X167086614Y-96624500D01*
X167086611Y-96624500D01*
X166913389Y-96624500D01*
X166913388Y-96624500D01*
X166873726Y-96630781D01*
X166873725Y-96630780D01*
X166742304Y-96651596D01*
X166577549Y-96705129D01*
X166423210Y-96783768D01*
X166343256Y-96841859D01*
X166343255Y-96841859D01*
X166294941Y-96876961D01*
X166287564Y-96881092D01*
X166160587Y-97008069D01*
X166110796Y-97076599D01*
X166086198Y-97101909D01*
X166075207Y-97110384D01*
X166010097Y-97135732D01*
X165941619Y-97121856D01*
X165941612Y-97121852D01*
X165935433Y-97118591D01*
X165892992Y-97081813D01*
X165840884Y-97010095D01*
X165839820Y-97008567D01*
X165839414Y-97008072D01*
X165790225Y-96958883D01*
X165716928Y-96885586D01*
X165576788Y-96783768D01*
X165561107Y-96775778D01*
X165422449Y-96705128D01*
X165271215Y-96655988D01*
X165271203Y-96655985D01*
X165257701Y-96651598D01*
X165257699Y-96651597D01*
X165257698Y-96651597D01*
X165243312Y-96649318D01*
X165243306Y-96649317D01*
X165152902Y-96634999D01*
X165126271Y-96630781D01*
X165110407Y-96628268D01*
X165086614Y-96624500D01*
X165086611Y-96624500D01*
X164913389Y-96624500D01*
X164913388Y-96624500D01*
X164873726Y-96630781D01*
X164873725Y-96630780D01*
X164742304Y-96651596D01*
X164577549Y-96705129D01*
X164423210Y-96783768D01*
X164283074Y-96885584D01*
X164188138Y-96980520D01*
X164159881Y-97001672D01*
X164147698Y-97008324D01*
X164079425Y-97023174D01*
X164013964Y-96998757D01*
X164006347Y-96993055D01*
X163975120Y-96958886D01*
X163942712Y-96906344D01*
X163818656Y-96782288D01*
X163818655Y-96782287D01*
X163697904Y-96707808D01*
X163697903Y-96707807D01*
X163693559Y-96705128D01*
X163669336Y-96690187D01*
X163669331Y-96690185D01*
X163660724Y-96687333D01*
X163645360Y-96682242D01*
X163511265Y-96637807D01*
X163508445Y-96636641D01*
X163502792Y-96634999D01*
X163400019Y-96624500D01*
X163400010Y-96624500D01*
X162599998Y-96624500D01*
X162599980Y-96624501D01*
X162599972Y-96624501D01*
X162599953Y-96624503D01*
X162497197Y-96635000D01*
X162497193Y-96635001D01*
X162497032Y-96635056D01*
X162330667Y-96690185D01*
X162330665Y-96690186D01*
X162330663Y-96690187D01*
X162254858Y-96736944D01*
X162181340Y-96782290D01*
X162057290Y-96906340D01*
X161965187Y-97055662D01*
X161965187Y-97055663D01*
X161965186Y-97055666D01*
X161956522Y-97081813D01*
X161921050Y-97188857D01*
X161921044Y-97188875D01*
X161910001Y-97222203D01*
X161910001Y-97222204D01*
X161910000Y-97222204D01*
X161909230Y-97229735D01*
X161909229Y-97229741D01*
X161899500Y-97324973D01*
X161899500Y-97324983D01*
X161899500Y-98675001D01*
X161899501Y-98675018D01*
X161910000Y-98777796D01*
X161910001Y-98777799D01*
X161965185Y-98944331D01*
X161965187Y-98944336D01*
X161988870Y-98982732D01*
X162027010Y-99044568D01*
X162057286Y-99093654D01*
X162057288Y-99093656D01*
X162181344Y-99217712D01*
X162330666Y-99309814D01*
X162497203Y-99364999D01*
X162599991Y-99375500D01*
X163400008Y-99375499D01*
X163400016Y-99375498D01*
X163400019Y-99375498D01*
X163400027Y-99375497D01*
X163400317Y-99375479D01*
X163401333Y-99375363D01*
X163446459Y-99370753D01*
X163456303Y-99369748D01*
X163456303Y-99369747D01*
X163502797Y-99364999D01*
X163669334Y-99309814D01*
X163818656Y-99217712D01*
X163942712Y-99093656D01*
X163972951Y-99044629D01*
X163995559Y-99017538D01*
X164005890Y-99008246D01*
X164068895Y-98978054D01*
X164138219Y-98986715D01*
X164146945Y-98990506D01*
X164185212Y-99016554D01*
X164283072Y-99114414D01*
X164423212Y-99216232D01*
X164577555Y-99294873D01*
X164742299Y-99348402D01*
X164913389Y-99375500D01*
X164913390Y-99375500D01*
X165086610Y-99375500D01*
X165086611Y-99375500D01*
X165257701Y-99348402D01*
X165422445Y-99294873D01*
X165576788Y-99216232D01*
X165716928Y-99114414D01*
X165839414Y-98991928D01*
X165889203Y-98923397D01*
X165913797Y-98898091D01*
X165924794Y-98889611D01*
X165989899Y-98864265D01*
X166058370Y-98878138D01*
X166064551Y-98881399D01*
X166107007Y-98918185D01*
X166150506Y-98978054D01*
X166160586Y-98991928D01*
X166283072Y-99114414D01*
X166423212Y-99216232D01*
X166577555Y-99294873D01*
X166742299Y-99348402D01*
X166913389Y-99375500D01*
X166913390Y-99375500D01*
X167086610Y-99375500D01*
X167086611Y-99375500D01*
X167257701Y-99348402D01*
X167422445Y-99294873D01*
X167576788Y-99216232D01*
X167716928Y-99114414D01*
X167839414Y-98991928D01*
X167889203Y-98923397D01*
X167913797Y-98898091D01*
X167924794Y-98889611D01*
X167989899Y-98864265D01*
X168058370Y-98878138D01*
X168064551Y-98881399D01*
X168107007Y-98918185D01*
X168150506Y-98978054D01*
X168160586Y-98991928D01*
X168283072Y-99114414D01*
X168423212Y-99216232D01*
X168577555Y-99294873D01*
X168742299Y-99348402D01*
X168913389Y-99375500D01*
X168913390Y-99375500D01*
X169086610Y-99375500D01*
X169086611Y-99375500D01*
X169257701Y-99348402D01*
X169422445Y-99294873D01*
X169576788Y-99216232D01*
X169716928Y-99114414D01*
X169839414Y-98991928D01*
X169889203Y-98923397D01*
X169913797Y-98898091D01*
X169924794Y-98889611D01*
X169989899Y-98864265D01*
X170058370Y-98878138D01*
X170064551Y-98881399D01*
X170107007Y-98918185D01*
X170150506Y-98978054D01*
X170160586Y-98991928D01*
X170283072Y-99114414D01*
X170423212Y-99216232D01*
X170577555Y-99294873D01*
X170742299Y-99348402D01*
X170913389Y-99375500D01*
X170913390Y-99375500D01*
X171086610Y-99375500D01*
X171086611Y-99375500D01*
X171257701Y-99348402D01*
X171422445Y-99294873D01*
X171576788Y-99216232D01*
X171716928Y-99114414D01*
X171839414Y-98991928D01*
X171941232Y-98851788D01*
X172019873Y-98697445D01*
X172073402Y-98532701D01*
X172100500Y-98361611D01*
X172100500Y-97817925D01*
X172105522Y-97782992D01*
X172112934Y-97757747D01*
X172144228Y-97705005D01*
X173527913Y-96321321D01*
X173527916Y-96321320D01*
X173639720Y-96209516D01*
X173689839Y-96122704D01*
X173718777Y-96072585D01*
X173759701Y-95919857D01*
X173759701Y-95761743D01*
X173759701Y-95754148D01*
X173759701Y-95752464D01*
X173759700Y-95752390D01*
X173759700Y-71510652D01*
X173759701Y-71510601D01*
X173759701Y-71340146D01*
X173759700Y-71340142D01*
X173745725Y-71287983D01*
X173745725Y-71287982D01*
X173718778Y-71187420D01*
X173718777Y-71187416D01*
X173664377Y-71093191D01*
X173639724Y-71050490D01*
X173639718Y-71050482D01*
X173639714Y-71050478D01*
X173639713Y-71050476D01*
X171957637Y-69368401D01*
X171936488Y-69340151D01*
X171928303Y-69325161D01*
X171913291Y-69259541D01*
X171913956Y-69246246D01*
X171919870Y-69214127D01*
X171968477Y-69064534D01*
X172000500Y-68862352D01*
X172000500Y-68657648D01*
X172000499Y-68657642D01*
X171989200Y-68586305D01*
X171977114Y-68509999D01*
X171968477Y-68455465D01*
X171939127Y-68365137D01*
X171905220Y-68260781D01*
X171905218Y-68260778D01*
X171905218Y-68260776D01*
X171902981Y-68256385D01*
X171902669Y-68255586D01*
X171901932Y-68254327D01*
X171871503Y-68194607D01*
X171829478Y-68112129D01*
X171812287Y-68078390D01*
X171793489Y-68052516D01*
X171691971Y-67912786D01*
X171547213Y-67768028D01*
X171381614Y-67647715D01*
X171381611Y-67647713D01*
X171381609Y-67647712D01*
X171381602Y-67647708D01*
X171366113Y-67639817D01*
X171366107Y-67639814D01*
X171304801Y-67608576D01*
X171275956Y-67588242D01*
X171266544Y-67579353D01*
X171231321Y-67519012D01*
X171234313Y-67449206D01*
X171270481Y-67395491D01*
X171274470Y-67392035D01*
X171277487Y-67389419D01*
X171302396Y-67372648D01*
X171304259Y-67371699D01*
X171381610Y-67332287D01*
X171402770Y-67316913D01*
X171547213Y-67211971D01*
X171547214Y-67211969D01*
X171547274Y-67211926D01*
X171548036Y-67211148D01*
X171691966Y-67067219D01*
X171691968Y-67067215D01*
X171691971Y-67067213D01*
X171744730Y-66994593D01*
X171744732Y-66994591D01*
X171768172Y-66962327D01*
X171812287Y-66901610D01*
X171905220Y-66719219D01*
X171968477Y-66524534D01*
X172000500Y-66322352D01*
X172000500Y-66117648D01*
X171968477Y-65915465D01*
X171910899Y-65738259D01*
X171910895Y-65738246D01*
X171906722Y-65725402D01*
X171905660Y-65721640D01*
X171904660Y-65719626D01*
X171902865Y-65715922D01*
X171901934Y-65714331D01*
X171871503Y-65654606D01*
X171871503Y-65654607D01*
X171812287Y-65538390D01*
X171804556Y-65527749D01*
X171691971Y-65372786D01*
X171547213Y-65228028D01*
X171547212Y-65228027D01*
X171547211Y-65228026D01*
X171392209Y-65115413D01*
X171392205Y-65115410D01*
X171381613Y-65107715D01*
X171381612Y-65107714D01*
X171381610Y-65107713D01*
X171353171Y-65093222D01*
X171324654Y-65078691D01*
X171324653Y-65078691D01*
X171199223Y-65014781D01*
X171004534Y-64951522D01*
X171004532Y-64951521D01*
X171004530Y-64951521D01*
X171004529Y-64951520D01*
X170829995Y-64923878D01*
X170813409Y-64921251D01*
X170802354Y-64919500D01*
X170802352Y-64919500D01*
X170197648Y-64919500D01*
X170197647Y-64919500D01*
X170173327Y-64923351D01*
X170173326Y-64923350D01*
X169995468Y-64951521D01*
X169800777Y-65014780D01*
X169800764Y-65014786D01*
X169618397Y-65107708D01*
X169618385Y-65107715D01*
X169452787Y-65228027D01*
X169452784Y-65228029D01*
X169308029Y-65372784D01*
X169308027Y-65372787D01*
X169187715Y-65538385D01*
X169187708Y-65538397D01*
X169094786Y-65720764D01*
X169094780Y-65720777D01*
X169031521Y-65915468D01*
X168999500Y-66117642D01*
X168999500Y-66322356D01*
X169031521Y-66524530D01*
X169094780Y-66719221D01*
X169094786Y-66719234D01*
X169187708Y-66901601D01*
X169187709Y-66901602D01*
X169187715Y-66901613D01*
X169308028Y-67067213D01*
X169452786Y-67211971D01*
X169607749Y-67324556D01*
X169618390Y-67332287D01*
X169696878Y-67372278D01*
X169698506Y-67373171D01*
X169700463Y-67375134D01*
X169724045Y-67391760D01*
X169733459Y-67400652D01*
X169744146Y-67418963D01*
X169747829Y-67422658D01*
X169748724Y-67426806D01*
X169768679Y-67460996D01*
X169765683Y-67530801D01*
X169729521Y-67584505D01*
X169722519Y-67590573D01*
X169697606Y-67607350D01*
X169618387Y-67647714D01*
X169618385Y-67647715D01*
X169452787Y-67768027D01*
X169452784Y-67768029D01*
X169308029Y-67912784D01*
X169308027Y-67912787D01*
X169187715Y-68078385D01*
X169187713Y-68078389D01*
X169094786Y-68260764D01*
X169094780Y-68260777D01*
X169031521Y-68455468D01*
X168999500Y-68657642D01*
X168999500Y-68862356D01*
X169031521Y-69064530D01*
X169094780Y-69259221D01*
X169094786Y-69259234D01*
X169187708Y-69441601D01*
X169187715Y-69441613D01*
X169308028Y-69607213D01*
X169452786Y-69751971D01*
X169607749Y-69864556D01*
X169618390Y-69872287D01*
X169696878Y-69912278D01*
X169698506Y-69913171D01*
X169700463Y-69915134D01*
X169724045Y-69931760D01*
X169733459Y-69940652D01*
X169744146Y-69958963D01*
X169747829Y-69962658D01*
X169748724Y-69966806D01*
X169768679Y-70000996D01*
X169765683Y-70070801D01*
X169729521Y-70124505D01*
X169722519Y-70130573D01*
X169697606Y-70147350D01*
X169618387Y-70187714D01*
X169618385Y-70187715D01*
X169452787Y-70308027D01*
X169452784Y-70308029D01*
X169308029Y-70452784D01*
X169308027Y-70452787D01*
X169187715Y-70618385D01*
X169187713Y-70618389D01*
X169094786Y-70800764D01*
X169094780Y-70800777D01*
X169031521Y-70995468D01*
X168999500Y-71197642D01*
X168999500Y-71402356D01*
X169031521Y-71604530D01*
X169094780Y-71799221D01*
X169094786Y-71799234D01*
X169187708Y-71981601D01*
X169187709Y-71981602D01*
X169187715Y-71981613D01*
X169308028Y-72147213D01*
X169452786Y-72291971D01*
X169607749Y-72404556D01*
X169618390Y-72412287D01*
X169696878Y-72452278D01*
X169698506Y-72453171D01*
X169700463Y-72455134D01*
X169724045Y-72471760D01*
X169733459Y-72480652D01*
X169744146Y-72498963D01*
X169747829Y-72502658D01*
X169748724Y-72506806D01*
X169768679Y-72540996D01*
X169765683Y-72610801D01*
X169729521Y-72664505D01*
X169722519Y-72670573D01*
X169697606Y-72687350D01*
X169618387Y-72727714D01*
X169618385Y-72727715D01*
X169452787Y-72848027D01*
X169452784Y-72848029D01*
X169308029Y-72992784D01*
X169308027Y-72992787D01*
X169187715Y-73158385D01*
X169187708Y-73158397D01*
X169094786Y-73340764D01*
X169094780Y-73340777D01*
X169031521Y-73535468D01*
X168999500Y-73737642D01*
X168999500Y-73942356D01*
X169031521Y-74144530D01*
X169031522Y-74144534D01*
X169060694Y-74234316D01*
X169094780Y-74339221D01*
X169094786Y-74339234D01*
X169187708Y-74521601D01*
X169187713Y-74521610D01*
X169187715Y-74521613D01*
X169308028Y-74687213D01*
X169452786Y-74831971D01*
X169607749Y-74944556D01*
X169618390Y-74952287D01*
X169696878Y-74992278D01*
X169698506Y-74993171D01*
X169700463Y-74995134D01*
X169724045Y-75011760D01*
X169733459Y-75020652D01*
X169744146Y-75038963D01*
X169747829Y-75042658D01*
X169748724Y-75046806D01*
X169768679Y-75080996D01*
X169765683Y-75150801D01*
X169729521Y-75204505D01*
X169722519Y-75210573D01*
X169697606Y-75227350D01*
X169618387Y-75267714D01*
X169618385Y-75267715D01*
X169452787Y-75388027D01*
X169452784Y-75388029D01*
X169308029Y-75532784D01*
X169308027Y-75532787D01*
X169187715Y-75698385D01*
X169187708Y-75698397D01*
X169094786Y-75880764D01*
X169094780Y-75880777D01*
X169031521Y-76075468D01*
X168999500Y-76277642D01*
X168999500Y-76482356D01*
X169029995Y-76674893D01*
X169031522Y-76684534D01*
X169046871Y-76731773D01*
X169094780Y-76879221D01*
X169094786Y-76879234D01*
X169187708Y-77061601D01*
X169187709Y-77061602D01*
X169187715Y-77061613D01*
X169308028Y-77227213D01*
X169452786Y-77371971D01*
X169556514Y-77447332D01*
X169618390Y-77492287D01*
X169699307Y-77533516D01*
X169703244Y-77535906D01*
X169706286Y-77539240D01*
X169724045Y-77551760D01*
X169733459Y-77560652D01*
X169747018Y-77583883D01*
X169750337Y-77587521D01*
X169750828Y-77590412D01*
X169768679Y-77620996D01*
X169765683Y-77690801D01*
X169729521Y-77744505D01*
X169722519Y-77750573D01*
X169697606Y-77767350D01*
X169618387Y-77807714D01*
X169618385Y-77807715D01*
X169452787Y-77928027D01*
X169452784Y-77928029D01*
X169308029Y-78072784D01*
X169308027Y-78072787D01*
X169187715Y-78238385D01*
X169187708Y-78238397D01*
X169094786Y-78420764D01*
X169094780Y-78420777D01*
X169031521Y-78615468D01*
X168999500Y-78817642D01*
X168999500Y-79022356D01*
X169031521Y-79224530D01*
X169031522Y-79224534D01*
X169043844Y-79262456D01*
X169094780Y-79419221D01*
X169094786Y-79419234D01*
X169187708Y-79601601D01*
X169187713Y-79601609D01*
X169187715Y-79601613D01*
X169308028Y-79767213D01*
X169452786Y-79911971D01*
X169607749Y-80024556D01*
X169618390Y-80032287D01*
X169696878Y-80072278D01*
X169698506Y-80073171D01*
X169700463Y-80075134D01*
X169724045Y-80091760D01*
X169733459Y-80100652D01*
X169744146Y-80118963D01*
X169747829Y-80122658D01*
X169748724Y-80126806D01*
X169768679Y-80160996D01*
X169765683Y-80230801D01*
X169729521Y-80284505D01*
X169722519Y-80290573D01*
X169697606Y-80307350D01*
X169618387Y-80347714D01*
X169618385Y-80347715D01*
X169452787Y-80468027D01*
X169452784Y-80468029D01*
X169308029Y-80612784D01*
X169308027Y-80612787D01*
X169187715Y-80778385D01*
X169187708Y-80778397D01*
X169094786Y-80960764D01*
X169094780Y-80960777D01*
X169031521Y-81155468D01*
X168999500Y-81357642D01*
X168999500Y-81562356D01*
X169025655Y-81727491D01*
X169031522Y-81764534D01*
X169043844Y-81802456D01*
X169094780Y-81959221D01*
X169094783Y-81959228D01*
X169142372Y-82052623D01*
X169142373Y-82052625D01*
X169172704Y-82112155D01*
X169176956Y-82120499D01*
X169187715Y-82141613D01*
X169308028Y-82307213D01*
X169308030Y-82307215D01*
X169326655Y-82325840D01*
X169347806Y-82354093D01*
X169354458Y-82366275D01*
X169369310Y-82434548D01*
X169344894Y-82500013D01*
X169344891Y-82500016D01*
X169342142Y-82503688D01*
X169286212Y-82545556D01*
X169257682Y-82556197D01*
X169257667Y-82556204D01*
X169257654Y-82556212D01*
X169142465Y-82642443D01*
X169142453Y-82642453D01*
X169142450Y-82642456D01*
X169056205Y-82757665D01*
X169056203Y-82757668D01*
X169005907Y-82892516D01*
X169001298Y-82935399D01*
X168999501Y-82952116D01*
X168999500Y-82952135D01*
X168999500Y-85047870D01*
X168999501Y-85047876D01*
X169005908Y-85107483D01*
X169054357Y-85237381D01*
X169055727Y-85242220D01*
X169055435Y-85272326D01*
X169057583Y-85302358D01*
X169055100Y-85306904D01*
X169055050Y-85312087D01*
X169038524Y-85337260D01*
X169024098Y-85363681D01*
X169019550Y-85366163D01*
X169016707Y-85370496D01*
X168989198Y-85382737D01*
X168962775Y-85397166D01*
X168954865Y-85398016D01*
X168952873Y-85398903D01*
X168950298Y-85398507D01*
X168936417Y-85400000D01*
X148473439Y-85400000D01*
X148406400Y-85380315D01*
X148360645Y-85327511D01*
X148350701Y-85258353D01*
X148379726Y-85194797D01*
X148417144Y-85165515D01*
X148521610Y-85112287D01*
X148614590Y-85044732D01*
X148687213Y-84991971D01*
X148687213Y-84991969D01*
X148687272Y-84991927D01*
X148688031Y-84991153D01*
X148831966Y-84847219D01*
X148831968Y-84847215D01*
X148831971Y-84847213D01*
X148884730Y-84774593D01*
X148884732Y-84774591D01*
X148908172Y-84742327D01*
X148952287Y-84681610D01*
X149045220Y-84499219D01*
X149108477Y-84304534D01*
X149140500Y-84102352D01*
X149140500Y-83897648D01*
X149108477Y-83695466D01*
X149093979Y-83650847D01*
X149045218Y-83500776D01*
X149045216Y-83500773D01*
X149045216Y-83500771D01*
X149011503Y-83434607D01*
X148986023Y-83384601D01*
X148952287Y-83318390D01*
X148944556Y-83307749D01*
X148831971Y-83152786D01*
X148687213Y-83008028D01*
X148687209Y-83008024D01*
X148521616Y-82887716D01*
X148521337Y-82887574D01*
X148515006Y-82884348D01*
X148444799Y-82848575D01*
X148415956Y-82828242D01*
X148406538Y-82819347D01*
X148371320Y-82759005D01*
X148374315Y-82689200D01*
X148410474Y-82635498D01*
X148417479Y-82629427D01*
X148442386Y-82612652D01*
X148521610Y-82572287D01*
X148562870Y-82542310D01*
X148687213Y-82451971D01*
X148687213Y-82451969D01*
X148687274Y-82451926D01*
X148688036Y-82451148D01*
X148831966Y-82307219D01*
X148831968Y-82307215D01*
X148831971Y-82307213D01*
X148884730Y-82234593D01*
X148884732Y-82234591D01*
X148908172Y-82202327D01*
X148952287Y-82141610D01*
X149045220Y-81959219D01*
X149108477Y-81764534D01*
X149140500Y-81562352D01*
X149140500Y-81357648D01*
X149108477Y-81155466D01*
X149108476Y-81155462D01*
X149108476Y-81155461D01*
X149047833Y-80968823D01*
X149045220Y-80960781D01*
X149045218Y-80960778D01*
X149045218Y-80960776D01*
X149042977Y-80956378D01*
X149042667Y-80955583D01*
X149041932Y-80954327D01*
X149011503Y-80894607D01*
X148952287Y-80778390D01*
X148944556Y-80767749D01*
X148831971Y-80612786D01*
X148687213Y-80468028D01*
X148687212Y-80468027D01*
X148687209Y-80468024D01*
X148521616Y-80347716D01*
X148521337Y-80347574D01*
X148515006Y-80344348D01*
X148444799Y-80308575D01*
X148415956Y-80288242D01*
X148406538Y-80279347D01*
X148371320Y-80219005D01*
X148374315Y-80149200D01*
X148410481Y-80095491D01*
X148417486Y-80089421D01*
X148442396Y-80072648D01*
X148521610Y-80032287D01*
X148542770Y-80016913D01*
X148687213Y-79911971D01*
X148687214Y-79911969D01*
X148687274Y-79911926D01*
X148688036Y-79911148D01*
X148831966Y-79767219D01*
X148831968Y-79767215D01*
X148831971Y-79767213D01*
X148934955Y-79625465D01*
X148952287Y-79601610D01*
X149045220Y-79419219D01*
X149108477Y-79224534D01*
X149140500Y-79022352D01*
X149140500Y-78817648D01*
X149108477Y-78615466D01*
X149108476Y-78615462D01*
X149108476Y-78615461D01*
X149047833Y-78428823D01*
X149045220Y-78420781D01*
X149045218Y-78420778D01*
X149045218Y-78420776D01*
X149042977Y-78416378D01*
X149042667Y-78415583D01*
X149041932Y-78414327D01*
X149011503Y-78354607D01*
X148952287Y-78238390D01*
X148944556Y-78227749D01*
X148831971Y-78072786D01*
X148687213Y-77928028D01*
X148521614Y-77807715D01*
X148521608Y-77807712D01*
X148521607Y-77807711D01*
X148521602Y-77807708D01*
X148496267Y-77794799D01*
X148496266Y-77794799D01*
X148444800Y-77768575D01*
X148415956Y-77748241D01*
X148406545Y-77739353D01*
X148371321Y-77679012D01*
X148374313Y-77609206D01*
X148410474Y-77555498D01*
X148417479Y-77549427D01*
X148442386Y-77532652D01*
X148521610Y-77492287D01*
X148548186Y-77472978D01*
X148583487Y-77447332D01*
X148687198Y-77371982D01*
X148687272Y-77371927D01*
X148688032Y-77371152D01*
X148831966Y-77227219D01*
X148831968Y-77227215D01*
X148831971Y-77227213D01*
X148884730Y-77154593D01*
X148884732Y-77154591D01*
X148908172Y-77122327D01*
X148952287Y-77061610D01*
X149045220Y-76879219D01*
X149108477Y-76684534D01*
X149140500Y-76482352D01*
X149140500Y-76277648D01*
X149108477Y-76075466D01*
X149108476Y-76075462D01*
X149108476Y-76075461D01*
X149047832Y-75888820D01*
X149045220Y-75880781D01*
X149045218Y-75880778D01*
X149045218Y-75880776D01*
X149042980Y-75876383D01*
X149042668Y-75875584D01*
X149041932Y-75874327D01*
X149006716Y-75805212D01*
X148987273Y-75767053D01*
X148952287Y-75698390D01*
X148944556Y-75687749D01*
X148831971Y-75532786D01*
X148687213Y-75388028D01*
X148687212Y-75388027D01*
X148687209Y-75388024D01*
X148521616Y-75267716D01*
X148521337Y-75267574D01*
X148515006Y-75264348D01*
X148444799Y-75228575D01*
X148415956Y-75208242D01*
X148406538Y-75199347D01*
X148371320Y-75139005D01*
X148374315Y-75069200D01*
X148410481Y-75015491D01*
X148417486Y-75009421D01*
X148442396Y-74992648D01*
X148521610Y-74952287D01*
X148542770Y-74936913D01*
X148687213Y-74831971D01*
X148687214Y-74831969D01*
X148687274Y-74831926D01*
X148688036Y-74831148D01*
X148831966Y-74687219D01*
X148831968Y-74687215D01*
X148831971Y-74687213D01*
X148897103Y-74597565D01*
X148952287Y-74521610D01*
X149045220Y-74339219D01*
X149108477Y-74144534D01*
X149140500Y-73942352D01*
X149140500Y-73737648D01*
X149108477Y-73535466D01*
X149092526Y-73486375D01*
X149045218Y-73340776D01*
X148990859Y-73234092D01*
X148952287Y-73158390D01*
X148941682Y-73143793D01*
X148831971Y-72992786D01*
X148687213Y-72848028D01*
X148687212Y-72848027D01*
X148687209Y-72848024D01*
X148521616Y-72727716D01*
X148521337Y-72727574D01*
X148515006Y-72724348D01*
X148444799Y-72688575D01*
X148415956Y-72668242D01*
X148406538Y-72659347D01*
X148371320Y-72599005D01*
X148374315Y-72529200D01*
X148410481Y-72475491D01*
X148417486Y-72469421D01*
X148442396Y-72452648D01*
X148521610Y-72412287D01*
X148542770Y-72396913D01*
X148687213Y-72291971D01*
X148687214Y-72291969D01*
X148687274Y-72291926D01*
X148688036Y-72291148D01*
X148831966Y-72147219D01*
X148831968Y-72147215D01*
X148831971Y-72147213D01*
X148884730Y-72074593D01*
X148884732Y-72074591D01*
X148908172Y-72042327D01*
X148952287Y-71981610D01*
X149045220Y-71799219D01*
X149108477Y-71604534D01*
X149140500Y-71402352D01*
X149140500Y-71197648D01*
X149108477Y-70995466D01*
X149045220Y-70800781D01*
X149045218Y-70800778D01*
X149045218Y-70800776D01*
X149042978Y-70796380D01*
X149042668Y-70795585D01*
X149041935Y-70794332D01*
X148973743Y-70660500D01*
X148973743Y-70660499D01*
X148962597Y-70638625D01*
X148952287Y-70618390D01*
X148952283Y-70618385D01*
X148933490Y-70592518D01*
X148933489Y-70592516D01*
X148831971Y-70452786D01*
X148687213Y-70308028D01*
X148521611Y-70187713D01*
X148521605Y-70187710D01*
X148521604Y-70187709D01*
X148444254Y-70148296D01*
X148415414Y-70127966D01*
X148406000Y-70119076D01*
X148370774Y-70058737D01*
X148373762Y-69988931D01*
X148409925Y-69935217D01*
X148416938Y-69929140D01*
X148441836Y-69912373D01*
X148521347Y-69871861D01*
X148675026Y-69760204D01*
X148682403Y-69756073D01*
X148686894Y-69751582D01*
X148686895Y-69751582D01*
X148831582Y-69606895D01*
X148831582Y-69606894D01*
X148836075Y-69602401D01*
X148840209Y-69595020D01*
X148951856Y-69441353D01*
X148951855Y-69441353D01*
X148951859Y-69441349D01*
X149044755Y-69259029D01*
X149107990Y-69064413D01*
X149116609Y-69010000D01*
X148200487Y-69010000D01*
X148133448Y-68990315D01*
X148087693Y-68937511D01*
X148077749Y-68868353D01*
X148080712Y-68853907D01*
X148090000Y-68819244D01*
X148090000Y-68700756D01*
X148080712Y-68666092D01*
X148082375Y-68596243D01*
X148121538Y-68538381D01*
X148185767Y-68510877D01*
X148200487Y-68510000D01*
X149116609Y-68510000D01*
X149107990Y-68455586D01*
X149044755Y-68260970D01*
X148951859Y-68078650D01*
X148840206Y-67924975D01*
X148836073Y-67917595D01*
X148686897Y-67768419D01*
X148686895Y-67768417D01*
X148521349Y-67648140D01*
X148480923Y-67627542D01*
X148444254Y-67608858D01*
X148415403Y-67588518D01*
X148405990Y-67579627D01*
X148370770Y-67519283D01*
X148373766Y-67449478D01*
X148409926Y-67395776D01*
X148416940Y-67389699D01*
X148441840Y-67372931D01*
X148521610Y-67332287D01*
X148542770Y-67316913D01*
X148687213Y-67211971D01*
X148687214Y-67211969D01*
X148687274Y-67211926D01*
X148688036Y-67211148D01*
X148831966Y-67067219D01*
X148831968Y-67067215D01*
X148831971Y-67067213D01*
X148884730Y-66994593D01*
X148884732Y-66994591D01*
X148908172Y-66962327D01*
X148952287Y-66901610D01*
X149045220Y-66719219D01*
X149108477Y-66524534D01*
X149140500Y-66322352D01*
X149140500Y-66117648D01*
X149108477Y-65915465D01*
X149050899Y-65738259D01*
X149050895Y-65738246D01*
X149046722Y-65725402D01*
X149045660Y-65721640D01*
X149044660Y-65719626D01*
X149042865Y-65715922D01*
X149041934Y-65714331D01*
X149011503Y-65654606D01*
X149011503Y-65654607D01*
X148952287Y-65538390D01*
X148944556Y-65527749D01*
X148831971Y-65372786D01*
X148687213Y-65228028D01*
X148687212Y-65228027D01*
X148687211Y-65228026D01*
X148532209Y-65115413D01*
X148532205Y-65115410D01*
X148521613Y-65107715D01*
X148521612Y-65107714D01*
X148521610Y-65107713D01*
X148493171Y-65093222D01*
X148464654Y-65078691D01*
X148464653Y-65078691D01*
X148339223Y-65014781D01*
X148144534Y-64951522D01*
X148144532Y-64951521D01*
X148144530Y-64951521D01*
X148144529Y-64951520D01*
X147969995Y-64923878D01*
X147953409Y-64921251D01*
X147942354Y-64919500D01*
X147942352Y-64919500D01*
X147337648Y-64919500D01*
X147337647Y-64919500D01*
X147313327Y-64923351D01*
X147313326Y-64923350D01*
X147135468Y-64951521D01*
X146940777Y-65014780D01*
X146940764Y-65014786D01*
X146758397Y-65107708D01*
X146758385Y-65107715D01*
X146592787Y-65228027D01*
X146592784Y-65228029D01*
X146448029Y-65372784D01*
X146448027Y-65372787D01*
X146327715Y-65538385D01*
X146327708Y-65538397D01*
X146234786Y-65720764D01*
X146234780Y-65720777D01*
X146171521Y-65915468D01*
X146139500Y-66117642D01*
X146139500Y-66322356D01*
X146171521Y-66524530D01*
X146234780Y-66719221D01*
X146234786Y-66719234D01*
X146327708Y-66901601D01*
X146327709Y-66901602D01*
X146327715Y-66901613D01*
X146448028Y-67067213D01*
X146592786Y-67211971D01*
X146747749Y-67324556D01*
X146758390Y-67332287D01*
X146830424Y-67368990D01*
X146832210Y-67369900D01*
X146835740Y-67371699D01*
X146864587Y-67392034D01*
X146873712Y-67400652D01*
X146874003Y-67400926D01*
X146909226Y-67461268D01*
X146906234Y-67531074D01*
X146870066Y-67584788D01*
X146863061Y-67590858D01*
X146838153Y-67607630D01*
X146758651Y-67648138D01*
X146604978Y-67759790D01*
X146597597Y-67763923D01*
X146443923Y-67917597D01*
X146439790Y-67924978D01*
X146328140Y-68078649D01*
X146235245Y-68260965D01*
X146172010Y-68455581D01*
X146172008Y-68455587D01*
X146163391Y-68510000D01*
X147079513Y-68510000D01*
X147146552Y-68529685D01*
X147192307Y-68582489D01*
X147202251Y-68651647D01*
X147199288Y-68666093D01*
X147190000Y-68700756D01*
X147190000Y-68819243D01*
X147199288Y-68853907D01*
X147197625Y-68923757D01*
X147158462Y-68981619D01*
X147094233Y-69009123D01*
X147079513Y-69010000D01*
X146163391Y-69010000D01*
X146172008Y-69064413D01*
X146235245Y-69259033D01*
X146328140Y-69441349D01*
X146439790Y-69595020D01*
X146443924Y-69602402D01*
X146448417Y-69606895D01*
X146593104Y-69751582D01*
X146758652Y-69871861D01*
X146835748Y-69911142D01*
X146864590Y-69931476D01*
X146874008Y-69940370D01*
X146909227Y-70000713D01*
X146906232Y-70070519D01*
X146870067Y-70124226D01*
X146863061Y-70130297D01*
X146838152Y-70147070D01*
X146758394Y-70187709D01*
X146758389Y-70187712D01*
X146758388Y-70187713D01*
X146735829Y-70204103D01*
X146592783Y-70308030D01*
X146448029Y-70452784D01*
X146448027Y-70452787D01*
X146327715Y-70618385D01*
X146327713Y-70618389D01*
X146234786Y-70800764D01*
X146234780Y-70800777D01*
X146171521Y-70995468D01*
X146139500Y-71197642D01*
X146139500Y-71402356D01*
X146171521Y-71604530D01*
X146234780Y-71799221D01*
X146234786Y-71799234D01*
X146327708Y-71981601D01*
X146327709Y-71981602D01*
X146327715Y-71981613D01*
X146448028Y-72147213D01*
X146592786Y-72291971D01*
X146747749Y-72404556D01*
X146758390Y-72412287D01*
X146836878Y-72452278D01*
X146838506Y-72453171D01*
X146840463Y-72455134D01*
X146864045Y-72471760D01*
X146873459Y-72480652D01*
X146884146Y-72498963D01*
X146887829Y-72502658D01*
X146888724Y-72506806D01*
X146908679Y-72540996D01*
X146905683Y-72610801D01*
X146869521Y-72664505D01*
X146862519Y-72670573D01*
X146837606Y-72687350D01*
X146758387Y-72727714D01*
X146758385Y-72727715D01*
X146592787Y-72848027D01*
X146592784Y-72848029D01*
X146448029Y-72992784D01*
X146448027Y-72992787D01*
X146327715Y-73158385D01*
X146327708Y-73158397D01*
X146234786Y-73340764D01*
X146234780Y-73340777D01*
X146171521Y-73535468D01*
X146139500Y-73737642D01*
X146139500Y-73737648D01*
X146139500Y-73942351D01*
X146171523Y-74144535D01*
X146171523Y-74144538D01*
X146220031Y-74293830D01*
X146220327Y-74294793D01*
X146220347Y-74296525D01*
X146225728Y-74327615D01*
X146226216Y-74344681D01*
X146209799Y-74409965D01*
X146203171Y-74421508D01*
X146183319Y-74447443D01*
X144824788Y-75805975D01*
X144796538Y-75827124D01*
X144786611Y-75832545D01*
X144718338Y-75847399D01*
X144652873Y-75822985D01*
X144611000Y-75767053D01*
X144608313Y-75759847D01*
X144600500Y-75716527D01*
X144600500Y-65740651D01*
X144600501Y-65740600D01*
X144600501Y-65570145D01*
X144600501Y-65570143D01*
X144559577Y-65417415D01*
X144530639Y-65367295D01*
X144480520Y-65280484D01*
X144368716Y-65168680D01*
X144368715Y-65168679D01*
X144364385Y-65164349D01*
X144363363Y-65163327D01*
X144363320Y-65163285D01*
X143056993Y-63856958D01*
X143035841Y-63828702D01*
X143028349Y-63814981D01*
X143013497Y-63746721D01*
X143013626Y-63744912D01*
X143032997Y-63686709D01*
X143037177Y-63680205D01*
X143053805Y-63659569D01*
X143129358Y-63584018D01*
X143241586Y-63416056D01*
X143318891Y-63229427D01*
X143358300Y-63031303D01*
X143358300Y-62829297D01*
X143318891Y-62631173D01*
X143241968Y-62445466D01*
X143241587Y-62444546D01*
X143239493Y-62441412D01*
X143197798Y-62379012D01*
X143182568Y-62347179D01*
X143177897Y-62332263D01*
X143176647Y-62262409D01*
X143180252Y-62249264D01*
X143196728Y-62213189D01*
X143241586Y-62146056D01*
X143318891Y-61959427D01*
X143358300Y-61761303D01*
X143358300Y-61559297D01*
X143318891Y-61361173D01*
X143292073Y-61296432D01*
X143283346Y-61262238D01*
X143281292Y-61243139D01*
X143290886Y-61180389D01*
X143297392Y-61165444D01*
X143297391Y-61165443D01*
X143297691Y-61164757D01*
X143300685Y-61158638D01*
X143301150Y-61157391D01*
X143301152Y-61157389D01*
X143301518Y-61156407D01*
X143304002Y-61150255D01*
X143309017Y-61138733D01*
X143309016Y-61138702D01*
X143313256Y-61124935D01*
X143351397Y-61022676D01*
X143351398Y-61022672D01*
X143356425Y-60975921D01*
X143357798Y-60963157D01*
X143357800Y-60963127D01*
X143357800Y-60640300D01*
X142590641Y-60640300D01*
X142523602Y-60620615D01*
X142477847Y-60567811D01*
X142467903Y-60498653D01*
X142470866Y-60484207D01*
X142482800Y-60439670D01*
X142482800Y-60340930D01*
X142470866Y-60296392D01*
X142472529Y-60226544D01*
X142511692Y-60168681D01*
X142575920Y-60141177D01*
X142590641Y-60140300D01*
X143357800Y-60140300D01*
X143357800Y-59817472D01*
X143357798Y-59817438D01*
X143351398Y-59757928D01*
X143351396Y-59757921D01*
X143344626Y-59739769D01*
X143301154Y-59623213D01*
X143301150Y-59623206D01*
X143231325Y-59529933D01*
X143214991Y-59508113D01*
X143214985Y-59508107D01*
X143157117Y-59464787D01*
X143099893Y-59421949D01*
X143099886Y-59421945D01*
X143032532Y-59396824D01*
X142965177Y-59371702D01*
X142965170Y-59371700D01*
X142905652Y-59365300D01*
X142905644Y-59365300D01*
X142357800Y-59365300D01*
X142357800Y-59907459D01*
X142338115Y-59974498D01*
X142285311Y-60020253D01*
X142216153Y-60030197D01*
X142201709Y-60027234D01*
X142157170Y-60015300D01*
X142157169Y-60015300D01*
X142058430Y-60015300D01*
X142013892Y-60027233D01*
X141944044Y-60025571D01*
X141886181Y-59986408D01*
X141858677Y-59922180D01*
X141857800Y-59907459D01*
X141857800Y-59365300D01*
X141309955Y-59365300D01*
X141309946Y-59365300D01*
X141250428Y-59371700D01*
X141250421Y-59371702D01*
X141115710Y-59421946D01*
X141115707Y-59421948D01*
X141000613Y-59508107D01*
X141000607Y-59508113D01*
X140914448Y-59623207D01*
X140914446Y-59623210D01*
X140864202Y-59757921D01*
X140864200Y-59757928D01*
X140857800Y-59817446D01*
X140857800Y-59817455D01*
X140857800Y-60140300D01*
X141624959Y-60140300D01*
X141691998Y-60159985D01*
X141737753Y-60212789D01*
X141747697Y-60281947D01*
X141744734Y-60296390D01*
X141732800Y-60340930D01*
X141732800Y-60439670D01*
X141737880Y-60458629D01*
X141744734Y-60484207D01*
X141743071Y-60554056D01*
X141703908Y-60611919D01*
X141639680Y-60639423D01*
X141624959Y-60640300D01*
X140857800Y-60640300D01*
X140857800Y-60908664D01*
X140852775Y-60943608D01*
X140848370Y-60958606D01*
X140810603Y-61017371D01*
X140800311Y-61026290D01*
X140766556Y-61047142D01*
X140747322Y-61055109D01*
X140747320Y-61055110D01*
X140677979Y-61083830D01*
X140677961Y-61083841D01*
X140571429Y-61155023D01*
X140571416Y-61155035D01*
X139594725Y-62131726D01*
X139543651Y-62208166D01*
X139543650Y-62208166D01*
X139523536Y-62238268D01*
X139523532Y-62238275D01*
X139474502Y-62356645D01*
X139474495Y-62356665D01*
X139474493Y-62356673D01*
X139449500Y-62482323D01*
X139449500Y-67517670D01*
X139444475Y-67552614D01*
X139440070Y-67567612D01*
X139402327Y-67626355D01*
X139400958Y-67627542D01*
X139346097Y-67655018D01*
X139338539Y-67656663D01*
X139312168Y-67659500D01*
X139052130Y-67659500D01*
X139052128Y-67659500D01*
X139051423Y-67659550D01*
X139049979Y-67659731D01*
X138992516Y-67665907D01*
X138857666Y-67716204D01*
X138857665Y-67716205D01*
X138742456Y-67802450D01*
X138742450Y-67802456D01*
X138656205Y-67917665D01*
X138656203Y-67917668D01*
X138605907Y-68052517D01*
X138603127Y-68078389D01*
X138599500Y-68112128D01*
X138599500Y-68112129D01*
X138599500Y-68112135D01*
X138599500Y-70207870D01*
X138599501Y-70207876D01*
X138605908Y-70267483D01*
X138646105Y-70375256D01*
X138647592Y-70380717D01*
X138647498Y-70385447D01*
X138651632Y-70404449D01*
X138653637Y-70432481D01*
X138646135Y-70484661D01*
X138605908Y-70592515D01*
X138605907Y-70592517D01*
X138603127Y-70618389D01*
X138599500Y-70652128D01*
X138599500Y-72747876D01*
X138599659Y-72749806D01*
X138599885Y-72751454D01*
X138605907Y-72807482D01*
X138633690Y-72881971D01*
X138656202Y-72942328D01*
X138656203Y-72942330D01*
X138656204Y-72942332D01*
X138656205Y-72942333D01*
X138742450Y-73057542D01*
X138742452Y-73057544D01*
X138742455Y-73057547D01*
X138857664Y-73143793D01*
X138857666Y-73143794D01*
X138857670Y-73143797D01*
X138857838Y-73143902D01*
X138866422Y-73149782D01*
X138884561Y-73163360D01*
X138926434Y-73219293D01*
X138931420Y-73288984D01*
X138931419Y-73288987D01*
X138930444Y-73293469D01*
X138896959Y-73354792D01*
X135744926Y-76506824D01*
X135744465Y-76507415D01*
X135743252Y-76509330D01*
X135674828Y-76611735D01*
X135674827Y-76611738D01*
X135674796Y-76611785D01*
X135674093Y-76612837D01*
X135673733Y-76613375D01*
X135624702Y-76731745D01*
X135624695Y-76731765D01*
X135624693Y-76731773D01*
X135599700Y-76857423D01*
X135599700Y-84982353D01*
X135594675Y-85017297D01*
X135590270Y-85032295D01*
X135552503Y-85091060D01*
X135542211Y-85099979D01*
X135508459Y-85120830D01*
X135496468Y-85125796D01*
X135496452Y-85125804D01*
X135303436Y-85237245D01*
X135303425Y-85237252D01*
X135303412Y-85237261D01*
X135303410Y-85237262D01*
X135126595Y-85372936D01*
X135126579Y-85372949D01*
X135126569Y-85372958D01*
X135126561Y-85372965D01*
X134968965Y-85530561D01*
X134968958Y-85530569D01*
X134968949Y-85530579D01*
X134968936Y-85530595D01*
X134833262Y-85707410D01*
X134833261Y-85707412D01*
X134833244Y-85707437D01*
X134721795Y-85900472D01*
X134636497Y-86106399D01*
X134636488Y-86106422D01*
X134596301Y-86256408D01*
X134578795Y-86321741D01*
X134578792Y-86321756D01*
X134549703Y-86542716D01*
X134549700Y-86542741D01*
X131930952Y-86542741D01*
X131921604Y-86471737D01*
X131863910Y-86256419D01*
X131863906Y-86256409D01*
X131863906Y-86256408D01*
X131842648Y-86205088D01*
X131801774Y-86106409D01*
X131780285Y-86054532D01*
X131779583Y-86052649D01*
X131778614Y-86050497D01*
X131778606Y-86050477D01*
X131778605Y-86050474D01*
X131667148Y-85857426D01*
X131531447Y-85680576D01*
X131531442Y-85680570D01*
X131373829Y-85522957D01*
X131373822Y-85522951D01*
X131373812Y-85522943D01*
X131373803Y-85522936D01*
X131198954Y-85388771D01*
X131198951Y-85388769D01*
X131196705Y-85387045D01*
X131195686Y-85386433D01*
X131193789Y-85385412D01*
X131003926Y-85275795D01*
X131003922Y-85275793D01*
X130802029Y-85192166D01*
X130797987Y-85190491D01*
X130583676Y-85133067D01*
X130583672Y-85133066D01*
X130582663Y-85132796D01*
X130582657Y-85132795D01*
X130582652Y-85132794D01*
X130363459Y-85103937D01*
X130363455Y-85103935D01*
X130361854Y-85103700D01*
X130361663Y-85103700D01*
X130361657Y-85103700D01*
X130138743Y-85103700D01*
X130138737Y-85103700D01*
X130138735Y-85103700D01*
X130133239Y-85104376D01*
X130132516Y-85104516D01*
X130131996Y-85104587D01*
X129917747Y-85132794D01*
X129917740Y-85132795D01*
X129917737Y-85132796D01*
X129906700Y-85135753D01*
X129906695Y-85135754D01*
X129795628Y-85165515D01*
X129748962Y-85178019D01*
X129702422Y-85190488D01*
X129702399Y-85190497D01*
X129496472Y-85275795D01*
X129303437Y-85387244D01*
X129303412Y-85387261D01*
X129303410Y-85387262D01*
X129126595Y-85522936D01*
X129126579Y-85522949D01*
X129126569Y-85522958D01*
X129126561Y-85522965D01*
X128968965Y-85680561D01*
X128968958Y-85680569D01*
X128968949Y-85680579D01*
X128968936Y-85680595D01*
X128833262Y-85857410D01*
X128833261Y-85857412D01*
X128833244Y-85857437D01*
X128721795Y-86050472D01*
X128636497Y-86256399D01*
X128636488Y-86256422D01*
X128589489Y-86431831D01*
X128578798Y-86471728D01*
X128578793Y-86471750D01*
X128578792Y-86471756D01*
X128549703Y-86692716D01*
X128549700Y-86692741D01*
X125950200Y-86692741D01*
X125950200Y-86652775D01*
X125921114Y-86431845D01*
X125921111Y-86431832D01*
X125915036Y-86409161D01*
X125891611Y-86321734D01*
X125863436Y-86216581D01*
X125778154Y-86010697D01*
X125778149Y-86010685D01*
X125666733Y-85817707D01*
X125666732Y-85817705D01*
X125616157Y-85751795D01*
X125616156Y-85751795D01*
X125616155Y-85751795D01*
X125616154Y-85751795D01*
X124933106Y-86434843D01*
X124871783Y-86468328D01*
X124802091Y-86463344D01*
X124746158Y-86421472D01*
X124738038Y-86409161D01*
X124730322Y-86395798D01*
X124730319Y-86395792D01*
X124618608Y-86284081D01*
X124611786Y-86280142D01*
X124605232Y-86276358D01*
X124557017Y-86225790D01*
X124543796Y-86157183D01*
X124569765Y-86092318D01*
X124579543Y-86081301D01*
X125262603Y-85398243D01*
X125262603Y-85398240D01*
X125262311Y-85398016D01*
X125196711Y-85347678D01*
X125196694Y-85347666D01*
X125196687Y-85347662D01*
X125005449Y-85237252D01*
X125003727Y-85236258D01*
X125003708Y-85236247D01*
X124893259Y-85190497D01*
X124797818Y-85150963D01*
X124797811Y-85150961D01*
X124582582Y-85093291D01*
X124582567Y-85093288D01*
X124582554Y-85093285D01*
X124582550Y-85093284D01*
X124582544Y-85093283D01*
X124361626Y-85064200D01*
X124361625Y-85064200D01*
X124138775Y-85064200D01*
X124138774Y-85064200D01*
X123917854Y-85093283D01*
X123917841Y-85093286D01*
X123917816Y-85093291D01*
X123702587Y-85150961D01*
X123702583Y-85150962D01*
X123702581Y-85150963D01*
X123702579Y-85150964D01*
X123496690Y-85236247D01*
X123496671Y-85236258D01*
X123303708Y-85347663D01*
X123237795Y-85398240D01*
X123237795Y-85398243D01*
X123920845Y-86081292D01*
X123954330Y-86142615D01*
X123949346Y-86212306D01*
X123907474Y-86268240D01*
X123895167Y-86276359D01*
X123881792Y-86284081D01*
X123881789Y-86284083D01*
X123770083Y-86395789D01*
X123770081Y-86395792D01*
X123762359Y-86409167D01*
X123711790Y-86457381D01*
X123643183Y-86470602D01*
X123578319Y-86444633D01*
X123567292Y-86434845D01*
X122884243Y-85751795D01*
X122884240Y-85751795D01*
X122833663Y-85817708D01*
X122722258Y-86010671D01*
X122722247Y-86010690D01*
X122636964Y-86216579D01*
X122636961Y-86216587D01*
X122579291Y-86431816D01*
X122579288Y-86431831D01*
X122579283Y-86431854D01*
X122550200Y-86652774D01*
X114000000Y-86652774D01*
X114000000Y-82112115D01*
X115599500Y-82112115D01*
X115599500Y-84207876D01*
X115599659Y-84209806D01*
X115599885Y-84211454D01*
X115605907Y-84267482D01*
X115619727Y-84304534D01*
X115656202Y-84402328D01*
X115656203Y-84402330D01*
X115656204Y-84402332D01*
X115656205Y-84402333D01*
X115742450Y-84517542D01*
X115742452Y-84517544D01*
X115742455Y-84517547D01*
X115857664Y-84603793D01*
X115857671Y-84603797D01*
X115992517Y-84654091D01*
X115992516Y-84654091D01*
X115999444Y-84654835D01*
X116052127Y-84660500D01*
X118147872Y-84660499D01*
X118207483Y-84654091D01*
X118342331Y-84603796D01*
X118457546Y-84517546D01*
X118543796Y-84402331D01*
X118594091Y-84267483D01*
X118600500Y-84207873D01*
X118600499Y-82112128D01*
X118594103Y-82052627D01*
X118594091Y-82052516D01*
X118543797Y-81917671D01*
X118543793Y-81917664D01*
X118457547Y-81802455D01*
X118457544Y-81802452D01*
X118457542Y-81802450D01*
X118399616Y-81759086D01*
X118342335Y-81716206D01*
X118342332Y-81716204D01*
X118342330Y-81716203D01*
X118342328Y-81716202D01*
X118207482Y-81665908D01*
X118207483Y-81665908D01*
X118147883Y-81659501D01*
X118147881Y-81659500D01*
X118147873Y-81659500D01*
X118147864Y-81659500D01*
X118146841Y-81659500D01*
X116052123Y-81659500D01*
X116050192Y-81659659D01*
X116048545Y-81659885D01*
X115992516Y-81665908D01*
X115857666Y-81716204D01*
X115857665Y-81716205D01*
X115742456Y-81802450D01*
X115742450Y-81802456D01*
X115656205Y-81917665D01*
X115656203Y-81917668D01*
X115605908Y-82052516D01*
X115599500Y-82112115D01*
X114000000Y-82112115D01*
X114000000Y-68112128D01*
X115599500Y-68112128D01*
X115599500Y-70207876D01*
X115599659Y-70209806D01*
X115599885Y-70211454D01*
X115605907Y-70267482D01*
X115633690Y-70341971D01*
X115656202Y-70402328D01*
X115656206Y-70402335D01*
X115693972Y-70452783D01*
X115742450Y-70517542D01*
X115742452Y-70517544D01*
X115742455Y-70517547D01*
X115857664Y-70603793D01*
X115857671Y-70603797D01*
X115992517Y-70654091D01*
X115992516Y-70654091D01*
X115999444Y-70654835D01*
X116052127Y-70660500D01*
X118147872Y-70660499D01*
X118207483Y-70654091D01*
X118342331Y-70603796D01*
X118457546Y-70517546D01*
X118543796Y-70402331D01*
X118594091Y-70267483D01*
X118600500Y-70207873D01*
X118600499Y-68112128D01*
X118594091Y-68052517D01*
X118543796Y-67917669D01*
X118543795Y-67917668D01*
X118543793Y-67917664D01*
X118543782Y-67917649D01*
X118541392Y-67913929D01*
X118541391Y-67913928D01*
X118538489Y-67910579D01*
X118457547Y-67802455D01*
X118457544Y-67802452D01*
X118457542Y-67802450D01*
X118399616Y-67759086D01*
X118342335Y-67716206D01*
X118342332Y-67716204D01*
X118342330Y-67716203D01*
X118342328Y-67716202D01*
X118207482Y-67665908D01*
X118207483Y-67665908D01*
X118147883Y-67659501D01*
X118147881Y-67659500D01*
X118147873Y-67659500D01*
X118147864Y-67659500D01*
X118146841Y-67659500D01*
X116052123Y-67659500D01*
X116050192Y-67659659D01*
X116048545Y-67659885D01*
X115992516Y-67665908D01*
X115857666Y-67716204D01*
X115857665Y-67716205D01*
X115742456Y-67802450D01*
X115742450Y-67802456D01*
X115656205Y-67917665D01*
X115656203Y-67917668D01*
X115605907Y-68052517D01*
X115603127Y-68078389D01*
X115599500Y-68112128D01*
X114000000Y-68112128D01*
X114000000Y-60618183D01*
X117237000Y-60618183D01*
X117237000Y-61418201D01*
X117237001Y-61418219D01*
X117237025Y-61418454D01*
X117237025Y-61418457D01*
X117238342Y-61431344D01*
X117247500Y-61520996D01*
X117247501Y-61520999D01*
X117272384Y-61596089D01*
X117302686Y-61687534D01*
X117348187Y-61761304D01*
X117394789Y-61836857D01*
X117518844Y-61960912D01*
X117567868Y-61991150D01*
X117594964Y-62013764D01*
X117604244Y-62024081D01*
X117634442Y-62087087D01*
X117625784Y-62156413D01*
X117621992Y-62165142D01*
X117595942Y-62203416D01*
X117498084Y-62301274D01*
X117396268Y-62441410D01*
X117317629Y-62595749D01*
X117264096Y-62760505D01*
X117237000Y-62931583D01*
X117237000Y-63104814D01*
X117260438Y-63252797D01*
X117264096Y-63275894D01*
X117264097Y-63275897D01*
X117264098Y-63275901D01*
X117317627Y-63440645D01*
X117396268Y-63594988D01*
X117498086Y-63735128D01*
X117620572Y-63857614D01*
X117760712Y-63959432D01*
X117915055Y-64038073D01*
X118079799Y-64091602D01*
X118250889Y-64118700D01*
X118250890Y-64118700D01*
X118974110Y-64118700D01*
X118974111Y-64118700D01*
X119145201Y-64091602D01*
X119309945Y-64038073D01*
X119464288Y-63959432D01*
X119604428Y-63857614D01*
X119726914Y-63735128D01*
X119828732Y-63594988D01*
X119907373Y-63440645D01*
X119960902Y-63275901D01*
X119988000Y-63104811D01*
X119988000Y-62931589D01*
X119960902Y-62760499D01*
X119907373Y-62595755D01*
X119828732Y-62441412D01*
X119726914Y-62301272D01*
X119631979Y-62206337D01*
X119610830Y-62178087D01*
X119604175Y-62165899D01*
X119589324Y-62097629D01*
X119613738Y-62032168D01*
X119619446Y-62024543D01*
X119653611Y-61993321D01*
X119706156Y-61960912D01*
X119830212Y-61836856D01*
X119922314Y-61687534D01*
X119977499Y-61520997D01*
X119988000Y-61418209D01*
X119987999Y-60618192D01*
X119981940Y-60558882D01*
X119977499Y-60515403D01*
X119977497Y-60515396D01*
X119954605Y-60446314D01*
X119922314Y-60348866D01*
X119830212Y-60199544D01*
X119706156Y-60075488D01*
X119706155Y-60075487D01*
X119608575Y-60015300D01*
X119608574Y-60015299D01*
X119608573Y-60015299D01*
X119574657Y-59994379D01*
X119574654Y-59994377D01*
X119574653Y-59994376D01*
X119574652Y-59994376D01*
X119556848Y-59983393D01*
X119556844Y-59983391D01*
X119556839Y-59983388D01*
X119556836Y-59983387D01*
X119556834Y-59983386D01*
X119398765Y-59931007D01*
X119395945Y-59929841D01*
X119390292Y-59928199D01*
X119287519Y-59917700D01*
X119287510Y-59917700D01*
X117937498Y-59917700D01*
X117937481Y-59917701D01*
X117927506Y-59918720D01*
X117834698Y-59928200D01*
X117834693Y-59928201D01*
X117834532Y-59928256D01*
X117668167Y-59983385D01*
X117668165Y-59983386D01*
X117668163Y-59983387D01*
X117616424Y-60015300D01*
X117518840Y-60075490D01*
X117394790Y-60199540D01*
X117302687Y-60348862D01*
X117302687Y-60348863D01*
X117302686Y-60348866D01*
X117270026Y-60447427D01*
X117257800Y-60484323D01*
X117249352Y-60497269D01*
X117247865Y-60511830D01*
X117247440Y-60515054D01*
X117247427Y-60516110D01*
X117237000Y-60618183D01*
X114000000Y-60618183D01*
X114000000Y-59893709D01*
X122999500Y-59893709D01*
X122999500Y-60106291D01*
X123005328Y-60143086D01*
X123009381Y-60168681D01*
X123009534Y-60169643D01*
X123009534Y-60169644D01*
X123030600Y-60302655D01*
X123030601Y-60302655D01*
X123032754Y-60316244D01*
X123061396Y-60404394D01*
X123097465Y-60515403D01*
X123098444Y-60518414D01*
X123194951Y-60707820D01*
X123319890Y-60879786D01*
X123319892Y-60879788D01*
X123446097Y-61005993D01*
X123467248Y-61034246D01*
X123473900Y-61046428D01*
X123488752Y-61114701D01*
X123464336Y-61180166D01*
X123464331Y-61180173D01*
X123458629Y-61187789D01*
X123424463Y-61219010D01*
X123281345Y-61307286D01*
X123281341Y-61307289D01*
X123157290Y-61431340D01*
X123136860Y-61464462D01*
X123078367Y-61559296D01*
X123065185Y-61580667D01*
X123065178Y-61580685D01*
X123060691Y-61594229D01*
X123060075Y-61596089D01*
X123055398Y-61610203D01*
X123020299Y-61716123D01*
X123011852Y-61729067D01*
X123010365Y-61743630D01*
X123009542Y-61749881D01*
X123009359Y-61753476D01*
X122999500Y-61849973D01*
X122999500Y-61849981D01*
X122999500Y-61849983D01*
X122999500Y-63150001D01*
X122999501Y-63150018D01*
X122999502Y-63150026D01*
X123010000Y-63252796D01*
X123010003Y-63252804D01*
X123010070Y-63253007D01*
X123065182Y-63419322D01*
X123065186Y-63419335D01*
X123072758Y-63431611D01*
X123078917Y-63441596D01*
X123157288Y-63568656D01*
X123281344Y-63692712D01*
X123430666Y-63784814D01*
X123597203Y-63839999D01*
X123699991Y-63850500D01*
X125300008Y-63850499D01*
X125402797Y-63839999D01*
X125569334Y-63784814D01*
X125718656Y-63692712D01*
X125842712Y-63568656D01*
X125934814Y-63419334D01*
X125989999Y-63252797D01*
X126000500Y-63150009D01*
X126000499Y-62647642D01*
X129199500Y-62647642D01*
X129199500Y-62852356D01*
X129227843Y-63031307D01*
X129231522Y-63054534D01*
X129288346Y-63229419D01*
X129294782Y-63249225D01*
X129358691Y-63374653D01*
X129358690Y-63374653D01*
X129382525Y-63421429D01*
X129382526Y-63421431D01*
X129387712Y-63431609D01*
X129508026Y-63597211D01*
X129508027Y-63597212D01*
X129508028Y-63597213D01*
X129652786Y-63741971D01*
X129787713Y-63839999D01*
X129818390Y-63862287D01*
X129934607Y-63921503D01*
X129992617Y-63951061D01*
X129994327Y-63951932D01*
X129994326Y-63951932D01*
X130001649Y-63955663D01*
X130005401Y-63956721D01*
X130057386Y-63973612D01*
X130195465Y-64018477D01*
X130242433Y-64025916D01*
X130397648Y-64050500D01*
X130397649Y-64050500D01*
X130602351Y-64050500D01*
X130602352Y-64050500D01*
X130804534Y-64018477D01*
X130999219Y-63955220D01*
X131181610Y-63862287D01*
X131246722Y-63814981D01*
X131290703Y-63783028D01*
X131340675Y-63746721D01*
X131347213Y-63741971D01*
X131347213Y-63741969D01*
X131347273Y-63741926D01*
X131348032Y-63741152D01*
X131491966Y-63597219D01*
X131491968Y-63597215D01*
X131491971Y-63597213D01*
X131569634Y-63490317D01*
X131612287Y-63431610D01*
X131705220Y-63249219D01*
X131768477Y-63054534D01*
X131800500Y-62852352D01*
X131800500Y-62647648D01*
X131774316Y-62482331D01*
X131768477Y-62445465D01*
X131742069Y-62364191D01*
X131705220Y-62250781D01*
X131705218Y-62250778D01*
X131705214Y-62250766D01*
X131705053Y-62250452D01*
X131675230Y-62191922D01*
X131675230Y-62191923D01*
X131671959Y-62185503D01*
X131648149Y-62138773D01*
X134690200Y-62138773D01*
X134690200Y-62138783D01*
X134690200Y-63338801D01*
X134690201Y-63338818D01*
X134700700Y-63441596D01*
X134700701Y-63441599D01*
X134747893Y-63584013D01*
X134755886Y-63608134D01*
X134847988Y-63757456D01*
X134972044Y-63881512D01*
X135121366Y-63973614D01*
X135287903Y-64028799D01*
X135390691Y-64039300D01*
X136590708Y-64039299D01*
X136693497Y-64028799D01*
X136860034Y-63973614D01*
X137009356Y-63881512D01*
X137133412Y-63757456D01*
X137225514Y-63608134D01*
X137280699Y-63441597D01*
X137291200Y-63338809D01*
X137291199Y-62138792D01*
X137290477Y-62131728D01*
X137280699Y-62036003D01*
X137280698Y-62036000D01*
X137255816Y-61960912D01*
X137225514Y-61869466D01*
X137133412Y-61720144D01*
X137009356Y-61596088D01*
X136887617Y-61520999D01*
X136860036Y-61503987D01*
X136860035Y-61503986D01*
X136860034Y-61503986D01*
X136834793Y-61495621D01*
X136834787Y-61495619D01*
X136815181Y-61489123D01*
X136783593Y-61473361D01*
X136779762Y-61470709D01*
X136770741Y-61464462D01*
X136726839Y-61410128D01*
X136724794Y-61405209D01*
X136723632Y-61402414D01*
X136714511Y-61345082D01*
X136716621Y-61318273D01*
X136173644Y-60775297D01*
X136140160Y-60713975D01*
X136145144Y-60644284D01*
X136187015Y-60588350D01*
X136199318Y-60580234D01*
X136236306Y-60558880D01*
X136310780Y-60484406D01*
X136332130Y-60447425D01*
X136382695Y-60399211D01*
X136451302Y-60385987D01*
X136516167Y-60411954D01*
X136527198Y-60421745D01*
X137070173Y-60964720D01*
X137070174Y-60964721D01*
X137102559Y-60920149D01*
X137195455Y-60737831D01*
X137258690Y-60543217D01*
X137290700Y-60341117D01*
X137290700Y-60136482D01*
X137271506Y-60015299D01*
X137260216Y-59944020D01*
X137260215Y-59944014D01*
X137260215Y-59944015D01*
X137258688Y-59934374D01*
X137232075Y-59852469D01*
X137195455Y-59739768D01*
X137102559Y-59557450D01*
X137093855Y-59545471D01*
X137084315Y-59518733D01*
X137070173Y-59512875D01*
X136527197Y-60055853D01*
X136465874Y-60089338D01*
X136396183Y-60084354D01*
X136340249Y-60042483D01*
X136332130Y-60030174D01*
X136310780Y-59993194D01*
X136236306Y-59918720D01*
X136199325Y-59897369D01*
X136151110Y-59846803D01*
X136137886Y-59778196D01*
X136163854Y-59713331D01*
X136173636Y-59702309D01*
X136716622Y-59159324D01*
X136716621Y-59159323D01*
X136716620Y-59159322D01*
X136716619Y-59159321D01*
X136716614Y-59159317D01*
X136672060Y-59126947D01*
X136672057Y-59126944D01*
X136606898Y-59093744D01*
X136489731Y-59034044D01*
X136295117Y-58970809D01*
X136295111Y-58970808D01*
X136093022Y-58938800D01*
X136093017Y-58938800D01*
X135888383Y-58938800D01*
X135888378Y-58938800D01*
X135686287Y-58970808D01*
X135686285Y-58970808D01*
X135686282Y-58970809D01*
X135588975Y-59002426D01*
X135491663Y-59034045D01*
X135309340Y-59126945D01*
X135264777Y-59159322D01*
X135264777Y-59159323D01*
X135264777Y-59159324D01*
X135587041Y-59481588D01*
X135807755Y-59702301D01*
X135841240Y-59763624D01*
X135836256Y-59833315D01*
X135794385Y-59889249D01*
X135782074Y-59897369D01*
X135745097Y-59918717D01*
X135745092Y-59918721D01*
X135670621Y-59993192D01*
X135670615Y-59993200D01*
X135649268Y-60030174D01*
X135598701Y-60078389D01*
X135530093Y-60091611D01*
X135465229Y-60065643D01*
X135454201Y-60055854D01*
X134911224Y-59512877D01*
X134911223Y-59512877D01*
X134911222Y-59512877D01*
X134878845Y-59557440D01*
X134785945Y-59739763D01*
X134760696Y-59817472D01*
X134722709Y-59934382D01*
X134722708Y-59934385D01*
X134722708Y-59934387D01*
X134690700Y-60136476D01*
X134690700Y-60341122D01*
X134715651Y-60498653D01*
X134722709Y-60543217D01*
X134785944Y-60737831D01*
X134845644Y-60854998D01*
X134878844Y-60920157D01*
X134878847Y-60920160D01*
X134911217Y-60964714D01*
X134911221Y-60964719D01*
X134911223Y-60964721D01*
X134911224Y-60964722D01*
X135454203Y-60421742D01*
X135515524Y-60388259D01*
X135585215Y-60393243D01*
X135641149Y-60435114D01*
X135649267Y-60447422D01*
X135670620Y-60484406D01*
X135745094Y-60558880D01*
X135745095Y-60558881D01*
X135745097Y-60558882D01*
X135782073Y-60580230D01*
X135830288Y-60630796D01*
X135843512Y-60699403D01*
X135817544Y-60764268D01*
X135807754Y-60775298D01*
X135264775Y-61318274D01*
X135264775Y-61318275D01*
X135266352Y-61338310D01*
X135264085Y-61373530D01*
X135260872Y-61388825D01*
X135227831Y-61450381D01*
X135221968Y-61456329D01*
X135172665Y-61486986D01*
X135121364Y-61503986D01*
X134972040Y-61596090D01*
X134847990Y-61720140D01*
X134755887Y-61869462D01*
X134755887Y-61869463D01*
X134755886Y-61869466D01*
X134744844Y-61902789D01*
X134711750Y-62002657D01*
X134711744Y-62002675D01*
X134700701Y-62036003D01*
X134700701Y-62036004D01*
X134700700Y-62036004D01*
X134699930Y-62043535D01*
X134699929Y-62043541D01*
X134690200Y-62138773D01*
X131648149Y-62138773D01*
X131612418Y-62068648D01*
X131612296Y-62068406D01*
X131612285Y-62068387D01*
X131612284Y-62068385D01*
X131612283Y-62068383D01*
X131612278Y-62068375D01*
X131491974Y-61902789D01*
X131347215Y-61758030D01*
X131347213Y-61758028D01*
X131236811Y-61677818D01*
X131181610Y-61637712D01*
X131162082Y-61627762D01*
X131143504Y-61618296D01*
X131114656Y-61597958D01*
X131105242Y-61589066D01*
X131070022Y-61528722D01*
X131073018Y-61458917D01*
X131109181Y-61405213D01*
X131116200Y-61399131D01*
X131141091Y-61382370D01*
X131181349Y-61361859D01*
X131225921Y-61329474D01*
X130682945Y-60786498D01*
X130649460Y-60725175D01*
X130654444Y-60655483D01*
X130696316Y-60599550D01*
X130708618Y-60591434D01*
X130745606Y-60570080D01*
X130820080Y-60495606D01*
X130841429Y-60458627D01*
X130891994Y-60410413D01*
X130960600Y-60397188D01*
X131025466Y-60423155D01*
X131036497Y-60432946D01*
X131579473Y-60975922D01*
X131579473Y-60975921D01*
X131579474Y-60975922D01*
X131579474Y-60975921D01*
X131592943Y-60970342D01*
X131599159Y-60949174D01*
X131603159Y-60943324D01*
X131611857Y-60931352D01*
X131614333Y-60926494D01*
X131704755Y-60749031D01*
X131767990Y-60554417D01*
X131800000Y-60352317D01*
X131800000Y-60147681D01*
X131800000Y-60146787D01*
X131799273Y-60143100D01*
X131767990Y-59945582D01*
X131704755Y-59750968D01*
X131704753Y-59750965D01*
X131704753Y-59750963D01*
X131611859Y-59568650D01*
X131611852Y-59568640D01*
X131603155Y-59556671D01*
X131593615Y-59529933D01*
X131579473Y-59524075D01*
X131036497Y-60067053D01*
X130975174Y-60100538D01*
X130905483Y-60095554D01*
X130849549Y-60053683D01*
X130841430Y-60041374D01*
X130820080Y-60004394D01*
X130745606Y-59929920D01*
X130708625Y-59908569D01*
X130660410Y-59858003D01*
X130647186Y-59789396D01*
X130673154Y-59724531D01*
X130682936Y-59713509D01*
X131225921Y-59170525D01*
X131225921Y-59170522D01*
X131225919Y-59170520D01*
X131181363Y-59138149D01*
X131181354Y-59138143D01*
X131159369Y-59126941D01*
X130999031Y-59045244D01*
X130804417Y-58982009D01*
X130804411Y-58982008D01*
X130602322Y-58950000D01*
X130602317Y-58950000D01*
X130397683Y-58950000D01*
X130397678Y-58950000D01*
X130195587Y-58982008D01*
X130195585Y-58982008D01*
X130195582Y-58982009D01*
X130098275Y-59013626D01*
X130000963Y-59045245D01*
X129818640Y-59138145D01*
X129774077Y-59170522D01*
X129774077Y-59170523D01*
X129774077Y-59170524D01*
X130111666Y-59508113D01*
X130317055Y-59713501D01*
X130350540Y-59774824D01*
X130345556Y-59844515D01*
X130303685Y-59900449D01*
X130291374Y-59908569D01*
X130254397Y-59929917D01*
X130254392Y-59929921D01*
X130179921Y-60004392D01*
X130179915Y-60004400D01*
X130158568Y-60041374D01*
X130108001Y-60089589D01*
X130039393Y-60102811D01*
X129974529Y-60076843D01*
X129963501Y-60067054D01*
X129420524Y-59524077D01*
X129420523Y-59524077D01*
X129420522Y-59524077D01*
X129388145Y-59568640D01*
X129295245Y-59750963D01*
X129273635Y-59817472D01*
X129232009Y-59945582D01*
X129232008Y-59945585D01*
X129232008Y-59945587D01*
X129200000Y-60147676D01*
X129200000Y-60352322D01*
X129225829Y-60515396D01*
X129232009Y-60554417D01*
X129295244Y-60749031D01*
X129314335Y-60786498D01*
X129388144Y-60931357D01*
X129388147Y-60931360D01*
X129420517Y-60975914D01*
X129420521Y-60975919D01*
X129420523Y-60975921D01*
X129420524Y-60975922D01*
X129963503Y-60432942D01*
X130024824Y-60399459D01*
X130094515Y-60404443D01*
X130150449Y-60446314D01*
X130158567Y-60458622D01*
X130179920Y-60495606D01*
X130254394Y-60570080D01*
X130254395Y-60570081D01*
X130254397Y-60570082D01*
X130291373Y-60591430D01*
X130339588Y-60641996D01*
X130352812Y-60710603D01*
X130326844Y-60775468D01*
X130317054Y-60786498D01*
X129774075Y-61329473D01*
X129774076Y-61329474D01*
X129818652Y-61361861D01*
X129856492Y-61381141D01*
X129885337Y-61401475D01*
X129894752Y-61410367D01*
X129929974Y-61470709D01*
X129926982Y-61540514D01*
X129890813Y-61594229D01*
X129883809Y-61600298D01*
X129858902Y-61617069D01*
X129818392Y-61637710D01*
X129652783Y-61758030D01*
X129508029Y-61902784D01*
X129508027Y-61902787D01*
X129387715Y-62068385D01*
X129387708Y-62068397D01*
X129294786Y-62250764D01*
X129294780Y-62250777D01*
X129257930Y-62364189D01*
X129232840Y-62441411D01*
X129231522Y-62445466D01*
X129199500Y-62647642D01*
X126000499Y-62647642D01*
X126000499Y-62482331D01*
X126000499Y-61849998D01*
X126000498Y-61849981D01*
X125989999Y-61747203D01*
X125989998Y-61747200D01*
X125934814Y-61580666D01*
X125842712Y-61431344D01*
X125718656Y-61307288D01*
X125579052Y-61221180D01*
X125551959Y-61198569D01*
X125542673Y-61188245D01*
X125512477Y-61125242D01*
X125521136Y-61055915D01*
X125524933Y-61047177D01*
X125550974Y-61008920D01*
X125680104Y-60879792D01*
X125805051Y-60707816D01*
X125901557Y-60518412D01*
X125967246Y-60316243D01*
X126000500Y-60106287D01*
X126000500Y-59893713D01*
X125967246Y-59683757D01*
X125901557Y-59481588D01*
X125805051Y-59292184D01*
X125805049Y-59292181D01*
X125803952Y-59290671D01*
X125803951Y-59290670D01*
X125680104Y-59120208D01*
X125529792Y-58969896D01*
X125529786Y-58969890D01*
X125357820Y-58844951D01*
X125344167Y-58837994D01*
X125190245Y-58759567D01*
X125190240Y-58759565D01*
X125168414Y-58748444D01*
X125168413Y-58748443D01*
X125168412Y-58748443D01*
X125071550Y-58716970D01*
X124975074Y-58685623D01*
X124970552Y-58683770D01*
X124961362Y-58681600D01*
X124956599Y-58681226D01*
X124804957Y-58657208D01*
X124785489Y-58654124D01*
X124756290Y-58649500D01*
X124756287Y-58649500D01*
X124243713Y-58649500D01*
X124243709Y-58649500D01*
X124204776Y-58655666D01*
X124195042Y-58657208D01*
X124157654Y-58663129D01*
X124033763Y-58682752D01*
X123831582Y-58748445D01*
X123642182Y-58844949D01*
X123470210Y-58969892D01*
X123319892Y-59120210D01*
X123283340Y-59170520D01*
X123196048Y-59290670D01*
X123194949Y-59292182D01*
X123098445Y-59481582D01*
X123098444Y-59481584D01*
X123098444Y-59481585D01*
X123088277Y-59512875D01*
X123032752Y-59683763D01*
X123029816Y-59702301D01*
X123006930Y-59846803D01*
X123006032Y-59852470D01*
X123006032Y-59852471D01*
X122999500Y-59893709D01*
X114000000Y-59893709D01*
X114000000Y-58389370D01*
X114005023Y-58354435D01*
X114008671Y-58342011D01*
X114046445Y-58283233D01*
X114110001Y-58254208D01*
X114174283Y-58262050D01*
X114182874Y-58265537D01*
X114209123Y-58280115D01*
X114213565Y-58283342D01*
X114424003Y-58390566D01*
X114424004Y-58390566D01*
X114424877Y-58391011D01*
X114428630Y-58392070D01*
X114476335Y-58407569D01*
X114544410Y-58429688D01*
X114544411Y-58429689D01*
X114544412Y-58429689D01*
X114648631Y-58463553D01*
X114881903Y-58500500D01*
X114881908Y-58500500D01*
X115118096Y-58500500D01*
X115118097Y-58500500D01*
X115351368Y-58463553D01*
X115575992Y-58390568D01*
X115786433Y-58283343D01*
X115977510Y-58144517D01*
X116144517Y-57977510D01*
X116283343Y-57786433D01*
X116390568Y-57575992D01*
X116463553Y-57351368D01*
X116488929Y-57191150D01*
X116500500Y-57118097D01*
X116500500Y-56881902D01*
X116463553Y-56648631D01*
X116390566Y-56424003D01*
X116390564Y-56424000D01*
X116390564Y-56423998D01*
X116361480Y-56366920D01*
X116283342Y-56213565D01*
X116281704Y-56211311D01*
X116265234Y-56180100D01*
X116260881Y-56167903D01*
X116256889Y-56098150D01*
X116291242Y-56037309D01*
X116347864Y-56005863D01*
X116356867Y-56003633D01*
X116386667Y-56000000D01*
X172110629Y-56000000D01*
X172145564Y-56005023D01*
G37*
%TD.AperFunction*%
%TD*%
M02*
